<?xml version="1.0" standalone="no"?>
<!DOCTYPE svg PUBLIC "-//W3C//DTD SVG 20010904//EN"
 "http://www.w3.org/TR/2001/REC-SVG-20010904/DTD/svg10.dtd">
<svg version="1.0" xmlns="http://www.w3.org/2000/svg"
 width="1000.000000pt" height="958.000000pt" viewBox="0 0 1000.000000 958.000000"
 preserveAspectRatio="xMidYMid meet">

<g transform="translate(0.000000,958.000000) scale(0.100000,-0.100000)"
fill="#000000" stroke="none">
<path d="M6158 8543 c-18 -43 -16 -53 12 -53 40 0 180 -55 180 -71 0 -4 -30
-58 -67 -120 -76 -127 -80 -106 30 -177 31 -21 76 -61 100 -89 23 -28 65 -70
94 -93 102 -81 190 -226 236 -388 18 -67 21 -102 21 -272 -1 -134 -6 -220 -16
-275 -15 -76 -13 -95 12 -95 8 0 77 121 110 193 108 239 118 538 28 797 -38
106 -62 155 -127 249 -94 139 -256 283 -398 355 -50 25 -179 76 -192 76 -3 0
-14 -17 -23 -37z"/>
<path d="M5352 8491 c-256 -142 -450 -388 -528 -671 -33 -122 -44 -355 -21
-465 14 -68 15 -68 16 -25 5 190 97 425 205 525 6 6 24 39 41 74 38 80 123
162 225 215 41 21 77 40 79 42 2 2 -20 45 -49 96 -29 51 -55 96 -57 100 -6 12
56 46 125 69 60 20 63 22 49 42 -20 30 -26 30 -85 -2z"/>
<path d="M6156 7283 c20 -144 56 -252 118 -355 38 -64 127 -161 184 -200 l24
-16 -42 -83 c-63 -127 -124 -197 -205 -235 -86 -41 -168 -30 -224 30 -23 25
-24 26 -6 46 26 29 22 70 -9 97 -40 34 -66 31 -66 -9 1 -31 2 -32 15 -14 17
23 35 13 35 -20 0 -42 -82 -65 -168 -48 l-31 6 26 34 c24 33 27 34 44 18 18
-16 19 -16 19 9 0 36 -45 87 -77 87 -26 0 -26 0 -8 -21 19 -19 19 -21 0 -55
-31 -59 -39 -61 -115 -35 l-69 24 19 25 c28 35 25 47 -6 23 -88 -69 -370 -68
-419 2 -8 12 -15 17 -15 11 0 -6 9 -23 20 -37 l21 -26 -58 -29 c-82 -41 -186
-74 -237 -74 -82 -2 -132 38 -92 71 11 10 17 8 25 -6 9 -15 10 -13 11 15 0 30
-2 33 -22 27 -28 -8 -68 -50 -68 -72 0 -8 16 -31 35 -50 32 -32 35 -40 35 -92
0 -158 44 -335 111 -447 72 -119 226 -258 344 -309 66 -29 281 -13 514 37 327
70 585 233 692 437 11 23 24 41 28 41 9 0 105 -100 153 -160 47 -59 128 -181
163 -248 16 -29 32 -51 36 -50 10 4 614 529 616 537 1 3 -25 26 -59 51 l-62
44 288 281 287 280 -36 35 -36 34 -124 -124 c-119 -120 -123 -125 -102 -137
21 -12 20 -12 -13 -13 -32 0 -50 -14 -188 -149 l-152 -150 -80 60 c-44 32 -80
63 -80 68 0 5 41 58 91 117 l92 107 -69 -8 c-65 -7 -71 -10 -104 -48 -19 -23
-46 -53 -59 -67 l-23 -25 14 25 c8 14 85 136 171 271 86 135 157 252 159 258
2 7 -13 23 -34 36 l-36 24 -129 -202 c-71 -111 -151 -237 -177 -280 -27 -42
-52 -80 -57 -83 -9 -5 -99 54 -99 66 0 4 18 32 41 63 24 34 35 57 27 58 -7 0
-21 2 -31 4 -23 4 -73 -39 -81 -70 -4 -16 1 -40 14 -66 39 -75 -5 -146 -82
-136 -31 4 -38 2 -38 -12 0 -45 -74 -76 -121 -50 -19 10 -20 8 -14 -24 4 -20
3 -46 -1 -59 -9 -26 -32 160 -33 267 -1 58 1 63 37 97 20 20 64 50 97 67 l60
32 -62 -4 c-46 -2 -71 -10 -102 -30 -22 -15 -42 -27 -44 -27 -3 0 -7 21 -11
46 -11 83 -58 218 -95 274 -48 73 -131 155 -210 208 -80 53 -91 54 -85 5z
m-202 -938 c32 -129 15 -219 -49 -249 -71 -34 -189 -14 -247 41 l-27 25 -62
-21 c-67 -22 -151 -27 -193 -11 -22 8 -34 4 -72 -20 -26 -16 -67 -32 -92 -36
-88 -13 -167 56 -217 189 -14 37 -25 71 -25 76 0 5 44 11 98 14 53 4 109 9
123 13 24 5 28 2 39 -33 19 -55 66 -120 110 -149 77 -51 201 -42 297 21 41 27
58 47 83 99 l32 64 64 11 c35 7 74 16 86 21 13 5 26 9 29 9 4 1 14 -28 23 -64z
m-289 37 l50 -8 -49 -32 c-132 -85 -270 -87 -388 -5 -41 28 -49 49 -20 55 29
7 354 -2 407 -10z"/>
<path d="M5371 7243 c-6 -21 -15 -72 -18 -114 -6 -74 -5 -77 20 -94 20 -13 30
-14 46 -5 28 14 28 86 2 163 -31 89 -35 94 -50 50z"/>
<path d="M5685 7273 c-11 -3 -26 -10 -34 -17 -12 -9 -13 -8 -6 4 5 9 0 8 -13
-4 -20 -17 -42 -72 -42 -103 0 -10 25 -13 94 -13 67 0 122 -7 192 -25 119 -30
114 -30 114 -5 0 52 -55 107 -145 144 -41 18 -128 28 -160 19z"/>
<path d="M5122 7155 c-96 -23 -182 -104 -182 -171 0 -19 4 -34 9 -34 5 0 35
16 67 35 63 38 140 70 197 80 20 4 37 11 37 17 0 29 -52 92 -72 87 -2 0 -27
-6 -56 -14z"/>
<path d="M7545 7070 c-3 -6 1 -7 9 -4 18 7 21 14 7 14 -6 0 -13 -4 -16 -10z"/>
<path d="M5733 6956 c-46 -21 -67 -58 -60 -107 6 -48 21 -68 65 -86 101 -42
188 86 115 167 -33 36 -76 45 -120 26z m22 -61 c0 -25 -4 -30 -25 -30 -16 0
-26 6 -28 18 -6 30 6 49 30 45 18 -2 23 -9 23 -33z m30 -34 c7 -12 -12 -24
-25 -16 -11 7 -4 25 10 25 5 0 11 -4 15 -9z"/>
<path d="M7535 6950 c-19 -8 -19 -9 2 -9 12 -1 25 4 28 9 7 12 -2 12 -30 0z"/>
<path d="M5085 6908 c-49 -28 -59 -81 -22 -122 51 -57 137 -26 137 49 0 64
-62 103 -115 73z m23 -41 c4 -20 -25 -34 -40 -19 -15 15 -1 44 19 40 10 -2 19
-11 21 -21z m16 -38 c-3 -5 -10 -7 -15 -3 -5 3 -7 10 -3 15 3 5 10 7 15 3 5
-3 7 -10 3 -15z"/>
<path d="M7398 6783 c6 -2 18 -2 25 0 6 3 1 5 -13 5 -14 0 -19 -2 -12 -5z"/>
<path d="M1924 6522 c-143 -51 -266 -180 -287 -302 -22 -123 81 -210 247 -210
80 0 136 27 175 87 l31 46 17 -39 c30 -66 23 -232 -20 -461 -48 -253 -61 -387
-54 -547 8 -191 40 -321 118 -480 182 -368 510 -596 859 -596 l89 0 62 -89 61
-89 52 -5 c38 -3 57 0 76 13 14 10 49 28 78 40 28 12 52 28 52 34 -1 6 -40 71
-89 145 l-88 134 -119 41 c-512 179 -777 489 -824 966 -14 139 -1 308 42 538
52 281 42 459 -35 605 -37 70 -92 129 -149 159 -60 31 -220 37 -294 10z"/>
<path d="M4523 5543 c-4 -54 -8 -260 -7 -458 1 -361 15 -581 49 -800 13 -84
14 -63 9 295 -5 407 -27 1047 -37 1056 -3 3 -9 -39 -14 -93z"/>
<path d="M6527 5000 c-71 -110 -168 -353 -155 -391 3 -10 48 55 91 132 47 86
124 319 105 319 -1 0 -20 -27 -41 -60z"/>
<path d="M7678 3745 c-175 -172 -318 -316 -318 -320 0 -3 12 -22 26 -40 l26
-35 324 318 c178 174 324 322 324 328 0 10 -51 64 -61 64 -2 -1 -147 -142
-321 -315z"/>
<path d="M4570 4007 c0 -2 -55 -180 -93 -302 -6 -18 -2 -20 51 -22 61 -3 168
-32 155 -42 -4 -4 -26 -13 -48 -20 -22 -7 -77 -31 -122 -52 -90 -43 -87 -39
-119 -174 l-7 -30 24 18 c57 40 260 127 298 127 3 0 -17 -16 -44 -35 -73 -51
-250 -191 -307 -244 -9 -8 -32 -120 -68 -326 -75 -429 -93 -631 -88 -951 l3
-222 -35 28 c-45 36 -177 173 -216 225 -96 126 -173 290 -200 424 -24 123 -15
323 20 448 31 107 85 237 126 305 l29 47 -51 93 c-27 51 -86 149 -130 218 -44
69 -85 133 -92 143 -9 14 -21 16 -76 11 -41 -4 -70 -12 -77 -22 -16 -19 -17
-128 -2 -137 18 -12 29 -54 20 -78 -8 -20 -4 -28 25 -51 19 -15 34 -36 34 -47
0 -11 14 -40 31 -65 l30 -45 -59 -117 c-280 -550 -247 -1016 99 -1401 117
-131 324 -284 519 -385 l95 -49 57 -116 c68 -140 140 -235 237 -317 71 -60
194 -134 205 -123 3 3 -1 75 -9 160 -9 86 -19 223 -24 305 -10 158 -5 1050 7
1194 4 47 7 -153 8 -445 1 -495 5 -624 35 -1137 l12 -196 29 -6 c30 -6 33 -10
42 -67 5 -26 13 -38 27 -42 20 -5 21 -3 15 36 -69 504 -59 1438 24 2242 l17
170 2 -360 c2 -481 26 -995 71 -1505 20 -218 51 -535 56 -568 6 -36 -3 -35 94
-16 26 5 29 9 24 30 -5 18 -2 24 11 24 11 0 15 5 12 15 -35 89 -87 477 -122
900 -46 569 -54 894 -34 1385 11 285 27 403 28 220 2 -240 48 -889 87 -1240
33 -295 90 -659 145 -920 21 -104 71 -313 75 -318 8 -11 44 12 44 28 0 15 10
20 48 25 299 40 539 154 675 321 57 69 120 196 137 274 16 72 21 372 8 525 -5
66 -19 202 -32 302 l-22 181 388 382 c213 210 388 387 387 393 0 7 -8 29 -17
50 l-17 38 -374 -368 c-206 -202 -377 -367 -380 -366 -3 1 -16 64 -29 140 -63
390 -146 813 -227 1163 -19 83 -35 153 -35 155 0 1 -19 -1 -42 -7 -99 -22
-309 -48 -394 -48 l-91 0 -7 -62 c-13 -125 -82 -225 -194 -280 -61 -30 -74
-33 -162 -33 -110 1 -161 19 -241 86 -98 82 -137 231 -94 359 9 28 15 52 14
53 -2 1 -40 20 -84 42 -43 21 -87 47 -97 57 -10 10 -18 17 -18 15z m269 -982
c-6 -39 -13 -72 -16 -75 -6 -6 6 105 14 133 11 40 12 7 2 -58z m-22 -152 c-3
-10 -5 -4 -5 12 0 17 2 24 5 18 2 -7 2 -21 0 -30z m-10 -85 c-3 -7 -5 -2 -5
12 0 14 2 19 5 13 2 -7 2 -19 0 -25z m-10 -110 c-3 -7 -5 -2 -5 12 0 14 2 19
5 13 2 -7 2 -19 0 -25z m-10 -140 c-2 -13 -4 -5 -4 17 -1 22 1 32 4 23 2 -10
2 -28 0 -40z m1173 -373 c18 -104 47 -140 149 -187 46 -21 80 -42 75 -47 -13
-11 -540 -321 -547 -321 -3 0 25 66 62 148 268 586 237 538 261 407z"/>
<path d="M4936 3808 c-66 -107 23 -248 156 -248 103 0 190 94 176 191 -3 22
-10 25 -91 36 -48 7 -117 19 -153 28 -80 18 -71 19 -88 -7z"/>
<path d="M4371 3304 c0 -11 3 -14 6 -6 3 7 2 16 -1 19 -3 4 -6 -2 -5 -13z"/>
</g>
</svg>
