<?xml version="1.0" standalone="no"?>
<!DOCTYPE svg PUBLIC "-//W3C//DTD SVG 20010904//EN"
 "http://www.w3.org/TR/2001/REC-SVG-20010904/DTD/svg10.dtd">
<svg version="1.0" xmlns="http://www.w3.org/2000/svg"
 width="292.000000pt" height="345.000000pt" viewBox="0 0 292.000000 345.000000"
 preserveAspectRatio="xMidYMid meet">

<g transform="translate(0.000000,345.000000) scale(0.100000,-0.100000)"
fill="#000000" stroke="none">
<path d="M1160 3331 c0 -17 4 -32 8 -35 4 -2 6 11 4 30 -5 42 -12 45 -12 5z"/>
<path d="M1417 3343 c-4 -3 -7 -11 -7 -17 0 -6 5 -5 12 2 6 6 9 14 7 17 -3 3
-9 2 -12 -2z"/>
<path d="M1368 3318 c5 -5 16 -8 23 -6 8 3 3 7 -10 11 -17 4 -21 3 -13 -5z"/>
<path d="M1747 3282 c-31 -33 -33 -44 -10 -63 15 -13 15 -12 2 8 -12 20 -11
25 16 53 16 16 26 30 24 30 -3 0 -17 -13 -32 -28z"/>
<path d="M1465 3270 c11 -5 29 -8 40 -8 16 0 15 2 -5 8 -34 11 -60 11 -35 0z"/>
<path d="M1548 3253 c7 -3 16 -2 19 1 4 3 -2 6 -13 5 -11 0 -14 -3 -6 -6z"/>
<path d="M1588 3243 c7 -3 16 -2 19 1 4 3 -2 6 -13 5 -11 0 -14 -3 -6 -6z"/>
<path d="M1650 3226 c28 -17 50 -21 35 -7 -6 5 -21 12 -35 15 l-25 7 25 -15z"/>
<path d="M1700 3206 c0 -2 19 -16 43 -29 97 -57 175 -144 244 -272 36 -67 45
-68 12 -2 -49 96 -116 180 -188 237 -46 36 -111 75 -111 66z"/>
<path d="M801 3190 c0 -8 4 -22 9 -30 12 -18 12 -2 0 25 -6 13 -9 15 -9 5z"/>
<path d="M1435 3180 c137 -12 234 -47 305 -110 19 -17 49 -40 65 -52 17 -11 5
2 -25 30 -30 28 -75 62 -100 76 -70 38 -184 66 -265 64 l-70 -1 90 -7z"/>
<path d="M1963 3175 c-3 -9 -3 -18 -1 -21 3 -3 8 4 11 16 6 23 -1 27 -10 5z"/>
<path d="M908 3082 c-111 -115 -141 -162 -168 -267 -21 -80 -26 -237 -10 -300
4 -16 5 17 2 75 -10 219 32 331 185 491 53 54 93 99 91 99 -3 0 -48 -44 -100
-98z"/>
<path d="M830 3123 c7 -15 19 -23 33 -22 20 1 20 2 2 6 -11 3 -25 13 -33 22
-11 14 -12 13 -2 -6z"/>
<path d="M1500 3096 c41 -7 92 -21 113 -30 27 -11 37 -12 35 -4 -6 17 -73 35
-155 42 l-68 5 75 -13z"/>
<path d="M1069 3083 c-13 -16 -12 -17 4 -4 9 7 17 15 17 17 0 8 -8 3 -21 -13z"/>
<path d="M1908 3093 c7 -3 16 -2 19 1 4 3 -2 6 -13 5 -11 0 -14 -3 -6 -6z"/>
<path d="M1079 3063 c-13 -16 -12 -17 4 -4 9 7 17 15 17 17 0 8 -8 3 -21 -13z"/>
<path d="M1309 3070 c-1 -3 -1 -13 0 -22 1 -10 -3 -18 -8 -18 -6 0 -11 9 -11
19 0 14 -5 18 -20 14 -11 -3 -23 -10 -27 -16 -4 -6 0 -8 8 -5 10 4 15 -1 15
-12 0 -14 -4 -16 -17 -9 -10 5 -20 14 -22 21 -4 10 -6 10 -6 0 -1 -7 -6 -10
-11 -7 -6 4 -22 -1 -36 -10 -24 -16 -25 -17 -8 -36 16 -18 16 -19 -1 -25 -18
-7 -38 13 -28 30 4 5 -5 1 -20 -10 -22 -16 -24 -21 -11 -30 18 -15 18 -24 -2
-24 -8 0 -12 5 -9 10 3 6 2 10 -4 10 -6 0 -15 -10 -22 -21 -10 -20 -9 -21 11
-16 22 6 22 5 -4 -22 -14 -15 -26 -32 -26 -39 0 -7 -6 -12 -14 -12 -19 0 -27
-25 -13 -39 8 -8 7 -11 -4 -11 -9 0 -15 -10 -15 -27 -1 -16 -4 -43 -8 -61 -3
-19 -3 -31 1 -29 5 3 7 -14 7 -36 -1 -26 5 -49 15 -61 9 -11 10 -16 4 -12 -17
9 -16 -3 1 -34 12 -21 12 -30 0 -59 -8 -18 -14 -58 -14 -88 l0 -55 -24 29
c-114 137 -128 421 -27 574 33 50 80 97 88 89 4 -3 7 4 9 14 5 35 -104 -85
-140 -153 -80 -157 -68 -382 29 -518 56 -78 57 -80 39 -98 -15 -15 -18 -14
-41 7 -14 13 -32 36 -40 51 -8 16 -17 27 -20 24 -7 -8 7 -29 45 -71 22 -24 32
-45 31 -63 -1 -16 0 -34 2 -42 8 -28 -28 -21 -61 11 -37 38 -111 148 -128 193
l-12 30 5 -30 c7 -35 101 -180 140 -213 21 -18 24 -26 15 -42 -6 -11 -22 -27
-36 -36 -70 -47 -80 -170 -19 -242 17 -21 25 -42 25 -68 0 -22 4 -45 8 -52 13
-19 69 -3 87 25 9 13 33 31 53 40 132 59 180 86 175 99 -3 8 -9 14 -15 14 -5
0 -6 5 -3 10 3 6 -1 10 -10 10 -9 0 -14 4 -11 9 3 5 0 11 -8 14 -8 3 -17 25
-21 49 -4 24 -10 47 -13 52 -3 6 -7 19 -8 30 -8 58 -18 93 -34 113 -41 52 -52
175 -18 197 28 17 39 -4 47 -87 10 -104 18 -106 13 -3 -5 94 6 141 45 187 18
21 24 38 21 59 -5 36 4 37 117 14 61 -13 87 -14 133 -5 182 35 181 35 239 23
62 -13 82 -9 37 8 -59 23 -145 23 -235 1 -71 -17 -95 -19 -145 -11 -88 15
-180 12 -222 -6 -90 -38 -81 -47 -79 74 2 89 6 115 25 154 13 26 24 51 25 55
1 4 24 28 51 52 55 48 137 89 194 96 106 12 117 10 161 -24 23 -18 48 -46 57
-62 13 -27 13 -29 -3 -30 -10 -1 6 -5 36 -10 30 -5 56 -8 58 -5 12 12 -28 62
-70 86 -28 16 -44 31 -38 34 6 4 11 2 11 -4 0 -7 7 -10 15 -6 8 3 15 2 15 -3
0 -4 18 -16 40 -26 22 -10 37 -22 33 -28 -4 -6 0 -8 10 -4 9 3 16 2 14 -2 -3
-12 43 -72 51 -67 4 2 8 -3 9 -12 0 -9 9 -39 20 -67 18 -47 28 -170 16 -201
-4 -12 -27 -12 -100 1 -42 7 -43 7 -43 -21 0 -16 14 -49 30 -73 36 -52 43 -89
38 -180 -2 -38 0 -67 4 -65 4 3 8 24 8 47 0 55 18 117 33 117 24 0 37 -24 37
-64 0 -54 -18 -116 -40 -141 -16 -18 -26 -50 -33 -112 -2 -12 -6 -25 -10 -29
-4 -4 -7 -16 -7 -26 0 -18 1 -18 22 1 16 15 18 24 10 33 -13 17 1 43 18 33 6
-4 9 -17 6 -28 -3 -14 2 -30 17 -45 23 -24 18 -45 -16 -66 -12 -8 -22 -5 -42
14 -21 20 -25 21 -25 6 0 -9 -6 -19 -13 -22 -15 -5 -18 -26 -11 -61 4 -24 120
-93 157 -93 30 0 84 -34 91 -58 4 -10 22 -24 42 -30 l37 -11 -6 51 c-4 28 -14
62 -23 76 -15 23 -15 27 6 64 19 34 22 50 17 106 -3 46 -10 68 -21 74 -9 5
-14 14 -10 19 3 5 2 9 -3 8 -22 -3 -52 16 -57 37 -4 13 -11 24 -17 24 -7 0 -8
24 -3 71 6 62 4 74 -14 99 -12 16 -26 52 -30 82 -5 29 -13 61 -17 71 -5 12 -2
17 10 17 13 0 15 6 10 30 -5 24 -4 29 8 24 8 -3 17 2 20 10 4 10 1 16 -8 16
-22 0 -18 17 5 23 14 4 20 14 20 35 0 41 -9 62 -25 56 -7 -3 -16 -1 -20 5 -3
7 2 11 14 11 16 0 21 6 21 26 0 14 -4 23 -10 19 -6 -4 -8 -11 -5 -16 3 -5 -1
-6 -9 -3 -24 9 -28 34 -6 34 13 0 18 5 14 15 -4 8 -13 15 -21 15 -8 0 -12 -4
-9 -8 3 -5 -1 -9 -8 -9 -8 0 -13 7 -11 16 1 9 11 16 23 15 l21 0 -20 38 c-11
21 -24 38 -30 38 -6 0 -8 4 -5 9 9 13 -102 124 -115 115 -7 -4 -9 -3 -6 3 7
11 -53 40 -127 59 -61 16 -58 16 -52 6 9 -15 -9 -31 -24 -21 -13 8 -13 10 0
19 13 8 12 10 -2 10 -11 0 -18 -8 -18 -19 0 -24 -45 -32 -80 -14 l-24 12 24
10 c23 9 22 10 -12 9 -21 -1 -39 -5 -39 -8z m231 -26 c0 -17 -22 -14 -28 4 -2
7 3 12 12 12 9 0 16 -7 16 -16z m60 -9 c0 -1 -9 -10 -19 -19 -19 -17 -19 -17
-16 1 2 10 4 21 4 25 1 6 31 0 31 -7z m-390 -30 c0 -8 -4 -15 -9 -15 -13 0
-22 16 -14 24 11 11 23 6 23 -9z m430 0 c0 -8 -4 -15 -10 -15 -5 0 -10 7 -10
15 0 8 5 15 10 15 6 0 10 -7 10 -15z m47 -41 c-9 -9 -28 6 -21 18 4 6 10 6 17
-1 6 -6 8 -13 4 -17z m44 -37 c-13 -13 -31 0 -24 19 4 11 8 12 20 3 9 -8 10
-16 4 -22z m39 -33 c0 -21 -17 -17 -23 5 -3 14 -1 18 9 14 8 -3 14 -11 14 -19z
m30 -43 c0 -5 -7 -11 -15 -15 -15 -5 -20 5 -8 17 9 10 23 9 23 -2z m55 -222
c-6 -16 -9 -18 -16 -8 -4 8 -3 19 3 26 15 18 21 9 13 -18z m-710 -79 c-28 -12
-37 -12 -30 0 3 6 16 10 28 9 21 0 21 -1 2 -9z m-44 -472 c1 -7 0 -23 0 -34
-1 -12 5 -24 13 -27 23 -9 20 -54 -3 -67 -26 -13 -50 -3 -57 26 -7 27 3 47 20
41 15 -6 17 23 4 40 -10 13 -3 33 13 33 5 0 9 -6 10 -12z"/>
<path d="M978 3007 c-36 -35 -77 -84 -92 -109 -35 -59 -66 -154 -65 -192 l2
-31 4 30 c7 55 43 149 73 195 16 25 58 73 92 108 34 34 59 62 56 62 -3 0 -35
-29 -70 -63z"/>
<path d="M1665 3059 c-7 -11 9 -26 58 -56 15 -10 27 -20 27 -24 0 -3 14 -22
30 -40 17 -19 38 -49 47 -67 19 -40 29 -36 11 4 -20 45 -75 107 -131 148 -20
15 -35 32 -32 37 4 5 4 9 1 9 -3 0 -8 -5 -11 -11z"/>
<path d="M670 3023 c0 -5 12 -21 26 -38 17 -21 22 -23 14 -8 -5 12 -15 25 -20
28 -6 4 -8 11 -5 16 4 5 1 9 -4 9 -6 0 -11 -3 -11 -7z"/>
<path d="M718 3023 c7 -3 16 -2 19 1 4 3 -2 6 -13 5 -11 0 -14 -3 -6 -6z"/>
<path d="M2086 3003 c-6 -14 -5 -15 5 -6 7 7 10 15 7 18 -3 3 -9 -2 -12 -12z"/>
<path d="M1993 2985 c-3 -9 -3 -18 -1 -21 3 -3 8 4 11 16 6 23 -1 27 -10 5z"/>
<path d="M738 2953 c7 -3 16 -2 19 1 4 3 -2 6 -13 5 -11 0 -14 -3 -6 -6z"/>
<path d="M1870 2943 c0 -4 5 -15 10 -23 8 -13 10 -13 10 2 0 9 -4 20 -10 23
-5 3 -10 3 -10 -2z"/>
<path d="M2018 2943 c7 -3 16 -2 19 1 4 3 -2 6 -13 5 -11 0 -14 -3 -6 -6z"/>
<path d="M1037 2879 c-4 -16 -3 -18 9 -8 7 6 11 15 8 20 -8 13 -11 11 -17 -12z"/>
<path d="M1115 2836 c-31 -40 -55 -123 -54 -181 l1 -40 13 50 c7 28 20 64 29
80 9 17 16 38 16 48 0 10 7 31 15 47 21 40 12 38 -20 -4z"/>
<path d="M1384 2856 c-3 -8 -4 -29 -2 -48 2 -26 8 -34 27 -36 13 -2 28 2 32
10 13 19 11 62 -3 76 -16 16 -47 15 -54 -2z m17 -19 c-10 -9 -11 -8 -5 6 3 10
9 15 12 12 3 -3 0 -11 -7 -18z"/>
<path d="M1686 2835 c4 -8 11 -15 16 -15 6 0 5 6 -2 15 -7 8 -14 15 -16 15 -2
0 -1 -7 2 -15z"/>
<path d="M588 2833 c7 -3 16 -2 19 1 4 3 -2 6 -13 5 -11 0 -14 -3 -6 -6z"/>
<path d="M90 2790 c0 -34 -3 -33 70 -16 l55 13 -54 17 c-71 21 -71 21 -71 -14z"/>
<path d="M1236 2813 c-12 -12 -6 -43 9 -43 8 0 15 9 15 19 0 21 -13 34 -24 24z"/>
<path d="M1596 2813 c-12 -12 -6 -43 9 -43 8 0 15 9 15 19 0 21 -13 34 -24 24z"/>
<path d="M1697 2798 c-6 -21 4 -47 20 -50 11 -2 17 -17 19 -52 1 -27 7 -53 13
-59 17 -17 6 95 -14 136 -18 38 -30 46 -38 25z"/>
<path d="M2070 2776 c0 -2 7 -7 16 -10 8 -3 12 -2 9 4 -6 10 -25 14 -25 6z"/>
<path d="M1360 2746 c0 -2 7 -7 16 -10 8 -3 12 -2 9 4 -6 10 -25 14 -25 6z"/>
<path d="M1408 2723 c7 -3 16 -2 19 1 4 3 -2 6 -13 5 -11 0 -14 -3 -6 -6z"/>
<path d="M1564 2716 c11 -9 23 -16 28 -16 17 0 7 -20 -16 -32 -22 -12 -16 -13
55 -13 76 -1 79 0 79 22 0 24 -30 36 -120 48 -42 6 -44 5 -26 -9z"/>
<path d="M1950 2682 c0 -22 4 -43 9 -46 5 -4 7 12 4 36 -8 57 -13 61 -13 10z"/>
<path d="M69 2648 c-9 -24 -27 -68 -39 -98 -19 -47 -23 -79 -27 -222 l-5 -168
83 -2 c46 -1 100 -2 119 -1 19 0 38 -4 43 -11 4 -6 5 1 3 17 -3 19 0 27 10 27
21 0 13 23 -12 34 -16 7 -26 35 -48 140 -27 125 -59 230 -78 251 -4 5 -8 16
-8 25 0 9 -6 24 -13 33 -11 15 -14 13 -28 -25z m158 -470 c-3 -8 -6 -5 -6 6
-1 11 2 17 5 13 3 -3 4 -12 1 -19z m-27 2 c0 -5 -2 -10 -4 -10 -3 0 -8 5 -11
10 -3 6 -1 10 4 10 6 0 11 -4 11 -10z"/>
<path d="M2063 2645 c0 -27 2 -38 4 -22 2 15 2 37 0 50 -2 12 -4 0 -4 -28z"/>
<path d="M640 2656 c0 -2 7 -7 16 -10 8 -3 12 -2 9 4 -6 10 -25 14 -25 6z"/>
<path d="M561 2631 c-8 -5 -9 -11 -3 -15 5 -3 12 1 16 9 6 17 6 18 -13 6z"/>
<path d="M588 2603 c7 -3 16 -2 19 1 4 3 -2 6 -13 5 -11 0 -14 -3 -6 -6z"/>
<path d="M2090 2601 c0 -6 4 -13 10 -16 6 -3 7 1 4 9 -7 18 -14 21 -14 7z"/>
<path d="M628 2593 c6 -2 18 -2 25 0 6 3 1 5 -13 5 -14 0 -19 -2 -12 -5z"/>
<path d="M1954 2566 c-3 -8 -4 -25 -2 -38 3 -17 5 -13 9 15 5 38 2 47 -7 23z"/>
<path d="M822 2540 c0 -19 2 -27 5 -17 2 9 2 25 0 35 -3 9 -5 1 -5 -18z"/>
<path d="M404 2505 c-14 -34 -1 -42 51 -30 l50 11 -48 16 c-40 14 -49 15 -53
3z"/>
<path d="M2042 2500 c0 -14 2 -19 5 -12 2 6 2 18 0 25 -3 6 -5 1 -5 -13z"/>
<path d="M831 2474 c0 -11 3 -14 6 -6 3 7 2 16 -1 19 -3 4 -6 -2 -5 -13z"/>
<path d="M741 2465 c0 -11 4 -29 9 -40 l9 -20 0 20 c0 11 -4 29 -9 40 l-9 20
0 -20z"/>
<path d="M1452 2445 c0 -16 2 -22 5 -12 2 9 2 23 0 30 -3 6 -5 -1 -5 -18z"/>
<path d="M600 2435 c-19 -21 -21 -25 -8 -30 9 -4 33 -5 54 -2 36 3 35 4 -10 5
l-49 2 23 25 c13 14 21 25 18 25 -2 0 -15 -11 -28 -25z"/>
<path d="M2021 2424 c0 -11 3 -14 6 -6 3 7 2 16 -1 19 -3 4 -6 -2 -5 -13z"/>
<path d="M2061 2429 c-1 -19 26 -45 36 -35 3 3 1 6 -6 6 -6 0 -16 10 -21 23
-6 15 -9 17 -9 6z"/>
<path d="M1186 2403 c-32 -32 -28 -41 8 -18 20 14 37 16 74 11 78 -11 85 -11
89 0 5 16 -50 34 -102 34 -32 0 -48 -6 -69 -27z"/>
<path d="M1497 2418 c-31 -11 -31 -35 -1 -30 96 15 116 14 145 -7 37 -27 38
-13 1 22 -22 21 -37 27 -73 26 -24 0 -57 -5 -72 -11z"/>
<path d="M850 2407 c0 -7 7 -22 15 -33 13 -17 14 -16 4 14 -11 33 -19 41 -19
19z"/>
<path d="M1408 2397 c2 -10 5 -16 6 -15 1 2 7 10 13 18 10 13 8 16 -6 16 -13
0 -17 -6 -13 -19z"/>
<path d="M380 2368 c-13 -15 -30 -28 -38 -28 -7 0 -10 -4 -7 -10 3 -5 2 -10
-2 -10 -15 0 -41 -54 -47 -100 -6 -35 -5 -42 4 -30 9 12 10 9 5 -14 -5 -22 -3
-27 9 -23 8 3 54 7 103 8 48 1 94 6 101 12 9 7 11 6 6 -8 -6 -13 -4 -16 5 -10
33 20 -26 185 -65 185 -8 0 -14 5 -14 10 0 6 -8 18 -18 28 -17 17 -19 17 -42
-10z"/>
<path d="M1248 2373 c7 -3 16 -2 19 1 4 3 -2 6 -13 5 -11 0 -14 -3 -6 -6z"/>
<path d="M1558 2373 c6 -2 18 -2 25 0 6 3 1 5 -13 5 -14 0 -19 -2 -12 -5z"/>
<path d="M1260 2358 c-19 -5 -43 -10 -52 -11 -10 -1 -18 -5 -18 -9 0 -4 -8 -8
-17 -8 -34 -1 61 -40 96 -40 24 0 31 3 22 9 -9 6 -10 11 -2 15 6 4 10 18 9 31
-1 14 -3 25 -3 24 0 -1 -16 -5 -35 -11z m-27 -37 c3 -14 1 -18 -9 -14 -15 6
-18 16 -7 26 9 10 10 9 16 -12z"/>
<path d="M1536 2358 c5 -8 1 -9 -12 -4 -10 4 -15 4 -11 0 4 -4 1 -14 -6 -23
-10 -14 -10 -14 3 -4 13 10 18 8 28 -7 9 -15 8 -19 -6 -23 -9 -3 1 -5 23 -5
44 -1 139 36 97 37 -13 1 -20 5 -17 11 4 6 -1 7 -11 3 -11 -4 -15 -3 -10 5 3
6 1 14 -5 18 -8 4 -9 3 -5 -5 7 -11 -17 -9 -62 5 -8 2 -10 -1 -6 -8z m74 -48
c-18 -11 -22 -7 -14 14 5 13 10 14 18 6 8 -8 7 -13 -4 -20z"/>
<path d="M681 2254 c-27 -34 -26 -44 2 -43 19 0 20 1 4 8 -17 6 -17 8 3 34 12
15 19 27 16 27 -2 0 -14 -12 -25 -26z"/>
<path d="M1994 2233 c11 -13 26 -23 35 -22 14 0 14 1 1 6 -8 3 -24 13 -35 22
-20 16 -20 16 -1 -6z"/>
<path d="M1347 2193 c-10 -10 -8 -41 2 -48 5 -3 13 0 17 6 5 8 3 9 -6 4 -10
-6 -12 -1 -8 19 6 28 5 30 -5 19z"/>
<path d="M1488 2172 c4 -23 3 -25 -10 -15 -12 11 -18 9 -33 -6 -9 -11 -15 -26
-12 -33 4 -9 6 -8 6 3 1 22 27 43 36 29 3 -6 11 -8 16 -5 11 8 12 42 0 49 -4
3 -6 -7 -3 -22z"/>
<path d="M1391 2143 c7 -12 15 -20 18 -17 3 2 -3 12 -13 22 -17 16 -18 16 -5
-5z"/>
<path d="M1907 2129 c7 -7 15 -10 18 -7 3 3 -2 9 -12 12 -14 6 -15 5 -6 -5z"/>
<path d="M799 2084 c-5 -15 -8 -29 -5 -31 2 -2 8 10 14 26 13 38 5 41 -9 5z"/>
<path d="M1260 2036 c0 -2 8 -10 18 -17 15 -13 16 -12 3 4 -13 16 -21 21 -21
13z"/>
<path d="M1350 2021 c-22 -5 -3 -7 55 -7 53 0 78 3 60 7 -38 8 -70 8 -115 0z"/>
<path d="M1528 2013 c7 -3 16 -2 19 1 4 3 -2 6 -13 5 -11 0 -14 -3 -6 -6z"/>
<path d="M1403 1993 c9 -2 23 -2 30 0 6 3 -1 5 -18 5 -16 0 -22 -2 -12 -5z"/>
<path d="M397 1508 c-56 -71 -80 -109 -72 -116 4 -4 10 -2 12 4 2 7 26 44 53
83 55 80 58 92 7 29z"/>
<path d="M262 1348 c-7 -7 -12 -23 -12 -37 0 -22 1 -23 18 -8 18 16 27 57 13
57 -4 0 -12 -5 -19 -12z"/>
<path d="M201 1235 c-45 -51 -99 -173 -122 -272 -11 -49 -34 -129 -50 -180
-18 -57 -29 -113 -29 -149 0 -54 2 -59 42 -97 54 -52 94 -67 170 -67 152 1
360 35 413 69 22 14 32 15 -133 -14 -46 -8 -138 -16 -205 -17 -117 -2 -124 -1
-164 25 -102 65 -113 122 -58 282 19 55 35 111 35 124 0 58 82 259 128 314 8
9 13 17 10 17 -3 0 -20 -16 -37 -35z"/>
<path d="M656 975 c-10 -28 -7 -45 9 -45 16 0 20 27 6 48 -7 11 -10 10 -15 -3z"/>
<path d="M2190 984 c0 -5 7 -18 15 -28 8 -11 15 -16 15 -10 0 5 -7 18 -15 28
-8 11 -15 16 -15 10z"/>
<path d="M783 551 c0 -9 6 -22 14 -29 11 -12 13 -9 11 15 -2 30 -25 43 -25 14z"/>
<path d="M2789 553 c-13 -16 -12 -17 4 -4 16 13 21 21 13 21 -2 0 -10 -8 -17
-17z"/>
<path d="M2188 553 c7 -3 16 -2 19 1 4 3 -2 6 -13 5 -11 0 -14 -3 -6 -6z"/>
<path d="M802 370 c0 -14 2 -19 5 -12 2 6 2 18 0 25 -3 6 -5 1 -5 -13z"/>
<path d="M789 287 c-1 -4 -2 -10 -3 -14 -1 -5 -5 -14 -10 -22 -6 -10 -6 -12 3
-6 7 4 2 -13 -10 -36 -13 -24 -24 -56 -24 -70 -1 -27 -13 -47 -61 -106 l-27
-33 346 0 346 0 3 48 c3 43 5 47 28 47 23 0 25 -4 28 -47 4 -66 30 -66 34 -1
4 65 23 66 53 1 l24 -53 -2 47 c-1 26 3 48 8 50 6 2 20 -18 33 -45 12 -26 29
-47 37 -47 17 0 19 13 6 38 -14 29 -22 72 -12 72 5 0 14 -13 21 -29 6 -16 24
-41 39 -55 l27 -26 272 2 271 3 -54 60 c-41 45 -53 65 -49 81 3 12 -3 39 -14
61 -15 28 -18 43 -10 56 8 16 6 17 -19 11 -15 -4 -39 -11 -52 -16 -24 -9 -322
-58 -351 -58 -13 0 -13 1 0 11 11 7 4 8 -25 3 -25 -4 -47 -15 -58 -30 -23 -30
-44 -32 -23 -2 9 12 16 29 16 38 0 8 -8 0 -16 -17 -9 -18 -31 -42 -49 -53 -37
-23 -49 -25 -39 -8 5 9 2 9 -9 -1 -11 -9 -17 -10 -17 -2 0 8 -5 8 -19 -1 -28
-17 -57 11 -65 65 -5 31 -9 38 -16 27 -5 -8 -7 -33 -3 -55 6 -36 5 -39 -10
-26 -10 7 -17 26 -17 41 0 23 -5 29 -31 34 -17 3 -50 5 -73 5 l-41 -2 35 -8
c21 -5 -23 -6 -110 -3 -152 4 -253 25 -291 60 -10 9 -20 14 -20 11z m1279
-138 c-10 -5 -42 -12 -70 -14 l-53 -5 60 14 c76 17 84 18 63 5z m-1173 -8 l40
-9 -35 0 c-19 0 -48 4 -65 8 -27 7 -28 8 -5 8 14 1 43 -3 65 -7z m20 -121
c-11 -5 -54 -8 -95 -7 l-75 1 75 6 c41 4 84 7 95 7 l20 2 -20 -9z m1194 -6 c9
-8 -125 -2 -144 6 -12 4 14 6 60 3 44 -3 82 -7 84 -9z"/>
<path d="M1608 233 c7 -3 16 -2 19 1 4 3 -2 6 -13 5 -11 0 -14 -3 -6 -6z"/>
<path d="M1738 223 c7 -3 16 -2 19 1 4 3 -2 6 -13 5 -11 0 -14 -3 -6 -6z"/>
</g>
</svg>
