<?xml version="1.0" standalone="no"?>
<!DOCTYPE svg PUBLIC "-//W3C//DTD SVG 20010904//EN"
 "http://www.w3.org/TR/2001/REC-SVG-20010904/DTD/svg10.dtd">
<svg version="1.0" xmlns="http://www.w3.org/2000/svg"
 width="642.000000pt" height="430.000000pt" viewBox="0 0 642.000000 430.000000"
 preserveAspectRatio="xMidYMid meet">

<g transform="translate(0.000000,430.000000) scale(0.100000,-0.100000)"
fill="#000000" stroke="none">
<path d="M2368 4278 c-20 -37 -15 -137 9 -184 12 -22 28 -46 37 -53 10 -9 13
-22 9 -42 -6 -33 10 -59 38 -59 24 0 24 -7 -1 -63 -36 -80 -48 -320 -24 -479
l6 -46 -43 -22 c-70 -36 -116 -77 -140 -126 -20 -42 -21 -51 -11 -112 6 -36
18 -72 26 -80 12 -12 11 -20 -7 -61 -14 -32 -21 -68 -21 -116 -1 -82 13 -111
72 -150 l38 -25 131 65 c72 36 134 65 137 65 3 0 6 -7 6 -15 0 -9 7 -18 15
-21 8 -4 15 -18 15 -34 0 -39 9 -60 26 -60 9 0 14 -12 14 -35 0 -23 6 -39 18
-46 13 -8 17 -20 14 -41 -3 -18 2 -36 13 -48 11 -12 15 -28 12 -41 -4 -14 2
-29 19 -46 13 -13 24 -32 24 -43 0 -23 37 -51 56 -43 9 3 14 -2 14 -14 0 -10
5 -24 12 -31 18 -18 66 -15 76 5 9 14 10 14 16 -5 11 -33 55 -40 77 -14 10 14
29 22 46 22 35 0 53 16 53 47 0 14 6 23 15 23 18 0 19 5 -6 -59 -11 -30 -26
-82 -33 -115 -11 -55 -14 -61 -35 -58 -16 3 -24 -2 -28 -16 -7 -29 -78 -53
-323 -111 -69 -16 -113 -30 -99 -30 35 -1 170 24 291 55 53 13 99 24 102 24 3
0 6 -13 6 -29 0 -17 5 -33 11 -36 6 -4 8 -13 5 -21 -3 -7 1 -20 9 -28 8 -8 15
-21 15 -28 0 -21 49 -68 64 -62 21 8 25 40 7 57 -29 28 -41 46 -41 61 0 8 -4
16 -9 18 -9 3 -14 35 -12 70 1 10 12 20 26 24 18 4 25 13 25 29 0 41 59 253
84 302 25 49 62 91 72 80 3 -3 0 -118 -7 -256 l-13 -251 39 -55 c21 -31 48
-65 60 -77 13 -12 21 -28 18 -35 -8 -20 26 -53 45 -46 27 10 82 67 82 85 0 10
9 22 20 28 12 7 20 21 20 38 0 17 8 32 21 40 16 10 20 20 16 40 -3 15 0 35 7
44 11 15 22 14 146 -23 74 -22 138 -38 143 -36 5 1 -16 11 -46 20 -45 14 -54
21 -50 36 3 10 16 24 29 30 15 7 24 19 24 33 0 13 9 29 21 36 15 10 20 21 16
38 -3 17 1 25 15 30 15 4 19 14 17 37 -2 18 3 42 9 54 11 19 9 26 -6 41 -11
11 -18 29 -18 42 1 30 -28 49 -52 34 -23 -15 -27 -42 -9 -62 20 -23 24 -62 9
-90 -7 -12 -10 -27 -6 -33 3 -6 -3 -17 -15 -25 -12 -8 -21 -21 -21 -29 0 -16
-54 -75 -69 -75 -6 0 -13 -11 -17 -25 -7 -28 -12 -30 -51 -14 -90 37 -93 39
-93 69 0 17 -7 33 -17 38 -15 9 -16 16 -5 63 16 67 27 253 13 224 -5 -12 -16
-70 -25 -130 -22 -139 -29 -167 -41 -164 -5 2 -28 53 -51 114 -55 149 -92 223
-116 236 -17 9 -26 6 -58 -20 l-38 -30 -4 34 c-2 22 1 36 9 39 18 7 27 54 13
70 -9 12 -7 19 9 35 25 25 25 30 6 58 -13 18 -13 22 0 33 8 7 15 21 15 31 0
11 2 19 4 19 3 0 69 -27 148 -60 100 -43 154 -72 180 -97 35 -34 36 -35 47
-15 21 39 13 152 -16 217 -28 64 -30 82 -18 161 6 41 3 60 -14 100 -23 50 -53
89 -83 105 -14 8 -21 1 -37 -37 -17 -38 -25 -45 -42 -41 -22 6 -24 2 -33 -53
-3 -20 -23 -58 -44 -86 -20 -28 -52 -72 -71 -97 -19 -25 -38 -44 -43 -41 -5 3
-7 0 -6 -8 2 -7 -14 -21 -34 -31 -42 -21 -46 -32 -22 -65 8 -12 10 -22 5 -22
-16 0 -25 -48 -11 -64 9 -12 7 -19 -10 -36 -15 -15 -20 -29 -16 -45 4 -14 0
-27 -9 -35 -8 -7 -15 -27 -15 -44 0 -21 -7 -36 -21 -44 -15 -10 -20 -21 -16
-38 3 -18 0 -24 -14 -24 -10 0 -25 -10 -33 -21 -10 -14 -21 -19 -32 -15 -9 4
-27 0 -40 -9 -21 -14 -24 -13 -34 5 -7 13 -21 20 -40 20 -21 0 -28 4 -24 14 3
8 -5 25 -17 37 -13 13 -24 31 -24 41 -1 10 -9 26 -17 35 -10 11 -14 28 -11 45
3 18 -1 32 -15 46 -13 13 -18 28 -15 44 3 18 -2 31 -19 44 -13 10 -22 27 -20
36 4 23 -15 58 -33 58 -12 0 -12 5 -3 25 9 19 8 29 -4 47 -14 20 -13 27 10 76
l24 54 -38 41 c-22 23 -43 45 -48 48 -5 4 -10 16 -11 27 0 11 -8 30 -17 44
-13 20 -39 103 -54 173 -2 11 6 30 20 45 45 49 56 74 56 126 0 61 -14 105 -50
161 l-28 41 44 31 c65 47 124 71 178 71 39 0 70 -11 160 -55 172 -85 254 -86
375 -6 27 18 50 27 61 23 26 -11 65 -45 84 -74 17 -26 17 -34 2 -144 -9 -65
-15 -119 -13 -121 2 -2 20 34 40 79 85 193 96 266 51 355 -63 123 -205 267
-324 326 -55 27 -77 33 -153 36 -78 3 -90 6 -94 22 -3 10 -9 19 -14 19 -5 0
-9 13 -9 28 0 52 -3 52 -307 52 l-282 0 -13 -22z m159 -959 c12 -22 10 -25
-17 -32 -46 -12 -41 -50 14 -102 43 -42 43 -43 21 -53 -28 -13 -44 2 -74 68
-23 51 -26 82 -10 113 23 43 46 45 66 6z m877 -992 c24 -59 52 -136 62 -172
15 -51 24 -67 40 -71 15 -4 23 -16 27 -37 2 -18 0 -35 -5 -38 -5 -3 -10 -17
-11 -30 0 -13 -9 -30 -19 -37 -10 -7 -18 -20 -18 -28 0 -8 -8 -22 -19 -33 -10
-10 -20 -23 -22 -29 -2 -6 -15 -13 -29 -14 -20 -3 -32 9 -71 67 l-47 70 15
170 c7 94 16 203 19 244 7 94 18 85 78 -62z m-176 103 c-13 -21 -28 -27 -28
-10 0 5 8 14 18 19 23 14 24 14 10 -9z"/>
<path d="M2880 3479 l-45 -21 61 -13 c34 -7 80 -23 103 -35 46 -23 64 -18 74
20 4 15 -5 24 -38 40 -65 32 -103 34 -155 9z"/>
<path d="M3310 3473 c-50 -8 -90 -25 -90 -37 0 -7 6 -21 14 -31 12 -17 17 -17
61 -5 26 7 74 13 106 13 51 0 57 2 46 15 -13 17 -86 52 -102 50 -5 0 -21 -3
-35 -5z"/>
<path d="M3466 3355 c-11 -30 -7 -87 6 -79 6 4 21 -5 35 -22 l23 -29 0 27 c0
35 -15 73 -39 99 -16 18 -19 18 -25 4z"/>
<path d="M2940 3304 c-30 -78 26 -162 71 -107 17 20 17 97 -1 118 -20 25 -59
19 -70 -11z m30 -18 c0 -8 3 -23 7 -33 6 -17 6 -17 -10 -1 -19 18 -23 48 -7
48 6 0 10 -6 10 -14z"/>
<path d="M3305 3300 c-8 -9 -17 -30 -21 -46 -7 -37 22 -79 48 -69 24 9 38 58
28 94 -4 16 -7 31 -5 33 2 2 -5 4 -16 4 -11 0 -26 -7 -34 -16z m15 -25 c0 -8
-4 -15 -10 -15 -5 0 -10 7 -10 15 0 8 5 15 10 15 6 0 10 -7 10 -15z"/>
<path d="M3446 3179 c-4 -23 -5 -43 -3 -45 2 -2 13 4 26 12 26 19 26 67 0 72
-12 2 -18 -8 -23 -39z"/>
<path d="M3243 3163 c26 -28 27 -30 10 -45 -25 -22 -75 -31 -106 -19 -39 15
-33 3 7 -14 87 -37 175 49 94 91 l-33 16 28 -29z"/>
<path d="M2874 3099 c-9 -16 2 -22 21 -11 15 8 16 10 1 15 -8 3 -18 2 -22 -4z"/>
<path d="M2909 3050 c45 -38 126 -55 266 -55 78 0 138 4 149 11 14 9 -3 10
-75 7 -101 -5 -261 16 -327 42 l-37 15 24 -20z"/>
<path d="M3068 2943 c27 -49 82 -57 110 -15 14 22 14 22 -36 22 -28 0 -58 3
-67 7 -15 5 -16 3 -7 -14z"/>
<path d="M2456 2211 c-11 -12 -25 -16 -41 -13 -30 5 -55 -13 -55 -40 0 -13 -6
-18 -17 -17 -31 5 -62 -11 -65 -34 -2 -13 -12 -23 -28 -27 -14 -3 -32 -19 -40
-35 -8 -15 -23 -37 -32 -47 -33 -34 -20 -69 30 -81 26 -6 52 15 52 43 0 10 9
22 20 25 11 3 23 17 26 31 4 15 13 24 26 24 11 0 26 13 36 30 11 19 25 30 39
30 12 0 28 6 35 13 20 21 95 28 102 11 4 -11 19 -14 49 -12 42 3 44 4 40 33
-7 62 -12 68 -52 62 -23 -3 -44 1 -56 9 -26 19 -49 17 -69 -5z"/>
<path d="M2470 556 c0 -15 67 -99 112 -142 123 -116 321 -206 449 -203 l54 1
-55 14 c-186 45 -388 158 -507 283 -29 31 -53 52 -53 47z"/>
</g>
</svg>
