<?xml version="1.0" standalone="no"?>
<!DOCTYPE svg PUBLIC "-//W3C//DTD SVG 20010904//EN"
 "http://www.w3.org/TR/2001/REC-SVG-20010904/DTD/svg10.dtd">
<svg version="1.0" xmlns="http://www.w3.org/2000/svg"
 width="1000.000000pt" height="767.000000pt" viewBox="0 0 1000.000000 767.000000"
 preserveAspectRatio="xMidYMid meet">

<g transform="translate(0.000000,767.000000) scale(0.100000,-0.100000)"
fill="#000000" stroke="none">
<path d="M0 3835 l0 -3835 5000 0 5000 0 0 3835 0 3835 -5000 0 -5000 0 0
-3835z m4995 3215 c48 -58 61 -69 80 -64 34 8 62 -11 70 -48 10 -45 22 -58 56
-58 19 0 38 10 56 30 46 52 103 35 103 -30 0 -43 27 -80 58 -80 9 0 31 9 47
20 62 41 101 14 91 -61 -6 -41 -3 -52 14 -69 23 -23 39 -25 74 -9 61 28 107
-25 73 -84 -22 -38 -21 -57 2 -57 24 0 38 18 43 54 5 45 31 56 64 26 l26 -25
19 25 c10 14 39 54 65 89 l47 65 43 -47 c27 -28 54 -47 71 -49 18 -2 29 -10
31 -23 9 -47 62 -63 82 -24 7 12 19 19 32 17 23 -3 34 -19 43 -60 4 -22 11
-28 30 -28 14 0 34 6 45 12 30 19 56 -1 52 -42 -4 -47 13 -63 59 -55 31 5 39
3 52 -16 24 -33 48 -9 45 43 -4 49 19 71 52 50 24 -15 57 -16 65 -1 4 6 8 24
9 40 2 28 19 48 39 49 4 0 16 -9 27 -20 11 -11 23 -20 28 -20 4 0 34 38 67 85
33 47 63 85 67 85 4 0 23 -20 44 -45 27 -33 44 -45 63 -45 21 0 31 -7 42 -32
17 -39 48 -47 74 -18 33 37 75 19 75 -32 0 -37 29 -53 59 -32 12 9 31 14 44
12 19 -3 23 -11 27 -53 l5 -50 46 0 c30 0 53 -6 66 -17 41 -37 78 -12 68 44
-9 48 11 64 58 47 48 -17 67 -7 67 35 0 25 6 38 19 46 23 12 47 5 55 -16 10
-27 31 -14 69 44 20 31 49 71 63 87 l25 30 40 -47 c28 -33 49 -48 66 -48 18 0
28 -9 39 -35 17 -41 50 -47 79 -15 28 31 59 22 63 -17 2 -19 12 -39 24 -47 19
-14 24 -13 50 2 38 22 63 7 63 -39 0 -53 11 -62 61 -54 34 5 45 3 50 -9 8 -21
61 -31 80 -15 11 9 13 23 9 49 -8 50 11 66 58 49 48 -17 67 -7 67 35 0 51 31
66 73 36 27 -21 31 -21 41 -7 72 105 110 157 117 157 4 0 24 -20 45 -45 23
-28 45 -45 58 -45 27 0 46 -18 46 -42 0 -29 47 -35 74 -9 12 11 30 21 39 21
18 0 41 -35 32 -50 -3 -5 4 -19 15 -30 20 -20 23 -21 47 -5 15 10 34 14 49 11
21 -6 24 -12 23 -44 -4 -55 6 -65 56 -58 56 9 72 -8 54 -58 -16 -44 -2 -64 49
-68 31 -3 37 -7 40 -29 2 -14 -4 -31 -12 -39 -33 -26 -14 -65 34 -72 36 -5 39
-44 5 -75 -32 -30 -29 -51 10 -73 44 -24 45 -56 1 -77 -41 -19 -49 -55 -16
-75 12 -8 20 -24 20 -39 0 -27 -15 -39 -50 -39 -31 0 -45 -36 -26 -65 30 -46
16 -75 -34 -75 -21 0 -34 26 -17 34 7 3 -4 4 -24 1 -34 -5 -36 -4 -59 46 -57
121 -242 226 -335 190 -14 -6 -2 -10 40 -14 95 -10 221 -83 200 -117 -3 -5 -1
-11 5 -15 5 -3 10 -15 10 -27 0 -20 24 -69 49 -101 12 -14 12 -20 1 -30 -10
-10 -11 -9 -5 2 6 10 4 12 -4 7 -9 -6 -9 -11 -1 -21 14 -17 7 -31 -22 -46 -18
-10 -20 -9 -15 5 4 9 2 16 -3 16 -6 0 -10 -7 -10 -15 0 -8 -4 -15 -10 -15 -5
0 -10 6 -10 13 0 9 -3 9 -9 -1 -10 -17 -43 -12 -49 7 -3 10 0 12 14 7 10 -4
15 -3 10 1 -4 4 -17 8 -29 9 -12 1 -35 4 -52 8 -25 5 -27 5 -7 -3 12 -6 22
-15 22 -20 0 -13 -52 5 -62 21 -5 9 -11 8 -22 -1 -25 -21 -126 -26 -168 -8
-22 9 -38 11 -40 6 -2 -6 -11 -11 -20 -13 -10 -1 -21 -5 -24 -9 -13 -12 -24
-8 -18 7 4 11 0 13 -17 9 -12 -3 -24 -14 -26 -24 -5 -18 -31 -29 -72 -29 -24
0 -24 1 -18 83 3 52 13 97 25 122 19 38 23 41 67 43 51 2 156 -35 135 -48 -8
-5 -9 -10 -2 -14 5 -3 13 1 16 9 3 9 -1 18 -9 21 -8 4 -12 10 -9 15 3 5 11 6
17 3 8 -5 8 -3 0 7 -7 7 -13 19 -13 27 0 12 3 12 15 2 10 -9 15 -9 15 -1 0 6
-4 12 -10 12 -5 1 -16 2 -22 3 -7 0 -13 10 -13 20 0 11 -6 20 -13 22 -7 1 -8
0 -2 -3 23 -11 -1 -18 -55 -15 l-57 4 32 19 c27 17 35 18 48 7 15 -11 15 -11
4 3 -11 15 -8 18 19 28 18 6 48 12 68 12 30 1 27 3 -19 10 -100 17 -216 -45
-296 -158 -27 -37 -54 -72 -62 -76 -11 -7 -10 -13 3 -34 16 -24 16 -24 -4 -14
-31 17 -51 14 -45 -6 3 -10 -5 -1 -18 20 -19 31 -27 37 -48 33 -23 -4 -29 2
-54 50 -34 65 -92 119 -172 159 -58 29 -61 30 -214 29 -135 -1 -161 -3 -200
-22 -74 -34 -124 -76 -173 -145 -48 -69 -69 -116 -47 -102 9 5 11 4 6 -4 -4
-6 -14 -10 -23 -9 -11 2 -16 -8 -18 -38 -3 -39 5 -67 19 -65 27 4 33 -2 32
-31 -1 -30 -4 -33 -31 -33 -27 0 -30 3 -29 31 1 25 -2 31 -15 27 -10 -3 -17
-14 -16 -31 0 -23 -4 -27 -30 -27 -25 0 -30 4 -33 28 -3 24 2 30 37 45 46 19
64 55 51 99 -4 15 -9 22 -9 15 -1 -7 -6 -10 -11 -7 -6 4 -18 1 -26 -6 -8 -6
-18 -8 -22 -4 -4 4 -2 10 4 12 6 2 20 10 30 19 18 14 17 14 -16 12 -33 -3 -36
0 -63 49 -35 65 -102 125 -183 163 -62 30 -101 35 -159 20 -26 -7 -22 -8 23
-9 29 0 52 -6 52 -12 0 -5 4 -8 8 -5 13 8 82 -13 82 -25 0 -6 6 -7 13 -3 9 6
9 5 0 -7 -10 -12 -8 -15 7 -15 10 0 16 4 14 8 -3 4 -2 8 2 8 10 0 44 -31 44
-41 0 -9 -34 -4 -53 8 -12 8 -16 9 -52 13 -32 5 -73 -17 -80 -42 -4 -13 -13
-26 -19 -30 -6 -4 7 -5 29 -2 91 12 130 12 142 2 10 -8 13 -7 13 3 0 11 2 11
10 -1 5 -8 10 -10 10 -5 0 6 -5 16 -12 23 -6 6 -10 14 -7 16 9 9 30 -11 34
-32 2 -12 7 -27 11 -34 4 -7 3 -8 -5 -4 -6 4 0 -9 13 -29 15 -21 22 -43 19
-53 -4 -10 -8 -12 -11 -4 -2 7 -8 12 -13 12 -4 0 -5 -7 -2 -17 5 -12 3 -14 -7
-8 -9 5 -11 4 -6 -3 4 -7 2 -12 -5 -12 -7 0 -10 -3 -6 -6 3 -3 19 3 36 15 34
24 44 17 32 -25 -15 -56 -104 -74 -145 -29 -22 23 -43 35 -32 17 2 -4 1 -13
-3 -20 -6 -9 -15 -10 -39 -1 -18 6 -29 15 -26 20 7 13 1 11 -32 -6 -41 -21
-122 -19 -169 5 -21 11 -41 18 -43 15 -3 -3 0 -5 6 -5 7 0 12 -5 12 -11 0 -6
-7 -8 -16 -5 -8 3 -13 2 -10 -3 11 -17 -28 -22 -40 -6 -10 14 -16 14 -34 5
-12 -7 -19 -18 -16 -26 3 -8 0 -15 -7 -15 -7 -1 -27 -3 -46 -5 l-34 -2 6 73
c3 41 9 80 13 87 4 6 8 23 9 36 0 13 9 30 20 38 18 14 108 17 100 4 -2 -4 10
-7 27 -7 18 0 34 -5 36 -11 2 -8 7 -8 17 1 7 7 11 15 8 19 -2 4 1 18 8 30 6
13 8 20 4 16 -4 -4 -22 0 -39 9 -17 9 -49 16 -71 16 -34 -1 -36 0 -15 7 14 4
19 8 11 9 -26 2 22 30 52 31 15 0 27 5 27 11 0 7 12 9 33 6 17 -3 41 -2 52 2
13 5 -2 10 -50 15 -69 7 -72 6 -153 -35 -101 -51 -181 -140 -173 -192 1 -10
-4 -26 -13 -36 -8 -9 -17 -32 -19 -52 -2 -19 -6 -39 -10 -45 -3 -6 3 -18 14
-28 12 -10 19 -26 17 -39 -3 -19 -9 -22 -60 -24 -43 -1 -58 2 -62 14 -13 32
13 65 39 51 6 -4 55 64 55 76 0 6 -7 20 -15 30 -12 16 -18 17 -27 8 -16 -16
-28 -15 -28 2 0 19 40 28 59 13 14 -11 14 -10 1 6 -10 14 -22 18 -47 14 -31
-5 -35 -3 -54 36 -39 78 -84 121 -166 164 l-78 40 -148 -3 c-81 -2 -156 -8
-167 -14 -25 -14 -44 -47 -30 -55 5 -3 10 -1 10 5 0 27 79 43 215 42 116 -1
136 -2 130 -12 -3 -4 1 -8 8 -7 6 0 21 -1 32 -2 18 -2 18 -3 -5 -17 -23 -14
-11 -13 25 2 18 7 76 -50 78 -76 1 -14 15 -52 31 -85 36 -76 39 -98 16 -127
-25 -32 -107 -37 -127 -8 -13 19 -46 29 -41 13 5 -13 -10 -15 -43 -8 -23 5
-28 9 -18 16 22 14 5 11 -37 -7 -50 -21 -145 -15 -174 11 -16 15 -20 15 -20 3
0 -8 -12 -20 -26 -27 -22 -10 -30 -9 -45 5 -12 11 -19 13 -19 5 0 -7 -4 -10
-9 -7 -5 4 -7 -3 -4 -13 3 -13 -5 -30 -23 -48 -16 -15 -27 -36 -26 -45 4 -25
-15 -23 -28 3 -9 16 -20 20 -48 18 -20 -2 -40 -8 -44 -13 -4 -6 -9 -8 -13 -5
-6 7 34 52 60 67 32 18 10 24 -32 9 l-40 -14 -29 56 c-65 126 -139 198 -274
266 -86 44 -144 56 -204 43 -31 -6 -100 -8 -174 -5 -149 7 -193 -5 -316 -87
-79 -53 -104 -80 -191 -207 -36 -52 -41 -56 -64 -48 -34 13 -47 -4 -16 -21 14
-7 25 -17 25 -22 0 -5 4 -7 9 -4 9 6 25 -23 17 -31 -2 -3 -13 0 -24 6 -29 16
-67 14 -82 -4 -7 -8 -9 -15 -5 -15 4 0 2 -7 -5 -15 -8 -9 -8 -15 -2 -15 16 0
26 -40 13 -53 -12 -12 -22 8 -25 47 -1 20 -6 24 -30 24 -48 -2 -76 63 -41 92
18 15 11 30 -15 30 -11 0 -25 6 -32 14 -11 11 -18 11 -45 0 -41 -18 -121 -17
-152 0 -21 12 -29 11 -58 -7 -33 -19 -62 -16 -33 4 13 9 13 10 0 6 -8 -2 -22
-1 -30 3 -11 6 -15 2 -16 -17 -2 -32 -4 -33 -52 -39 l-41 -5 3 83 c2 62 8 94
24 126 25 47 25 47 54 31 15 -8 19 -8 13 0 -7 12 37 10 83 -5 19 -5 20 -9 10
-23 -12 -14 -10 -14 12 1 14 9 24 22 22 28 -2 8 3 10 13 6 13 -4 12 0 -5 21
-14 18 -17 29 -9 33 6 4 -20 8 -57 9 -37 1 -69 3 -72 5 -7 8 126 66 154 67 25
1 24 2 -11 11 -50 12 -100 -2 -175 -47 -78 -48 -159 -144 -176 -209 -4 -17
-11 -25 -20 -22 -11 4 -14 -6 -14 -40 0 -37 4 -46 24 -56 48 -21 45 -82 -2
-76 -24 3 -27 7 -27 39 0 27 -4 36 -15 34 -27 -4 -30 6 -9 28 11 13 19 32 17
47 -3 22 -8 25 -40 24 -21 -1 -35 3 -32 7 3 5 11 9 19 9 7 0 15 6 18 13 3 9 8
8 23 -3 18 -14 18 -14 4 3 -10 14 -23 18 -45 14 -29 -5 -33 -2 -59 49 -34 65
-92 119 -170 158 -60 31 -134 44 -160 29 -9 -5 -52 -5 -98 -1 -65 6 -93 4
-129 -9 -74 -26 -150 -83 -197 -148 -54 -76 -63 -96 -48 -114 9 -12 6 -13 -16
-8 -26 7 -26 7 -25 -45 2 -42 5 -52 21 -54 19 -3 36 -21 36 -39 0 -22 -18 -37
-41 -33 -21 3 -24 8 -23 41 0 25 -4 37 -13 37 -8 0 -11 -4 -8 -10 4 -6 -1 -7
-10 -3 -15 5 -15 3 -4 -14 17 -28 5 -53 -25 -53 -52 0 -46 59 8 78 29 11 37
20 42 48 8 44 -9 68 -38 53 -11 -6 -23 -8 -26 -4 -10 10 30 36 45 31 7 -3 13
0 13 6 0 7 -13 8 -38 4 -38 -6 -39 -5 -63 45 -28 61 -99 128 -177 166 -54 26
-62 27 -212 27 -141 0 -161 -3 -198 -22 -91 -47 -123 -74 -169 -142 -37 -54
-54 -69 -73 -70 -25 0 -24 -1 10 -31 l35 -31 -32 16 c-31 15 -68 12 -58 -5 3
-4 -4 -13 -15 -19 -23 -12 -54 0 -64 26 -5 14 -9 14 -24 3 -9 -7 -6 -1 8 15
l25 29 -27 -7 c-25 -6 -30 -2 -53 44 -36 71 -91 122 -178 165 -74 36 -78 37
-144 29 l-68 -9 50 -3 c27 -2 55 -8 62 -13 7 -6 21 -8 31 -4 11 3 26 0 34 -8
7 -7 19 -12 27 -9 8 3 11 0 7 -7 -4 -6 -2 -9 6 -6 18 6 52 -21 43 -35 -5 -9
-1 -10 14 -5 17 5 21 2 22 -17 1 -13 1 -27 0 -32 -1 -4 3 -14 10 -22 6 -7 8
-18 4 -24 -3 -5 -2 -10 2 -10 9 0 37 -59 34 -72 0 -5 4 -8 9 -8 18 0 10 -39
-14 -64 -31 -34 -109 -38 -126 -6 -10 20 -42 29 -37 11 3 -12 -8 -14 -44 -6
-23 5 -28 9 -18 16 22 14 5 10 -37 -7 -44 -19 -144 -14 -170 7 -10 8 -18 9
-22 2 -4 -5 -17 -16 -30 -22 -20 -10 -27 -10 -41 3 -19 17 -36 22 -27 7 12
-18 -22 -44 -61 -46 l-41 -3 4 70 c3 38 13 93 22 121 18 50 20 52 58 54 56 2
106 -6 99 -17 -3 -6 1 -7 9 -4 9 3 16 2 16 -4 0 -6 10 -8 22 -4 12 3 17 7 10
10 -20 6 -14 38 10 54 18 12 19 15 5 15 -9 0 -17 -5 -17 -10 0 -5 -11 -2 -25
7 -14 9 -45 16 -72 16 l-47 0 34 25 c39 29 88 44 145 46 31 1 25 4 -28 11 -64
9 -71 8 -130 -20 -76 -36 -144 -95 -187 -162 -23 -37 -38 -50 -55 -50 -13 0
-26 -4 -29 -9 -3 -4 4 -8 16 -7 13 1 22 -6 24 -16 2 -15 -1 -16 -17 -8 -15 8
-23 6 -36 -10 -38 -44 -102 -5 -68 42 8 13 15 30 15 40 0 18 -35 42 -49 34 -9
-6 -51 21 -51 34 0 5 11 21 25 36 32 35 29 55 -12 73 -48 21 -52 49 -14 80 38
31 40 55 6 77 -29 19 -34 62 -7 70 58 18 74 45 44 77 -38 40 -25 72 32 79 39
4 54 29 37 61 -24 44 -12 62 42 62 54 0 70 15 56 52 -4 12 -6 29 -3 38 8 19
43 30 57 16 15 -15 50 -14 65 1 7 7 12 24 12 39 0 15 7 32 15 39 13 11 21 9
47 -10 l32 -24 17 25 c10 13 39 53 65 88 l47 65 44 -47 c29 -31 52 -47 69 -47
15 0 27 -7 30 -17 17 -54 48 -67 79 -33 33 37 75 19 75 -32 0 -37 28 -51 64
-32 53 27 70 15 71 -51 l0 -40 49 0 c59 0 78 -19 57 -59 -15 -28 -9 -53 14
-62 24 -10 29 2 15 36 -18 43 0 63 50 55 46 -8 61 8 57 59 -3 47 21 68 53 48
29 -17 58 -15 69 7 6 10 8 21 5 24 -10 10 6 45 23 52 10 3 29 -3 45 -15 15
-11 29 -20 31 -20 3 0 23 28 46 63 23 34 51 73 62 87 l21 25 42 -47 c30 -34
50 -48 68 -48 21 0 29 -7 38 -35 14 -41 46 -47 75 -15 33 37 75 19 75 -32 0
-37 29 -53 59 -32 12 9 31 14 44 12 19 -3 23 -11 27 -53 l5 -50 46 0 c30 0 53
-6 66 -17 41 -37 78 -12 68 44 -9 48 11 64 58 47 48 -17 67 -7 67 35 0 25 6
38 19 46 23 12 47 5 55 -16 10 -27 31 -14 68 44 21 31 49 71 63 87 l25 30 41
-47 c28 -33 49 -48 66 -48 18 0 28 -9 39 -35 17 -41 50 -47 79 -15 33 36 80
15 68 -30 -3 -11 4 -24 18 -33 20 -15 25 -15 51 1 38 22 63 7 63 -39 1 -52 11
-62 59 -55 34 5 44 3 58 -14 37 -42 84 -12 72 47 -8 40 17 61 50 44 13 -7 34
-11 47 -9 20 2 25 10 27 40 5 54 59 77 76 32 10 -26 31 -13 68 44 21 31 49 71
62 87 l25 30 41 -47 c28 -33 49 -48 66 -48 18 0 27 -9 38 -35 12 -27 21 -35
40 -35 15 0 30 8 36 20 8 15 20 19 58 18 26 0 55 -5 65 -10 51 -26 100 26 77
81 -26 64 25 108 85 71 41 -25 60 -25 86 1 16 16 19 28 15 55 -12 63 53 97 97
51 30 -32 54 -40 62 -19 9 25 167 242 175 242 4 0 33 -31 65 -70z m-2720
-1118 c28 -9 53 -21 57 -27 4 -5 8 -6 8 -2 0 10 40 -11 40 -22 0 -5 -11 -8
-25 -8 -13 0 -22 3 -19 8 3 5 -8 6 -23 3 -15 -3 -37 -6 -48 -7 -24 -2 -44 -33
-37 -59 3 -13 10 -17 21 -12 40 17 84 17 98 -2 12 -16 13 -16 13 -1 0 19 20
24 21 5 0 -10 2 -10 6 0 2 6 9 9 15 6 5 -4 2 6 -7 20 -21 31 -7 58 15 31 7 -8
10 -15 6 -15 -3 0 -1 -11 4 -25 6 -16 6 -25 0 -25 -6 0 -10 -4 -10 -10 0 -5 5
-9 11 -7 7 1 18 -12 25 -29 12 -29 11 -34 -6 -54 -27 -31 -25 -38 3 -12 l24
22 12 -23 c15 -28 1 -71 -28 -86 -35 -19 -90 -13 -114 12 -12 13 -21 21 -20
19 1 -2 -3 -10 -10 -16 -8 -10 -20 -10 -44 -3 -28 9 -31 12 -21 31 10 19 8 19
-16 -3 -33 -31 -113 -39 -173 -18 -24 8 -43 12 -43 8 0 -12 -60 -30 -66 -20
-10 17 -44 10 -44 -10 0 -13 -9 -20 -30 -24 -54 -11 -61 -2 -54 70 3 36 9 76
14 89 6 14 9 28 9 32 -1 4 2 18 6 31 8 22 11 23 76 19 38 -3 75 -11 83 -18 9
-6 19 -9 25 -6 5 3 11 0 14 -6 2 -7 3 3 1 22 -1 19 -3 38 -3 42 -2 17 -59 35
-101 32 -25 -1 -35 0 -22 2 12 3 20 9 17 14 -3 5 18 18 47 29 68 26 219 28
293 3z m968 3 c15 -6 16 -10 5 -17 -9 -6 -6 -7 10 -3 28 8 64 -3 56 -17 -5 -8
-1 -9 10 -5 11 5 15 3 10 -5 -5 -8 -2 -9 10 -5 14 5 17 3 12 -8 -3 -8 0 -14 6
-12 7 1 22 -25 33 -58 12 -33 29 -74 38 -92 23 -44 21 -78 -5 -103 -29 -27
-91 -27 -119 1 -21 21 -46 21 -41 0 3 -14 2 -14 -38 1 -31 10 -32 12 -15 25
11 7 28 14 39 14 16 1 17 2 4 6 -9 2 -38 -7 -65 -21 -55 -30 -124 -34 -177
-12 -27 11 -37 11 -47 2 -17 -15 -69 -38 -69 -30 0 3 15 12 33 20 l32 15 -33
-5 c-20 -4 -31 -2 -27 4 10 17 -4 11 -25 -10 -11 -11 -20 -24 -20 -29 0 -9
-34 -21 -64 -21 -17 0 -18 6 -13 86 3 48 9 89 13 93 5 3 9 11 10 16 5 48 15
55 73 51 61 -4 87 -11 113 -34 9 -8 23 -12 30 -9 9 4 7 6 -4 6 -13 1 -16 8
-11 34 4 28 1 36 -20 50 -13 9 -46 17 -73 19 l-49 3 35 20 c70 39 93 43 210
40 63 -1 123 -6 133 -10z m4864 -1 c32 -9 64 -24 71 -33 7 -9 10 -10 7 -3 -5
10 1 9 24 -3 31 -16 56 -58 45 -76 -3 -5 0 -9 7 -9 7 0 9 -3 6 -7 -4 -3 -2
-12 5 -20 6 -7 8 -16 5 -19 -3 -4 1 -13 9 -21 8 -9 13 -22 10 -30 -3 -8 -1
-11 4 -8 11 7 23 -35 18 -61 -2 -10 -13 -24 -26 -30 -12 -6 -20 -13 -17 -16 3
-2 -18 -5 -45 -7 -39 -1 -50 1 -50 13 0 23 -22 31 -36 12 -11 -16 -14 -16 -43
-1 -20 10 -29 20 -25 28 4 7 -2 4 -14 -6 -29 -27 -126 -34 -175 -14 -20 9 -37
13 -37 9 0 -4 -13 -12 -28 -18 -22 -9 -33 -8 -47 2 -10 8 -14 14 -9 14 6 0 15
-4 22 -10 7 -5 6 -2 -2 7 -12 13 -18 14 -30 3 -9 -7 -16 -21 -16 -31 0 -11 -8
-20 -17 -21 -80 -7 -74 -11 -72 54 2 53 10 93 34 166 7 22 12 23 76 19 71 -5
93 -12 83 -28 -3 -5 -2 -9 3 -8 18 3 47 -3 35 -8 -6 -2 -10 -9 -7 -14 4 -5 12
-3 19 3 9 9 10 15 2 24 -6 7 -13 10 -16 9 -3 -2 -4 11 -2 28 5 43 -33 66 -98
60 l-45 -4 30 20 c17 12 45 24 63 27 18 3 34 10 37 13 9 16 184 12 242 -5z
m-2927 -25 c36 -5 76 -17 89 -26 13 -8 20 -10 16 -4 -9 16 49 -9 103 -43 40
-25 54 -46 31 -46 -5 0 -7 -4 -4 -10 8 -14 26 -13 23 1 -2 6 3 14 11 17 8 2
11 0 8 -5 -3 -5 -2 -15 3 -23 5 -8 5 -21 -1 -32 -7 -14 -6 -16 6 -12 14 6 19
-10 18 -53 -1 -7 3 -11 7 -8 11 7 21 -39 14 -62 -4 -14 -4 -15 4 -4 8 11 11 9
17 -10 5 -13 6 -24 4 -24 -2 0 6 -11 19 -25 21 -23 32 -87 12 -75 -5 3 -7 0
-4 -8 3 -8 -6 -27 -20 -42 -23 -25 -34 -28 -107 -32 l-82 -5 5 24 c4 20 0 24
-23 26 -15 1 -30 -2 -34 -8 -3 -5 -1 -10 4 -10 6 0 11 -4 11 -9 0 -5 -27 -1
-59 10 -52 18 -58 23 -53 42 5 21 5 21 -13 4 -29 -29 -64 -39 -147 -40 -75 -1
-158 23 -158 45 0 4 -8 8 -17 7 -11 0 -13 -3 -5 -6 6 -2 12 -10 12 -17 0 -15
-47 -39 -61 -31 -5 4 -9 2 -9 -3 0 -5 -9 -12 -20 -15 -11 -3 -20 -1 -20 4 0 5
5 9 11 9 5 0 7 5 4 10 -9 14 -61 9 -63 -7 -1 -7 -3 -20 -4 -28 -1 -15 -9 -18
-77 -29 -28 -5 -32 -3 -27 10 5 12 2 15 -10 10 -15 -6 -16 3 -11 101 6 103 19
163 48 226 9 20 15 24 21 15 6 -10 8 -10 8 1 0 26 191 -4 212 -34 5 -7 8 -7 8
0 0 6 5 3 10 -5 7 -11 10 -11 10 -2 0 7 4 11 9 8 5 -4 7 12 5 34 -2 25 0 39 6
35 6 -3 7 1 4 9 -3 9 -11 13 -17 9 -7 -4 -8 0 -3 13 5 15 4 16 -5 7 -8 -8 -18
-9 -35 -1 -20 9 -22 14 -11 26 10 13 9 14 -8 5 -28 -15 -146 -22 -131 -9 35
32 85 60 144 82 76 26 207 32 322 13z m3250 -209 c0 -5 -7 -7 -15 -4 -8 4 -15
1 -15 -5 0 -6 -5 -11 -11 -11 -8 0 -8 5 1 15 14 17 40 20 40 5z m968 -2 c-3
-7 -13 -15 -23 -16 -15 -4 -16 -2 -4 12 17 19 32 21 27 4z m49 -40 c-3 -8 -6
-5 -6 6 -1 11 2 17 5 13 3 -3 4 -12 1 -19z m-8813 -51 c11 -10 15 -15 7 -11
-9 4 -12 3 -7 -4 4 -6 13 -9 20 -6 20 8 45 -22 39 -47 -14 -52 -67 -32 -69 26
0 22 -6 41 -12 43 -7 2 -12 13 -11 25 0 15 2 17 6 7 3 -8 15 -23 27 -33z m961
6 c-5 -10 -9 -20 -10 -23 -1 -3 -4 -12 -8 -20 -3 -8 -7 -24 -9 -35 -6 -39 -67
-28 -68 12 0 16 30 44 40 38 5 -3 19 8 32 24 25 31 35 33 23 4z m41 18 c-4 -5
0 -11 6 -14 7 -2 9 -8 5 -13 -4 -5 -12 -2 -17 6 -13 20 -12 30 1 30 5 0 8 -4
5 -9z m6831 -5 c-3 -8 8 -21 29 -32 42 -23 56 -61 29 -80 -34 -25 -75 22 -46
52 6 5 1 13 -15 21 -20 9 -24 9 -25 -5 -1 -10 -3 -24 -4 -32 -1 -8 -3 -21 -4
-28 0 -8 -11 -12 -28 -10 -22 2 -29 9 -31 30 -3 28 28 55 48 43 6 -4 9 -3 8 2
-3 11 25 53 35 53 5 0 7 -6 4 -14z m966 -13 c-4 -10 -12 -22 -20 -26 -10 -6
-10 -12 -1 -26 17 -28 3 -53 -29 -49 -22 2 -29 9 -31 30 -3 21 3 30 26 42 15
8 34 22 41 30 17 21 22 20 14 -1z m-7717 -67 c-1 -28 -4 -31 -31 -31 -27 0
-30 3 -28 30 5 53 4 53 33 42 22 -8 27 -16 26 -41z m1847 12 c9 -32 -3 -49
-32 -46 -21 2 -27 9 -29 35 -2 24 1 32 15 35 27 6 40 -1 46 -24z m-2433 -43
c11 -13 6 -15 -39 -15 -47 0 -61 7 -44 23 12 13 71 7 83 -8z m1028 -2 c2 -9
-10 -13 -42 -13 -43 0 -55 7 -39 24 12 11 76 2 81 -11z m967 6 c10 -16 0 -21
-40 -21 -20 0 -39 2 -42 5 -12 13 11 27 42 27 19 0 37 -5 40 -11z m973 -6 c2
-9 -11 -13 -48 -13 -46 0 -51 2 -40 16 16 18 81 16 88 -3z m1992 2 c11 -13 6
-15 -39 -15 -47 0 -61 7 -44 23 12 13 71 7 83 -8z m938 -2 c2 -9 -10 -13 -42
-13 -43 0 -55 7 -39 24 12 11 76 2 81 -11z m967 6 c10 -16 0 -21 -40 -21 -20
0 -39 2 -42 5 -12 13 11 27 42 27 19 0 37 -5 40 -11z m983 -6 c2 -9 -10 -13
-42 -13 -43 0 -55 7 -39 24 12 11 76 2 81 -11z m-3192 -49 c-3 -9 -6 -25 -6
-36 0 -13 -5 -18 -14 -15 -10 4 -13 1 -9 -9 3 -8 -2 -22 -10 -32 -9 -9 -17
-35 -19 -56 -3 -45 -23 -62 -61 -52 -50 12 -48 100 3 111 32 7 104 80 95 95
-4 6 1 10 10 10 12 0 15 -5 11 -16z m-4726 -15 c11 -7 9 -9 -9 -7 -32 4 -37
-16 -8 -29 34 -16 105 -5 118 18 9 17 6 18 -33 14 l-43 -5 45 15 c53 17 53 17
46 6 -3 -5 4 -11 15 -14 12 -3 18 -10 14 -16 -3 -7 0 -8 9 -5 9 4 18 -1 22
-10 3 -9 10 -13 15 -10 5 3 9 0 9 -6 0 -6 5 -8 10 -5 6 3 10 2 10 -3 0 -19
-15 -21 -39 -5 -20 13 -23 13 -14 1 13 -15 8 -28 -9 -28 -5 0 -6 6 -2 13 6 10
4 10 -7 0 -18 -17 -127 -16 -213 1 -37 8 -70 17 -72 19 -8 8 27 37 37 31 5 -3
8 0 7 8 -2 8 4 12 15 10 9 -2 17 1 16 5 -4 25 20 26 61 2z m1094 8 c37 8 47 7
70 -10 14 -10 24 -23 21 -28 -4 -5 2 -6 12 -2 16 6 17 5 3 -12 -14 -17 -14
-17 6 -7 26 14 58 -2 34 -18 -46 -30 -279 -23 -341 10 -20 11 -18 13 31 45 46
30 54 32 85 22 24 -7 49 -7 79 0z m944 -1 c28 0 52 -3 52 -8 0 -5 -33 -8 -74
-6 -71 3 -74 2 -59 -14 11 -13 31 -18 68 -18 54 0 75 12 75 43 0 10 5 15 11
12 6 -4 8 -13 5 -21 -3 -8 0 -11 9 -8 8 3 27 -3 42 -14 15 -11 38 -23 51 -27
45 -14 6 -23 -128 -32 -79 -5 -157 5 -219 29 l-25 9 33 20 c18 11 37 16 43 13
7 -5 8 -2 3 6 -10 17 15 31 40 22 11 -4 44 -7 73 -6z m927 -8 c7 -7 0 -9 -22
-5 -41 8 -41 4 0 -22 21 -13 41 -18 57 -14 17 5 21 3 15 -6 -4 -7 11 -1 34 14
22 15 41 29 41 30 0 1 -13 1 -30 0 -32 -2 -32 9 0 18 11 3 23 1 26 -4 3 -6 23
-21 45 -35 25 -16 37 -29 32 -37 -4 -7 0 -7 10 2 9 7 17 9 17 3 0 -12 -29 -24
-41 -16 -5 3 -9 0 -9 -6 0 -6 -5 -8 -12 -4 -8 5 -5 11 7 20 10 8 16 16 13 19
-3 4 -15 -5 -26 -19 -18 -24 -27 -26 -92 -26 -75 0 -155 15 -179 34 -11 8 -13
8 -7 -1 5 -9 2 -11 -8 -7 -24 9 -20 16 32 51 46 32 73 35 97 11z m2005 0 c11
-7 7 -8 -13 -5 -38 6 -44 -9 -10 -26 34 -17 93 -14 108 6 5 7 16 13 23 11 7
-1 8 0 2 3 -5 2 -7 10 -3 16 5 9 3 9 -8 1 -8 -6 -30 -11 -49 -12 -35 -1 -35
-1 10 13 39 13 46 12 62 -2 10 -9 15 -20 12 -24 -3 -5 2 -6 10 -3 9 4 18 -1
22 -10 3 -9 10 -13 15 -10 5 3 9 0 9 -6 0 -6 5 -8 10 -5 6 3 10 2 10 -3 0 -19
-15 -21 -39 -5 -20 13 -23 13 -14 1 7 -8 10 -18 6 -21 -9 -10 -25 -9 -19 1 3
5 -1 9 -9 9 -8 0 -12 -4 -9 -9 13 -21 -251 4 -274 26 -7 8 30 36 39 30 4 -2
10 3 13 12 3 8 11 12 16 9 6 -4 10 -3 9 2 -1 4 -1 11 0 16 1 9 49 -1 71 -15z
m911 12 c5 0 9 -4 9 -9 0 -14 -43 -7 -48 8 -3 10 0 12 12 8 10 -4 22 -7 27 -7z
m167 -23 c7 -8 31 -22 53 -33 l42 -18 -49 -13 c-86 -22 -304 -10 -304 17 0 4
-10 6 -22 3 -21 -4 -20 -2 7 21 17 14 36 24 43 21 7 -3 10 0 7 5 -10 16 5 11
32 -10 32 -25 114 -28 137 -4 9 8 21 12 27 8 7 -4 9 -3 6 3 -4 7 -31 10 -64 7
-52 -3 -54 -2 -18 5 22 5 43 7 48 4 4 -2 7 1 7 7 0 13 30 -1 48 -23z m828 16
c16 -3 47 0 67 5 20 6 37 7 39 2 2 -4 32 -24 67 -43 l63 -35 -53 -11 c-41 -9
-54 -9 -61 1 -6 10 -8 10 -8 -1 0 -10 -18 -12 -87 -7 -49 3 -98 6 -111 6 -13
0 -21 3 -19 8 3 4 -6 8 -20 8 -13 1 -27 5 -31 9 -12 12 23 24 58 20 26 -3 30
-2 15 4 -11 5 -24 6 -30 4 -5 -3 3 7 19 22 18 16 35 24 45 20 9 -4 30 -9 47
-12z m931 2 c-9 -23 38 -53 77 -50 39 4 79 22 72 34 -3 4 -20 6 -38 4 -31 -3
-32 -2 -6 6 14 5 31 12 37 16 6 3 25 -7 41 -24 17 -17 33 -30 35 -31 3 0 20
-7 38 -15 17 -8 25 -13 16 -11 -9 2 -22 -1 -29 -7 -10 -9 -11 -9 -6 1 10 16
-4 15 -28 -3 -14 -11 -46 -15 -109 -15 -48 0 -86 3 -84 8 3 4 -15 8 -40 10
-51 3 -98 22 -73 30 8 2 25 13 37 24 12 11 26 17 33 13 6 -3 10 -3 9 2 -3 16
1 23 12 23 6 0 9 -7 6 -15z m36 -12 c-7 -2 -19 -2 -25 0 -7 3 -2 5 12 5 14 0
19 -2 13 -5z m-4539 -42 c14 -15 15 -20 4 -24 -7 -2 -5 -3 6 -1 56 9 93 -44
62 -91 -33 -50 -105 -16 -92 42 5 22 2 34 -14 48 -15 14 -17 21 -9 32 15 18
23 17 43 -6z m719 -119 c10 -10 14 -22 10 -25 -8 -9 -106 -9 -128 -1 -14 6
-14 8 1 25 23 26 95 26 117 1z m-149 -79 c10 -10 35 -14 96 -14 60 0 79 3 97
14 13 8 83 -40 83 -56 0 -5 5 -5 10 -2 6 3 13 0 16 -8 2 -7 10 -14 17 -14 7
-1 30 -10 52 -22 36 -19 37 -21 10 -15 -21 4 -26 3 -16 -4 13 -9 -31 -19 -170
-37 -59 -7 -220 11 -284 32 -56 19 -58 20 -82 22 -14 1 -13 5 7 15 28 16 47
16 42 1 -2 -5 0 -6 5 -2 4 5 8 14 8 20 1 7 6 11 13 10 7 -2 9 4 5 15 -6 14 -4
15 9 4 13 -10 18 -10 24 -1 4 8 3 9 -4 5 -17 -11 -14 5 5 26 16 18 44 24 57
11z m-418 -41 c31 -36 80 -67 149 -92 23 -8 39 -28 70 -86 56 -106 129 -184
205 -218 54 -25 72 -28 139 -24 48 2 91 11 116 23 59 29 127 102 161 172 16
34 32 62 37 62 4 1 7 -210 7 -469 -1 -361 -4 -470 -13 -471 -9 0 -9 -2 1 -6 6
-2 12 -17 12 -32 0 -26 2 -27 51 -26 46 0 52 -3 55 -22 3 -19 -1 -21 -41 -21
-58 0 -93 -11 -74 -23 10 -6 7 -9 -11 -9 -24 -1 -24 -2 -3 -10 16 -7 20 -14
15 -32 -3 -12 -7 -17 -9 -11 -3 7 -18 9 -41 6 -20 -3 -44 -6 -52 -6 -8 0 -103
2 -211 3 l-197 2 -49 43 c-72 63 -138 178 -173 300 -21 72 -57 232 -58 259 -1
17 -7 33 -14 37 -6 4 -8 14 -5 23 4 9 2 16 -4 16 -6 0 -8 7 -5 17 4 9 2 19 -3
23 -6 3 -12 15 -14 25 -2 11 -11 36 -20 55 -11 26 -12 37 -4 42 9 6 9 8 0 8
-7 0 -13 7 -13 15 0 8 -4 15 -9 15 -5 0 -17 24 -27 53 -9 28 -21 58 -26 64 -6
7 -8 20 -4 28 3 9 2 14 -3 11 -10 -7 -30 39 -33 76 -1 15 -5 25 -9 22 -7 -4
-49 86 -49 105 0 14 32 29 48 24 6 -3 12 2 12 10 0 13 45 56 59 57 2 0 19 -17
37 -38z m1180 -72 c7 -7 8 -32 2 -71 -8 -61 2 -110 15 -75 4 10 3 15 -3 11
-16 -10 -12 2 13 40 12 19 28 37 35 40 17 6 132 -54 139 -72 3 -7 11 -13 18
-13 6 0 20 -9 31 -21 14 -16 15 -22 5 -28 -10 -6 -9 -10 4 -14 9 -4 13 -3 10
2 -3 5 -1 12 5 16 5 3 10 1 10 -5 0 -6 8 -13 18 -17 54 -20 248 -223 238 -250
-4 -9 -1 -11 6 -7 8 5 9 2 5 -9 -3 -9 -1 -19 5 -23 7 -4 8 -3 4 4 -10 17 9 15
24 -3 6 -8 8 -20 4 -26 -4 -8 -3 -9 4 -5 7 4 12 3 12 -3 0 -6 10 -20 23 -32
12 -12 16 -19 10 -15 -19 11 -16 -9 4 -25 14 -12 16 -12 8 0 -5 9 -4 12 3 7 8
-5 8 -15 1 -33 -5 -14 -8 -28 -5 -30 2 -3 7 5 11 17 7 21 8 20 30 -12 12 -18
20 -39 17 -47 -3 -8 -1 -12 5 -8 6 4 10 -1 9 -11 0 -9 4 -16 11 -15 7 2 10 -3
7 -11 -4 -11 -18 -7 -62 16 -112 60 -222 142 -218 162 2 6 1 8 -1 4 -8 -15
-25 -8 -19 7 17 45 -65 -36 -129 -128 -14 -19 -17 -18 -87 38 -40 33 -77 62
-82 66 -9 8 25 119 62 198 24 50 24 55 9 79 -8 15 -19 28 -24 29 -8 3 -45
-117 -66 -220 -7 -32 -16 -55 -20 -50 -5 4 -5 0 -1 -10 3 -10 1 -17 -6 -17 -6
0 -8 -5 -5 -10 4 -6 2 -16 -3 -23 -5 -7 -10 -33 -11 -59 0 -26 -6 -59 -11 -73
-6 -15 -10 -35 -10 -45 0 -10 -5 -31 -11 -47 -6 -15 -11 -60 -11 -99 -1 -58 3
-79 21 -108 25 -40 22 -41 102 20 31 24 60 39 65 35 5 -4 34 -18 65 -30 l57
-22 58 37 c33 20 61 40 64 44 8 12 151 87 207 109 59 23 83 20 76 -10 -4 -12
-11 -18 -20 -15 -11 5 -11 1 -2 -15 8 -16 8 -20 -1 -14 -7 4 -10 2 -9 -6 3
-22 -12 -50 -24 -42 -7 4 -8 0 -3 -12 6 -16 4 -16 -10 -4 -16 13 -16 12 -4
-11 7 -14 9 -22 5 -18 -5 5 -17 -6 -27 -23 -12 -19 -24 -29 -33 -25 -8 3 -14
0 -12 -7 1 -7 -5 -10 -13 -8 -37 8 -75 12 -69 7 3 -3 14 -7 25 -9 10 -1 25 -6
32 -11 7 -4 20 -2 29 6 14 12 15 11 5 -8 -20 -37 -153 -141 -255 -200 -45 -25
-45 -25 46 -44 121 -25 234 -104 307 -216 98 -150 90 -295 -27 -454 -45 -62
-47 -68 -48 -135 -2 -64 3 -80 48 -182 47 -105 52 -112 84 -118 22 -4 37 -14
42 -28 9 -23 -3 -48 -23 -46 -6 1 -22 0 -36 -1 -14 -2 -2 -6 25 -9 42 -5 51
-10 53 -28 3 -20 -1 -23 -32 -23 -19 0 -37 -4 -40 -9 -9 -14 15 -19 46 -10 30
8 43 -3 34 -27 -5 -14 68 -174 80 -174 3 0 25 17 49 38 24 21 68 50 99 65 l56
28 -24 47 c-13 27 -27 64 -31 84 -5 26 -11 35 -21 31 -23 -9 -70 16 -83 43
-30 67 4 150 78 192 l49 27 -5 50 c-9 83 45 166 97 150 29 -9 70 -63 70 -93
l0 -26 21 21 c19 19 20 25 10 72 -25 115 -7 245 47 345 37 70 136 167 202 199
117 56 222 69 339 42 371 -88 503 -549 234 -818 -50 -50 -154 -117 -182 -117
-6 0 -11 18 -11 44 0 43 2 45 53 74 135 76 217 251 189 402 -25 136 -98 237
-214 295 -39 19 -75 32 -78 28 -4 -5 -13 -43 -19 -85 l-12 -78 42 -87 c38 -78
43 -96 43 -158 0 -60 -17 -163 -31 -188 -2 -4 -13 -2 -25 4 -15 8 -17 14 -9
22 22 22 10 27 -14 5 -52 -49 -59 -265 -11 -368 14 -30 26 -64 26 -76 0 -32
-35 -67 -59 -59 -25 7 -63 54 -55 66 7 12 44 11 44 -1 0 -15 17 -12 24 5 3 8
2 14 -2 13 -4 -1 -16 3 -27 9 -31 17 -65 -1 -65 -34 0 -53 12 -72 55 -93 57
-27 86 -16 104 38 13 38 23 50 74 91 10 8 39 20 65 27 l47 13 -50 0 c-27 1
-62 -6 -77 -13 -26 -14 -28 -13 -28 4 0 10 16 32 35 49 28 24 45 31 78 31 23
0 53 -7 65 -16 47 -33 13 -152 -60 -204 -42 -31 -39 -40 21 -47 91 -11 220
-63 255 -101 10 -12 23 -19 28 -16 12 8 100 -65 92 -77 -3 -5 0 -8 7 -7 7 2
18 -8 26 -22 7 -14 13 -19 13 -11 0 22 23 -2 64 -69 39 -64 76 -158 76 -197 0
-12 4 -23 9 -23 5 0 18 -15 28 -32 37 -63 36 -68 -5 -107 -21 -20 -42 -44 -45
-54 -10 -26 -48 -18 -64 13 -7 14 -18 24 -24 22 -21 -5 -39 20 -39 55 0 34 13
56 39 64 37 13 -137 139 -191 139 -9 0 -19 4 -22 8 -3 5 -19 7 -37 4 -25 -4
-30 -2 -24 9 6 11 5 11 -5 2 -7 -6 -18 -9 -25 -7 -7 3 -53 -4 -103 -16 -50
-12 -97 -18 -103 -14 -7 4 -9 3 -5 -4 3 -6 -6 -24 -21 -40 -47 -50 -51 -57
-64 -118 -13 -64 -13 -107 2 -169 6 -22 11 -45 11 -52 1 -7 7 -14 14 -17 8 -3
11 -12 7 -23 -6 -16 -5 -16 11 -4 17 14 17 13 13 -18 -4 -22 -2 -31 6 -28 24
9 48 -13 41 -36 -6 -20 -5 -21 12 -7 18 14 18 14 5 -3 -12 -15 -11 -17 4 -17
10 0 15 -3 12 -7 -4 -3 -2 -12 4 -20 8 -9 8 -13 1 -13 -6 0 -13 -12 -15 -27
-3 -20 -4 -17 -6 13 0 23 -7 46 -14 53 -11 8 -14 0 -14 -42 l-1 -52 8 45 7 45
1 -46 c2 -45 1 -46 -35 -57 -72 -20 -152 -25 -213 -11 -32 7 -57 16 -55 19 3
4 -8 12 -23 19 -25 11 -26 10 -8 -4 17 -13 18 -15 3 -15 -9 0 -18 -4 -18 -10
-1 -5 -2 -16 -3 -22 0 -7 -12 -14 -26 -15 -23 -2 -23 -2 -5 6 11 5 16 10 11
10 -5 1 -2 9 5 19 13 16 13 16 -7 -1 -26 -22 -110 -46 -150 -43 -17 1 -41 12
-54 24 -25 23 -33 26 -44 15 -11 -11 -46 -14 -46 -3 0 23 22 110 28 110 4 0
13 9 20 21 8 12 9 18 3 14 -18 -10 -12 7 7 22 9 8 12 12 5 8 -44 -22 -212 165
-268 297 -11 26 -19 33 -45 34 -18 1 -44 11 -59 22 -25 18 -35 19 -104 12
-115 -13 -216 -11 -274 7 -51 15 -52 17 -78 81 -57 141 -51 301 15 449 26 56
27 68 22 149 -4 74 -3 89 12 99 15 12 12 22 -36 119 -40 80 -57 106 -72 106
-10 0 -36 17 -56 39 -36 38 -37 38 -132 43 -196 10 -316 104 -363 283 -38 146
-1 332 87 444 13 17 17 33 13 53 -4 16 -1 40 8 57 14 28 13 32 -14 73 -33 49
-46 104 -31 128 11 18 5 70 -9 70 -5 0 -8 35 -7 78 0 42 -4 156 -10 252 -6 96
-16 272 -22 390 -6 118 -13 239 -16 268 -5 41 -3 52 8 52 8 0 19 -5 24 -10z
m-286 -14 c0 -2 -7 -7 -16 -10 -8 -3 -12 -2 -9 4 6 10 25 14 25 6z m-1159
-149 c49 -45 120 -143 140 -192 18 -43 43 -123 44 -140 0 -5 4 -13 9 -16 12
-10 -10 -44 -41 -64 -15 -10 -51 -35 -80 -57 -32 -25 -57 -37 -65 -32 -7 4
-10 4 -6 -1 8 -9 -32 -44 -47 -40 -5 1 -6 0 -2 -3 18 -9 -47 -62 -76 -62 -41
0 -162 37 -176 53 -8 11 5 38 55 118 37 57 74 110 83 117 14 11 12 16 -16 42
-17 16 -50 39 -72 51 -23 11 -41 23 -41 26 0 11 74 98 148 175 82 85 80 85
143 25z m-234 -934 c-12 -38 -22 -70 -24 -72 -7 -11 -153 112 -153 129 0 4 45
8 99 9 l99 1 -21 -67z m1581 -83 c3 -18 0 -21 -13 -16 -9 3 -28 6 -41 6 -17 0
-24 6 -24 19 0 39 73 31 78 -9z m-1127 13 c-5 -10 -17 -27 -26 -38 -16 -19
-16 -19 -4 5 13 27 29 50 36 50 2 0 -1 -8 -6 -17z m1245 -40 c-2 -14 -13 -18
-52 -18 -38 0 -49 4 -52 18 -3 14 5 17 51 17 47 0 55 -3 53 -17z m-4110 -215
c14 -27 18 -29 26 -15 9 17 46 39 85 51 19 6 23 2 29 -28 3 -20 7 -36 8 -36 1
0 19 9 41 20 22 11 50 20 62 20 20 0 23 -5 23 -36 0 -31 3 -35 18 -28 9 4 39
9 66 12 l49 4 -7 -33 -6 -34 50 -1 c60 -1 80 -15 62 -44 -17 -27 -17 -27 26
-35 20 -3 48 -13 60 -22 l24 -15 -22 -23 -22 -23 44 -19 c23 -11 49 -27 56
-36 11 -13 10 -18 -12 -33 l-26 -16 45 -40 c45 -40 56 -63 33 -71 -9 -3 -7
-11 8 -28 12 -13 26 -37 32 -54 5 -16 13 -39 18 -50 7 -18 5 -18 -18 3 -25 23
-112 52 -155 52 -14 0 -23 -6 -23 -16 0 -8 4 -12 10 -9 6 3 10 1 10 -4 0 -6
-6 -11 -14 -11 -8 0 -17 -13 -21 -30 -4 -16 -11 -32 -16 -35 -5 -4 -9 -11 -9
-16 0 -6 4 -8 8 -5 4 2 8 -4 8 -15 0 -18 -2 -19 -12 -4 -8 11 -14 13 -19 5 -9
-14 14 -42 28 -33 6 4 7 1 3 -6 -6 -9 -12 -9 -25 3 -19 17 -48 6 -36 -14 5 -8
4 -11 -3 -6 -6 4 -31 -9 -56 -28 -24 -18 -68 -44 -96 -57 l-52 -23 4 -66 c3
-62 7 -71 56 -137 53 -71 91 -145 92 -174 0 -21 -16 -27 -85 -35 -31 -4 -67
-2 -90 6 -35 12 -38 11 -71 -21 l-33 -32 -9 24 c-5 13 -13 43 -17 67 -4 23 -9
42 -12 42 -3 0 -24 -22 -48 -48 -52 -58 -143 -111 -155 -91 -5 7 -7 25 -5 39
17 111 14 118 -33 75 -38 -35 -106 -65 -164 -72 l-49 -6 24 64 c13 35 28 73
32 83 7 17 6 18 -11 11 -99 -43 -144 -51 -216 -39 -44 8 -43 13 28 100 25 31
44 58 41 60 -2 3 -24 0 -48 -5 -49 -11 -122 -1 -170 25 l-31 16 23 24 c12 13
44 38 70 56 27 18 49 36 49 41 0 4 -15 7 -34 7 -19 0 -47 5 -62 10 -33 13
-104 68 -104 81 0 9 85 52 145 74 18 7 16 9 -15 22 -42 18 -77 49 -96 85 -25
47 -31 44 126 75 l25 5 -29 21 c-31 22 -56 72 -56 112 0 24 2 25 70 25 39 0
70 2 70 4 0 2 -7 20 -15 40 -16 37 -12 100 6 112 8 4 67 -8 104 -22 10 -4 13
6 13 38 -1 45 24 98 46 98 6 0 26 -9 44 -20 42 -26 47 -25 50 7 2 28 47 83 67
83 6 0 22 -11 35 -25 29 -31 34 -31 48 0 12 27 70 67 84 59 4 -3 15 -19 24
-36z m2719 -524 l-130 -126 -3 59 -3 60 -54 17 c-30 9 -57 20 -59 25 -4 6 329
85 374 90 3 0 -53 -56 -125 -125z m-2095 -74 c0 -11 -2 -20 -4 -20 -2 0 -6 9
-9 20 -3 11 -1 20 4 20 5 0 9 -9 9 -20z m1600 16 c0 -2 -8 -10 -17 -17 -16
-13 -17 -12 -4 4 13 16 21 21 21 13z m32 -15 c-12 -10 -18 -22 -14 -26 4 -5 1
-5 -5 -1 -14 8 -17 -3 -7 -29 6 -13 9 -14 16 -3 8 10 9 10 5 -2 -2 -8 -10 -14
-16 -12 -16 3 -14 -9 5 -22 18 -13 -4 -29 -203 -146 -88 -52 -120 -67 -130
-58 -7 6 -13 16 -13 22 0 6 -10 22 -21 36 -11 14 -18 20 -15 13 4 -8 0 -11
-14 -8 -11 2 -20 0 -20 -6 0 -5 -10 -9 -22 -9 -23 1 -23 1 2 14 14 8 28 12 32
10 5 -3 8 4 8 15 0 16 26 28 165 74 91 31 165 52 165 48 0 -4 7 -16 16 -27 8
-10 12 -13 8 -5 -5 10 -3 13 8 8 13 -5 15 3 12 44 -3 39 1 54 16 69 11 11 25
20 32 20 6 0 1 -8 -10 -19z m78 -19 c-12 -2 -27 1 -33 7 -7 7 -3 8 13 4 18 -5
21 -3 15 8 -7 11 -5 11 10 -1 18 -14 17 -15 -5 -18z m-1613 12 c-3 -3 -12 -4
-19 -1 -8 3 -5 6 6 6 11 1 17 -2 13 -5z m-40 -10 c-3 -3 -12 -4 -19 -1 -8 3
-5 6 6 6 11 1 17 -2 13 -5z m40 -10 c-3 -3 -12 -4 -19 -1 -8 3 -5 6 6 6 11 1
17 -2 13 -5z m1483 -4 c0 -5 -5 -10 -11 -10 -5 0 -7 5 -4 10 3 6 8 10 11 10 2
0 4 -4 4 -10z m-1546 -15 c-4 -8 -1 -15 5 -15 6 0 11 -5 11 -10 0 -6 -7 -6
-18 1 -21 13 -25 39 -6 39 8 0 11 -6 8 -15z m106 -26 c0 -5 4 -8 9 -5 4 3 17
-4 27 -15 12 -13 14 -19 5 -17 -7 2 -16 -3 -19 -11 -3 -9 0 -11 8 -6 9 6 11 4
5 -5 -6 -10 -11 -9 -21 4 -13 18 -40 13 -29 -5 4 -5 1 -9 -4 -9 -6 0 -11 7
-11 16 0 9 -5 12 -12 8 -7 -4 -8 -3 -4 4 4 6 14 8 24 5 15 -6 15 -5 4 10 -8 9
-11 21 -7 27 8 13 25 13 25 -1z m-101 -54 c-1 -16 -2 -16 -9 5 -8 25 -8 25 -9
2 -1 -13 -5 -21 -11 -17 -6 3 -5 15 2 31 13 27 28 15 27 -21z m206 15 c-3 -5
-1 -10 6 -10 8 0 7 -6 -4 -17 -14 -16 -14 -20 3 -40 9 -12 21 -19 25 -15 5 4
5 2 2 -5 -4 -6 -1 -14 5 -16 9 -4 10 -6 1 -6 -6 -1 -15 4 -18 9 -9 15 -27 12
-19 -2 4 -7 4 -10 -1 -6 -4 4 -13 3 -20 -2 -8 -7 -12 -5 -12 5 0 8 4 12 8 10
3 -3 13 3 20 12 12 15 12 16 -3 10 -13 -4 -15 -2 -11 10 4 11 2 14 -5 9 -7 -4
-12 -5 -12 -3 0 8 32 67 36 67 3 0 2 -4 -1 -10z m-275 -15 c11 -13 10 -14 -4
-9 -9 3 -16 10 -16 15 0 13 6 11 20 -6z m51 -52 c-12 -20 -14 -14 -5 12 4 9 9
14 11 11 3 -2 0 -13 -6 -23z m1633 -17 c-4 -11 -9 -14 -13 -7 -5 7 -27 -8 -57
-37 -47 -46 -183 -147 -254 -190 l-35 -21 3 53 4 53 125 74 c134 79 189 106
178 89 -3 -5 -1 -10 4 -10 6 0 11 5 11 11 0 8 5 8 15 -1 17 -14 20 -1 5 18 -5
7 -3 6 5 -1 10 -8 13 -20 9 -31z m-1664 19 c20 -24 6 -28 -15 -5 -10 11 -13
20 -8 20 6 0 16 -7 23 -15z m393 -44 c5 -5 7 -21 5 -36 -3 -31 -36 -49 -59
-33 -11 8 -10 9 4 4 9 -3 17 -2 17 3 0 14 -26 31 -35 23 -5 -4 -5 -2 -1 5 3 6
2 15 -4 18 -8 5 -8 11 -1 19 6 7 8 16 5 19 -4 4 8 2 26 -3 19 -5 38 -14 43
-19z m-224 5 c10 -12 9 -14 -5 -12 -10 2 -20 8 -22 14 -5 17 13 15 27 -2z
m-339 -5 c0 -5 -7 -12 -16 -15 -14 -5 -15 -4 -4 9 14 17 20 19 20 6z m90 -1
c0 -5 -2 -10 -4 -10 -3 0 -8 5 -11 10 -3 6 -1 10 4 10 6 0 11 -4 11 -10z m-24
-37 c-7 -7 -26 7 -26 19 0 6 6 6 15 -2 9 -7 13 -15 11 -17z m149 17 c-3 -5
-12 -10 -18 -10 -7 0 -6 4 3 10 19 12 23 12 15 0z m83 -11 c2 -5 9 -6 14 -3 7
5 8 2 3 -6 -6 -10 -3 -12 11 -7 14 6 13 3 -5 -11 -34 -27 -19 -45 30 -37 24 4
39 3 39 -3 0 -27 -22 -63 -44 -74 -14 -6 -27 -18 -29 -27 -3 -10 -5 -8 -6 7 0
12 -5 22 -11 22 -5 0 -9 6 -7 13 1 6 -3 11 -9 10 -7 -1 -11 8 -10 21 1 26 16
25 16 -2 0 -13 3 -13 12 -4 10 10 10 17 0 33 -8 12 -11 23 -8 27 3 3 -3 12
-14 19 -11 8 -18 18 -15 23 3 4 -1 11 -7 14 -7 3 -2 3 12 0 14 -4 27 -11 28
-15z m116 6 c-4 -8 -2 -15 3 -15 5 0 10 -6 10 -13 0 -7 -11 -13 -23 -13 -12 0
-20 4 -18 8 3 5 10 5 16 2 8 -5 9 -1 5 10 -4 10 -5 22 -1 27 9 14 14 10 8 -6z
m44 -10 c-3 -3 -9 2 -12 12 -6 14 -5 15 5 6 7 -7 10 -15 7 -18z m857 15 c-3
-5 -1 -10 6 -10 7 0 10 -3 6 -6 -9 -9 -28 6 -22 17 4 5 8 9 11 9 3 0 2 -4 -1
-10z m-1305 -4 c0 -3 -4 -8 -10 -11 -5 -3 -10 -1 -10 4 0 6 5 11 10 11 6 0 10
-2 10 -4z m24 -38 c-3 -4 0 -8 6 -8 6 0 -3 -12 -21 -27 -18 -16 -40 -26 -48
-25 -13 3 -13 1 -2 -12 8 -10 9 -16 3 -16 -6 0 2 -14 18 -32 31 -34 27 -59 -7
-39 -10 6 -14 11 -9 11 6 0 1 7 -10 15 -16 13 -16 14 -1 9 25 -9 21 3 -10 33
-16 14 -20 20 -10 13 20 -15 22 -8 5 20 -10 16 -10 23 4 36 21 21 41 9 32 -19
-6 -21 -5 -21 12 -5 17 17 17 18 -2 40 l-19 23 21 -17 c28 -24 33 -23 28 10
-3 19 -2 23 5 12 5 -8 7 -18 5 -22z m116 22 c0 -5 -4 -10 -10 -10 -5 0 -10 5
-10 10 0 6 5 10 10 10 6 0 10 -4 10 -10z m1243 -12 c-17 -19 -38 -24 -47 -9
-4 5 4 7 16 5 13 -2 17 -1 9 2 -15 7 0 21 24 21 13 0 12 -3 -2 -19z m-1166 6
c-3 -3 -12 -4 -19 -1 -8 3 -5 6 6 6 11 1 17 -2 13 -5z m-103 -12 c3 -5 -1 -9
-9 -9 -8 0 -12 4 -9 9 3 4 7 8 9 8 2 0 6 -4 9 -8z m323 -14 c-3 -8 -6 -5 -6 6
-1 11 2 17 5 13 3 -3 4 -12 1 -19z m866 3 c3 -14 0 -17 -14 -14 -22 6 -25 19
-6 26 6 3 13 6 13 6 1 1 4 -7 7 -18z m-826 -6 c0 -8 -4 -12 -9 -9 -5 3 -6 10
-3 15 9 13 12 11 12 -6z m720 -7 c25 -24 29 -43 11 -54 -7 -5 -8 -3 -3 5 4 8
-4 24 -21 42 -32 34 -22 40 13 7z m236 8 c4 -11 1 -13 -11 -9 -15 6 -16 5 -2
-12 14 -17 14 -17 -6 -5 -17 10 -19 16 -10 26 15 17 23 17 29 0z m-313 -11 c7
-9 21 -13 31 -10 14 5 16 1 12 -14 -3 -13 0 -23 11 -27 9 -3 14 -10 11 -14 -3
-5 0 -12 6 -16 8 -4 9 -3 5 4 -4 7 -2 12 3 12 6 0 10 -10 9 -22 -1 -13 1 -32
5 -43 5 -16 -3 -25 -43 -47 -28 -16 -52 -28 -54 -28 -2 0 -9 14 -16 30 -7 17
-16 30 -21 30 -5 0 -9 6 -9 14 0 7 -16 34 -36 60 -20 26 -34 49 -32 52 6 6 81
32 94 33 6 1 17 -6 24 -14z m-603 -21 c3 -9 -3 -23 -15 -34 -18 -17 -21 -17
-26 -3 -4 9 -4 18 -1 21 3 3 5 0 5 -6 0 -6 7 -9 15 -6 8 4 15 10 15 16 0 5 -4
6 -10 3 -5 -3 -10 1 -10 9 0 21 19 21 27 0z m-343 -10 c5 -14 4 -15 -9 -4 -17
14 -19 20 -6 20 5 0 12 -7 15 -16z m1156 12 c0 -3 -4 -8 -10 -11 -5 -3 -10 -1
-10 4 0 6 5 11 10 11 6 0 10 -2 10 -4z m70 0 c0 -2 -7 -7 -16 -10 -8 -3 -12
-2 -9 4 6 10 25 14 25 6z m-974 -28 c4 -6 3 -8 -4 -4 -5 3 -13 0 -15 -6 -3 -8
-6 -6 -6 5 -1 19 14 23 25 5z m849 2 c3 -5 -7 -16 -23 -24 -23 -12 -29 -12
-29 -1 0 7 6 11 14 8 7 -3 16 2 19 11 7 18 11 20 19 6z m-254 -22 c7 -13 18
-29 26 -36 12 -13 18 -32 9 -32 -2 0 -15 17 -27 38 -13 20 -28 40 -33 44 -7 5
-7 8 1 8 7 0 18 -10 24 -22z m-498 -3 c-3 -9 -8 -14 -10 -11 -3 3 -2 9 2 15 9
16 15 13 8 -4z m-616 -17 c-3 -8 -6 -5 -6 6 -1 11 2 17 5 13 3 -3 4 -12 1 -19z
m1093 -4 c0 -8 4 -14 9 -14 5 0 12 -8 15 -17 6 -15 5 -15 -13 1 -14 13 -20 14
-23 4 -3 -7 -5 1 -4 19 1 30 16 37 16 7z m-718 -47 c-4 -9 -52 43 -52 57 0 5
13 -4 28 -20 15 -16 26 -33 24 -37z m249 30 c-15 -15 -14 -30 1 -21 7 5 8 3 3
-5 -14 -24 -25 4 -13 32 7 14 15 22 17 16 2 -6 -2 -16 -8 -22z m-41 0 c0 -7
-4 -6 -10 3 -8 12 -10 12 -10 1 0 -8 -3 -12 -6 -8 -9 9 6 28 17 22 5 -4 9 -12
9 -18z m787 17 c-3 -3 -12 -4 -19 -1 -8 3 -5 6 6 6 11 1 17 -2 13 -5z m-1204
-24 c3 -11 1 -20 -4 -20 -5 0 -9 9 -9 20 0 11 2 20 4 20 2 0 6 -9 9 -20z m727
10 c8 -5 11 -10 5 -10 -5 0 -17 5 -25 10 -8 5 -10 10 -5 10 6 0 17 -5 25 -10z
m90 0 c-13 -9 -13 -10 0 -10 9 -1 5 -6 -10 -15 l-25 -14 25 -1 c14 -1 19 -4
12 -7 -7 -3 -20 -2 -30 2 -16 6 -15 8 2 21 20 14 20 14 0 15 -18 0 -18 1 1 9
27 12 43 12 25 0z m-741 -9 c9 -6 10 -11 2 -15 -13 -8 -31 1 -31 15 0 11 11
11 29 0z m144 -52 c-29 -27 -52 -52 -53 -54 0 -3 0 -9 0 -15 0 -5 -9 -10 -20
-10 -11 0 -20 5 -20 10 0 6 6 10 13 8 7 -2 12 2 12 7 0 6 -4 9 -8 7 -5 -1 -6
2 -3 7 4 5 0 12 -6 14 -7 3 1 4 17 3 17 -2 24 -1 18 1 -7 2 -13 9 -13 14 0 6
8 5 20 -1 18 -10 31 2 13 13 -5 2 -2 2 5 0 7 -1 25 8 40 22 50 47 37 25 -15
-26z m148 28 c-10 -9 -11 -8 -5 6 3 10 9 15 12 12 3 -3 0 -11 -7 -18z m294 13
c3 -6 -1 -7 -9 -4 -18 7 -21 14 -7 14 6 0 13 -4 16 -10z m-251 -9 c3 -5 -2
-15 -12 -22 -15 -12 -16 -12 -5 2 7 9 10 19 6 22 -3 4 -4 7 0 7 3 0 8 -4 11
-9z m-74 -23 c0 -6 -6 -5 -15 2 -10 9 -15 9 -15 1 0 -6 -5 -11 -11 -11 -8 0
-8 4 1 14 12 16 40 11 40 -6z m-453 6 c-3 -3 -12 -4 -19 -1 -8 3 -5 6 6 6 11
1 17 -2 13 -5z m705 -67 c20 -39 42 -92 49 -117 7 -25 22 -53 33 -63 14 -11
16 -15 5 -12 -11 4 -18 0 -21 -12 -5 -16 -136 -98 -145 -90 -2 2 2 18 8 36 11
32 9 90 -7 249 -5 50 -4 66 7 73 26 16 34 9 71 -64z m-524 32 c-10 -7 -10 -9
2 -9 11 -1 11 -3 -3 -11 -20 -12 -30 -7 -33 16 -1 9 4 11 14 8 10 -4 13 -2 8
5 -5 8 -2 10 9 5 13 -5 14 -7 3 -14z m-164 -15 c7 -19 -1 -18 -26 5 l-20 20
20 -6 c11 -3 23 -11 26 -19z m216 22 c0 -2 -7 -7 -16 -10 -8 -3 -12 -2 -9 4 6
10 25 14 25 6z m190 -23 c-12 -16 -24 -27 -26 -26 -2 2 -19 -13 -38 -32 -20
-19 -39 -35 -43 -35 -4 0 10 18 32 40 21 21 42 37 47 34 4 -3 8 -1 8 5 0 10
27 41 36 41 3 0 -4 -12 -16 -27z m111 13 c5 3 9 1 9 -4 0 -12 -26 -23 -33 -15
-3 3 -3 12 1 21 4 10 7 12 10 4 2 -7 8 -10 13 -6z m747 -43 c-3 -46 -5 -49
-53 -75 -27 -15 -53 -28 -58 -28 -4 0 -6 21 -5 47 3 44 6 48 48 74 65 39 72
38 68 -18z m-918 22 c0 -3 -9 -15 -20 -27 -22 -24 -26 -18 -8 12 12 19 28 27
28 15z m390 -20 c-14 -17 -30 -20 -30 -4 0 5 5 7 10 4 6 -3 13 1 16 10 4 9 9
14 12 11 3 -3 -1 -12 -8 -21z m-692 -6 c3 -12 2 -12 -6 0 -6 8 -15 10 -22 6
-9 -5 -11 -4 -6 4 10 15 28 10 34 -10z m72 11 c8 -5 11 -10 5 -10 -5 0 -17 5
-25 10 -8 5 -10 10 -5 10 6 0 17 -5 25 -10z m361 -4 c-9 -11 -9 -15 1 -19 8
-2 9 -8 4 -13 -5 -5 -11 -4 -13 4 -3 6 -12 12 -21 12 -12 1 -10 5 8 15 32 18
35 18 21 1z m35 -11 c-14 -14 -16 -14 -16 -2 0 9 6 17 13 20 19 7 21 -1 3 -18z
m-101 -26 c11 -16 1 -19 -13 -3 -7 8 -8 14 -3 14 5 0 13 -5 16 -11z m-15 -25
c0 -3 -4 -2 -10 1 -5 3 -10 0 -11 -7 0 -9 -2 -10 -5 -1 -3 7 -13 9 -22 6 -14
-6 -15 -5 -2 9 11 11 20 13 33 7 9 -6 17 -12 17 -15z m53 11 c-3 -9 -8 -14
-10 -11 -3 3 -2 9 2 15 9 16 15 13 8 -4z m-188 -5 c3 -5 1 -10 -4 -10 -6 0
-11 5 -11 10 0 6 2 10 4 10 3 0 8 -4 11 -10z m229 -5 c-4 -8 -10 -15 -15 -15
-4 0 -6 7 -3 15 4 8 10 15 15 15 4 0 6 -7 3 -15z m270 -10 c-7 -16 -24 -21
-24 -6 0 8 7 13 27 20 1 1 0 -6 -3 -14z m123 1 c0 -8 -6 -12 -14 -9 -19 7 -16
-7 5 -23 16 -13 16 -14 -2 -7 -15 5 -17 3 -11 -8 5 -8 4 -11 0 -6 -16 14 -15
42 2 55 21 15 20 15 20 -2z m-57 -26 c0 -19 -11 -26 -23 -14 -8 8 3 34 14 34
5 0 9 -9 9 -20z m90 -4 c0 -3 -4 -8 -10 -11 -5 -3 -10 -1 -10 4 0 6 5 11 10
11 6 0 10 -2 10 -4z m-146 -42 c3 -8 2 -12 -4 -9 -6 3 -10 10 -10 16 0 14 7
11 14 -7z m86 1 c0 -2 -10 -9 -22 -15 -22 -11 -22 -10 -4 4 21 17 26 19 26 11z
m97 -22 c1 -22 -1 -24 -8 -10 -6 9 -7 22 -4 27 9 14 10 13 12 -17z m-150 2 c0
-8 -4 -12 -9 -9 -4 3 -8 9 -8 15 0 5 4 9 8 9 5 0 9 -7 9 -15z m170 -7 c-3 -8
-6 -5 -6 6 -1 11 2 17 5 13 3 -3 4 -12 1 -19z m-1056 -1 c-6 -8 -7 -18 -3 -22
4 -5 2 -5 -5 -1 -14 8 -6 36 9 36 7 0 6 -5 -1 -13z m230 -29 c15 -29 7 -61
-19 -74 -33 -17 -63 -6 -76 28 -6 15 -15 28 -20 28 -11 0 34 35 54 42 23 7 50
-3 61 -24z m757 12 c-11 -17 -10 -22 1 -29 8 -6 1 -8 -21 -7 -19 0 -35 6 -35
12 0 6 10 10 21 8 12 -3 15 -2 9 2 -7 3 -13 10 -13 15 0 6 4 8 9 4 5 -3 12 -1
16 5 3 5 10 10 16 10 5 0 4 -9 -3 -20z m79 -32 c-3 -7 -5 -2 -5 12 0 14 2 19
5 13 2 -7 2 -19 0 -25z m-178 -13 c-31 -24 -35 -31 -42 -98 -4 -40 -8 -82 -8
-95 -1 -13 -3 -21 -6 -18 -3 3 -18 -12 -34 -33 -15 -22 -41 -47 -58 -57 -27
-16 -28 -19 -13 -30 20 -16 66 -19 57 -4 -4 6 -11 7 -17 4 -7 -4 -8 -2 -4 4 8
13 32 6 40 -13 3 -9 -8 -14 -39 -17 -24 -1 -41 0 -39 4 8 13 -30 26 -53 17
-13 -5 -34 -4 -53 2 -23 9 -30 17 -30 38 0 15 -6 50 -14 79 -7 29 -10 52 -7
52 4 0 65 34 136 76 72 42 135 77 141 78 6 1 22 9 35 18 39 27 46 20 8 -7z
m-814 5 c3 -5 1 -10 -4 -10 -6 0 -11 5 -11 10 0 6 2 10 4 10 3 0 8 -4 11 -10z
m357 -121 c-4 -4 -28 -9 -53 -11 -43 -5 -46 -3 -67 29 l-23 34 23 28 23 28 52
-51 c29 -28 49 -53 45 -57z m468 91 c0 -5 -5 -10 -11 -10 -5 0 -7 5 -4 10 3 6
8 10 11 10 2 0 4 -4 4 -10z m11 -30 c-13 -11 -31 -20 -39 -20 -9 0 -1 9 18 19
45 25 51 25 21 1z m5826 14 c-3 -3 -12 -4 -19 -1 -8 3 -5 6 6 6 11 1 17 -2 13
-5z m50 -10 c-3 -3 -12 -4 -19 -1 -8 3 -5 6 6 6 11 1 17 -2 13 -5z m-6241 -60
c1 -9 0 -13 -3 -11 -3 3 -14 -3 -26 -13 -11 -11 -23 -18 -25 -15 -3 2 6 13 19
24 17 14 20 20 9 21 -13 0 -13 1 0 10 16 10 23 6 26 -16z m634 -42 c0 -7 -4
-11 -9 -8 -5 4 -12 0 -14 -6 -4 -9 -6 -10 -6 -1 -1 6 3 14 9 18 5 3 7 13 4 23
-5 14 -4 15 5 2 6 -8 11 -21 11 -28z m5700 24 c0 -3 -4 -8 -10 -11 -5 -3 -10
-1 -10 4 0 6 5 11 10 11 6 0 10 -2 10 -4z m-5683 -48 c-3 -7 -5 -2 -5 12 0 14
2 19 5 13 2 -7 2 -19 0 -25z m-954 -98 c-4 -4 -33 -17 -63 -28 l-55 -20 -17
23 c-13 18 -69 55 -82 55 -1 0 -2 -9 -2 -20 0 -15 5 -19 21 -14 20 6 20 6 0
-9 -11 -8 -22 -12 -25 -8 -3 4 -15 7 -28 7 -16 0 -21 -5 -17 -16 5 -11 3 -12
-6 -3 -14 14 -3 34 15 27 13 -5 44 24 37 35 -5 6 82 68 113 80 15 6 30 -4 69
-47 27 -30 45 -58 40 -62z m807 101 c-5 -11 -15 -23 -21 -27 -6 -3 -3 5 6 20
20 30 30 35 15 7z m5931 -8 c13 -17 13 -17 -6 -3 -11 8 -22 16 -24 17 -2 2 0
3 6 3 6 0 17 -8 24 -17z m-6551 -13 c0 -5 -4 -10 -10 -10 -5 0 -10 5 -10 10 0
6 5 10 10 10 6 0 10 -4 10 -10z m107 -5 c0 -8 -4 -12 -9 -9 -5 3 -6 10 -3 15
9 13 12 11 12 -6z m578 -4 c-3 -6 -16 -16 -28 -22 -21 -11 -21 -10 2 15 23 25
40 29 26 7z m5841 4 c9 -8 11 -15 6 -15 -5 0 -15 7 -22 15 -7 8 -9 15 -6 15 4
0 14 -7 22 -15z m-5756 -44 c0 -13 -2 -13 -9 -2 -7 11 -9 11 -13 0 -3 -8 -5 1
-5 20 0 30 2 32 14 15 7 -10 13 -25 13 -33z m-671 -10 c0 -12 -2 -11 -9 4 -8
18 -9 18 -10 -5 -1 -23 -2 -23 -9 -5 -5 11 -6 26 -3 33 6 17 32 -5 31 -27z
m323 13 c-12 -44 -13 -45 -29 -32 -14 11 -15 10 -8 -12 7 -22 6 -23 -9 -11
-19 16 -4 43 20 34 8 -3 14 0 14 6 0 6 -4 11 -10 11 -5 0 -10 4 -10 9 0 5 8 8
18 7 9 -2 16 -7 14 -12z m365 -6 c-3 -8 -6 -5 -6 6 -1 11 2 17 5 13 3 -3 4
-12 1 -19z m-288 3 c9 -6 10 -11 2 -15 -6 -4 -11 -3 -11 3 0 5 -8 12 -17 14
-13 3 -14 5 -3 6 8 0 21 -3 29 -8z m190 -45 c-9 -8 -10 -7 -5 7 3 10 7 24 7
30 1 7 3 4 6 -7 3 -10 -1 -23 -8 -30z m105 -19 c4 -19 3 -26 -4 -22 -5 3 -11
16 -11 28 -1 17 -3 15 -9 -8 -6 -23 -8 -25 -9 -8 -1 29 10 56 19 46 4 -4 10
-21 14 -36z m-907 -10 c7 -27 26 -58 48 -79 32 -31 35 -37 26 -62 -14 -34 -94
-120 -148 -157 -40 -28 -44 -29 -75 -15 -18 8 -46 26 -62 40 -16 14 -32 23
-37 21 -4 -3 -11 0 -15 6 -4 8 -3 9 4 5 7 -4 12 -1 12 9 0 9 -3 14 -7 12 -5
-3 -9 8 -9 25 -1 17 -7 34 -15 39 -8 5 -9 9 -3 9 6 0 12 21 13 47 1 26 3 49 6
51 4 4 235 90 245 91 3 1 11 -19 17 -42z m472 20 c8 -11 5 -14 -19 -14 -26 0
-27 2 -12 13 9 8 18 14 18 14 1 0 7 -6 13 -13z m299 -12 c-3 -3 -9 2 -12 12
-6 14 -5 15 5 6 7 -7 10 -15 7 -18z m-525 -28 c-9 -15 -21 4 -15 25 5 21 6 21
12 2 4 -10 5 -22 3 -27z m292 34 c3 -5 2 -12 -3 -15 -5 -3 -9 1 -9 9 0 17 3
19 12 6z m-905 -26 c-12 -15 -40 -9 -40 7 0 6 6 5 15 -2 14 -12 19 -7 16 13
-1 5 3 6 9 2 8 -5 8 -11 0 -20z m60 1 c0 -2 -7 -7 -16 -10 -8 -3 -12 -2 -9 4
6 10 25 14 25 6z m973 -31 c-3 -9 -8 -14 -10 -11 -3 3 -2 9 2 15 9 16 15 13 8
-4z m-1035 -4 c9 -5 4 -8 -16 -7 -17 1 -28 4 -25 9 6 9 25 9 41 -2z m678 -5
c16 5 16 4 4 -5 -12 -9 -13 -11 -1 -11 8 0 12 -2 10 -5 -9 -9 -48 7 -54 22 -4
13 -3 13 9 4 7 -6 22 -9 32 -5z m161 -2 c-3 -3 -12 -4 -19 -1 -8 3 -5 6 6 6
11 1 17 -2 13 -5z m453 -14 c0 -5 -5 -10 -11 -10 -5 0 -7 5 -4 10 3 6 8 10 11
10 2 0 4 -4 4 -10z m-1360 -32 c0 -5 -5 -6 -12 -2 -8 5 -9 0 -5 -15 7 -27 -1
-51 -15 -51 -7 0 -6 5 1 14 8 10 8 21 1 41 -12 32 -4 51 16 34 8 -6 14 -16 14
-21z m140 10 c-11 -12 -22 -19 -25 -16 -7 7 23 38 36 38 5 0 1 -10 -11 -22z
m723 7 c-3 -9 -8 -14 -10 -11 -3 3 -2 9 2 15 9 16 15 13 8 -4z m223 0 c-8 -21
11 -19 23 3 10 16 10 16 11 0 0 -10 6 -18 14 -18 8 0 18 -4 21 -10 3 -6 -1 -7
-10 -4 -8 4 -22 1 -30 -6 -12 -10 -15 -10 -15 0 0 7 -6 10 -14 7 -9 -4 -12 2
-11 16 3 26 3 27 11 27 3 0 4 -7 0 -15z m-309 -21 c-3 -3 -12 -4 -19 -1 -8 3
-5 6 6 6 11 1 17 -2 13 -5z m-687 -13 c0 -13 -50 -64 -57 -57 -3 3 7 19 23 35
33 33 34 34 34 22z m1110 -11 c8 -5 11 -10 5 -10 -5 0 -17 5 -25 10 -8 5 -10
10 -5 10 6 0 17 -5 25 -10z m5020 -37 c-11 -17 -11 -17 -6 0 3 10 6 24 7 30 0
9 2 9 5 0 3 -7 0 -20 -6 -30z m-5150 17 c8 -5 11 -10 5 -10 -5 0 -17 5 -25 10
-8 5 -10 10 -5 10 6 0 17 -5 25 -10z m330 0 c0 -5 -5 -10 -11 -10 -5 0 -7 5
-4 10 3 6 8 10 11 10 2 0 4 -4 4 -10z m-363 -47 c-3 -10 -5 -4 -5 12 0 17 2
24 5 18 2 -7 2 -21 0 -30z m293 27 c-8 -5 -26 -9 -40 -9 -23 1 -23 2 5 9 43
11 52 11 35 0z m110 -15 c11 -13 10 -14 -4 -9 -11 4 -15 2 -13 -7 2 -8 2 -11
0 -6 -3 4 -11 7 -19 7 -9 0 -13 -4 -9 -10 3 -5 -7 -5 -25 1 -16 6 -33 15 -36
21 -4 6 2 5 14 -1 25 -13 45 -14 38 -2 -4 5 4 7 16 3 14 -3 19 -2 14 6 -11 18
9 14 24 -3z m-360 -5 c0 -5 -7 -7 -15 -4 -8 4 -15 8 -15 10 0 2 7 4 15 4 8 0
15 -4 15 -10z m134 -1 c-9 -15 28 -40 50 -34 18 5 18 4 4 -5 -19 -12 -73 4
-63 19 3 6 -3 14 -12 20 -16 9 -16 10 4 8 12 0 20 -4 17 -8z m-1282 -13 c7 4
8 2 4 -5 -4 -6 -12 -8 -18 -5 -6 4 -8 -1 -3 -15 3 -11 2 -21 -3 -21 -5 0 -8
10 -7 23 4 37 6 43 12 29 2 -6 10 -9 15 -6z m1248 5 c3 -1 -1 -5 -9 -10 -15
-10 -41 -4 -41 8 0 6 23 7 50 2z m75 -9 c-3 -3 -11 0 -18 7 -9 10 -8 11 6 5
10 -3 15 -9 12 -12z m63 -18 c2 -1 -5 -5 -15 -8 -9 -4 -14 -4 -10 0 4 4 1 14
-6 23 -11 14 -10 15 8 1 11 -8 21 -15 23 -16z m233 -1 c27 -16 49 -31 49 -35
0 -16 -19 -16 -68 -2 -37 11 -52 21 -52 33 0 17 8 31 18 31 2 0 26 -12 53 -27z
m-1501 7 c0 -5 -10 -10 -22 -10 -19 0 -20 2 -8 10 19 13 30 13 30 0z m1144 -8
c5 -8 -50 -10 -57 -2 -3 3 8 6 24 7 15 1 30 -1 33 -5z m-1212 -29 c-3 -16 -7
-22 -10 -15 -4 13 4 42 11 42 2 0 2 -12 -1 -27z m1067 -23 c0 -10 -3 -8 -9 5
-12 27 -12 43 0 25 5 -8 9 -22 9 -30z m-1052 -12 c-3 -7 -5 -2 -5 12 0 14 2
19 5 13 2 -7 2 -19 0 -25z m1542 12 c23 -6 41 -15 41 -20 0 -4 -23 -42 -50
-84 -62 -92 -144 -166 -226 -203 -84 -38 -94 -65 -47 -121 46 -56 171 -148
268 -199 137 -71 218 -92 412 -108 150 -13 313 -37 335 -51 4 -3 -1 -22 -12
-42 -23 -43 -25 -52 -7 -52 7 0 34 -13 60 -30 59 -37 61 -65 12 -159 -67 -127
-112 -154 -182 -111 l-33 19 -24 -22 c-13 -13 -36 -29 -49 -36 -23 -12 -27
-11 -55 20 l-30 34 7 -42 c5 -25 2 -79 -6 -134 -12 -82 -17 -98 -45 -127 -18
-18 -38 -30 -45 -28 -7 3 -13 1 -13 -4 0 -6 -7 -10 -15 -10 -8 0 -15 5 -15 11
0 5 -4 7 -10 4 -5 -3 -18 -1 -27 4 -16 9 -14 10 9 11 37 0 52 31 51 105 0 66
-14 98 -82 200 -23 33 -41 66 -41 73 0 40 -42 90 -106 128 -86 50 -236 197
-337 332 -42 56 -81 111 -87 122 -6 12 -16 17 -22 14 -6 -4 -8 -3 -5 4 11 17
-26 71 -57 82 -29 10 -29 10 -10 -11 l18 -20 -54 6 -55 6 45 -17 c25 -9 53
-22 64 -29 16 -12 8 -14 -56 -14 -41 0 -87 -5 -103 -11 -15 -6 -29 -9 -31 -7
-7 7 36 141 47 148 15 9 34 2 74 -24 l30 -21 -22 25 c-12 13 -22 29 -22 34 0
6 -14 14 -31 19 -23 7 -29 13 -24 25 3 9 8 23 11 31 3 12 23 15 91 17 179 3
311 85 374 230 13 30 28 51 35 48 6 -2 30 -9 52 -15z m-1397 -2 c-9 -9 -15 -9
-24 0 -9 9 -7 12 12 12 19 0 21 -3 12 -12z m-87 -38 c-3 -5 -13 -10 -21 -10
-8 0 -14 5 -14 10 0 6 9 10 21 10 11 0 17 -4 14 -10z m1618 -8 c26 -18 47 -38
75 -74 12 -15 9 -25 -23 -78 -66 -109 -148 -171 -256 -194 -70 -14 -162 -8
-182 13 -10 11 -8 12 9 7 29 -9 119 10 170 36 49 24 128 99 150 141 20 38 11
34 -36 -17 -62 -67 -176 -121 -280 -132 -29 -3 -20 4 49 37 98 49 205 144 252
225 17 30 34 54 37 54 4 0 19 -8 35 -18z m-365 -6 c-7 -8 -15 -12 -17 -11 -5
6 10 25 20 25 5 0 4 -6 -3 -14z m35 -1 c-3 -9 -8 -14 -10 -11 -3 3 -2 9 2 15
9 16 15 13 8 -4z m-23 -29 c0 -2 -7 -7 -16 -10 -8 -3 -12 -2 -9 4 6 10 25 14
25 6z m-60 -46 c-8 -5 -19 -10 -25 -10 -5 0 -3 5 5 10 8 5 20 10 25 10 6 0 3
-5 -5 -10z m-65 -10 c8 -13 -15 -13 -35 0 -12 8 -11 10 7 10 12 0 25 -4 28
-10z m5015 -120 c0 -5 -4 -10 -10 -10 -5 0 -10 5 -10 10 0 6 5 10 10 10 6 0
10 -4 10 -10z m-267 -63 c3 -7 -3 -13 -14 -14 -15 -1 -16 1 -6 12 15 18 14 18
20 2z m24 -42 c4 -4 3 -5 -3 -2 -7 4 -15 0 -18 -9 -4 -12 -1 -14 13 -9 32 10
33 -12 2 -34 -22 -16 -35 -19 -53 -12 -24 9 -54 -9 -40 -24 4 -4 -4 -4 -17 0
-18 5 -22 4 -16 -5 12 -19 -184 -7 -225 14 -17 8 -39 13 -48 10 -13 -5 -14 -4
-4 4 11 7 11 10 -2 15 -9 4 -16 10 -16 15 0 5 24 3 53 -5 76 -21 220 -13 276
14 24 12 49 19 57 16 10 -3 12 0 8 10 -6 16 19 18 33 2z m-603 -159 c13 -91
20 -164 19 -211 0 -36 2 -43 7 -25 6 21 8 18 15 -25 5 -34 4 -50 -4 -53 -6 -2
-11 -8 -11 -13 0 -4 7 -6 15 -3 20 8 19 21 -11 211 -22 133 -24 166 -14 176
10 10 11 6 6 -16 -5 -21 -4 -27 5 -21 8 5 10 2 6 -8 -3 -9 0 -24 8 -34 11 -17
60 -161 69 -203 2 -9 6 -24 11 -33 4 -10 8 -29 9 -42 0 -13 5 -22 9 -19 4 2 5
-8 2 -24 -5 -23 -4 -25 5 -11 8 13 2 45 -26 140 -58 195 -62 212 -53 233 9 20
9 20 8 0 -3 -44 1 -60 10 -47 6 10 10 9 14 -7 3 -12 1 -19 -4 -15 -5 3 -6 -2
-3 -10 3 -9 11 -13 16 -10 6 4 7 -2 3 -16 -5 -15 -4 -20 4 -16 7 5 8 1 4 -10
-4 -12 -3 -15 6 -10 8 5 12 3 10 -5 -3 -28 1 -40 13 -33 8 5 9 2 5 -9 -8 -21
12 -69 26 -60 5 3 6 -3 3 -15 -4 -12 -2 -23 5 -28 8 -5 9 -3 4 6 -5 8 -4 11 3
6 6 -4 9 -13 5 -21 -3 -8 0 -15 7 -15 6 0 9 -4 6 -9 -3 -5 0 -11 7 -14 18 -7
52 -68 35 -65 -9 2 -12 -5 -10 -21 4 -28 52 -122 67 -133 6 -4 6 -8 2 -8 -5 0
-1 -7 7 -16 9 -8 16 -22 16 -30 0 -8 4 -13 8 -10 5 3 16 -8 26 -25 12 -21 25
-29 44 -29 15 0 38 -7 51 -16 18 -13 22 -23 17 -46 -5 -24 -2 -30 19 -38 34
-13 39 -45 21 -124 -9 -37 -16 -89 -16 -115 0 -26 -5 -52 -11 -58 -15 -15 -39
-5 -39 16 -1 9 -15 61 -33 116 l-33 100 -43 0 c-35 0 -47 5 -67 30 -13 17 -28
34 -32 38 -4 4 -43 31 -87 59 -96 62 -220 184 -257 254 -15 27 -30 69 -34 92
l-7 42 39 -3 39 -2 3 190 c1 105 5 197 8 205 8 22 41 -35 48 -84z m62 47 c-10
-10 -19 5 -10 18 6 11 8 11 12 0 2 -7 1 -15 -2 -18z m-2262 -57 c48 -36 82
-51 217 -90 95 -28 146 -58 169 -99 13 -24 13 -30 0 -54 -19 -33 -40 -41 -40
-15 0 37 -24 45 -112 38 -80 -7 -83 -6 -93 16 -7 16 -31 30 -81 48 -38 15 -90
40 -115 57 -47 33 -95 80 -88 87 14 13 76 46 86 46 7 0 33 -15 57 -34z m-187
-88 c-3 -8 -6 -5 -6 6 -1 11 2 17 5 13 3 -3 4 -12 1 -19z m3298 -142 c31 -19
52 -35 45 -38 -6 -2 3 -8 20 -15 17 -6 28 -7 24 -2 -3 6 20 -3 53 -19 32 -16
79 -37 106 -47 26 -10 47 -21 47 -25 0 -6 13 -9 43 -10 6 -1 25 2 40 6 29 7
67 -17 67 -41 0 -17 23 -25 74 -25 28 0 49 -6 62 -19 25 -25 47 -57 45 -66 -2
-4 3 -11 9 -15 7 -4 13 -19 13 -33 1 -14 5 -23 9 -21 3 2 5 -12 5 -32 -3 -54
-29 -67 -59 -29 -34 45 -68 74 -116 102 l-44 26 -25 -27 c-31 -34 -78 -34 -77
0 0 20 -6 22 -93 28 -188 13 -397 70 -556 150 -82 42 -95 61 -42 62 56 1 169
38 200 66 10 10 25 16 32 14 7 -3 12 -2 10 2 -3 11 26 41 40 42 7 0 37 -15 68
-34z"/>
<path d="M5149 6736 l-15 -33 66 -12 c37 -7 81 -21 99 -32 l31 -19 -34 -69
-35 -69 57 -28 c82 -40 266 -227 308 -315 42 -85 64 -188 65 -301 1 -92 1 -93
16 -58 8 19 22 71 30 115 32 168 -7 368 -103 522 -87 140 -258 271 -413 317
-30 9 -55 16 -55 16 -1 -1 -8 -16 -17 -34z"/>
<path d="M4661 6699 c-186 -101 -319 -270 -372 -469 -46 -173 -20 -399 62
-535 19 -31 28 -41 25 -25 -3 14 -11 67 -18 118 -21 171 13 325 98 445 24 34
59 85 78 114 31 45 67 78 130 118 13 9 9 21 -33 90 l-49 79 30 19 c16 10 52
23 79 29 51 12 58 18 36 36 -9 8 -27 3 -66 -19z"/>
<path d="M1176 6514 c-8 -21 -12 -18 56 -38 31 -9 59 -20 62 -25 3 -5 -5 -29
-19 -53 l-25 -45 38 -17 c20 -9 70 -50 110 -90 64 -65 76 -73 99 -67 43 11 51
36 24 65 -15 16 -22 32 -18 45 5 22 -50 95 -111 143 -39 32 -138 82 -183 93
-20 5 -28 2 -33 -11z"/>
<path d="M2203 6511 c-11 -17 -8 -20 25 -26 20 -4 49 -13 65 -21 30 -16 30
-35 0 -83 -14 -22 -14 -25 3 -38 10 -7 24 -13 32 -13 16 0 154 -140 188 -190
31 -46 54 -139 55 -220 l1 -65 16 35 c12 26 16 65 16 145 0 95 -4 119 -27 178
-42 108 -100 181 -194 244 -46 31 -139 73 -161 73 -4 0 -13 -9 -19 -19z"/>
<path d="M3171 6512 c-10 -18 -6 -21 38 -32 27 -6 57 -17 66 -24 16 -12 16
-15 -4 -54 -11 -23 -21 -44 -21 -46 0 -3 19 -15 41 -27 47 -24 175 -154 202
-204 26 -51 47 -142 48 -210 l1 -60 15 45 c24 68 21 220 -6 293 -48 135 -136
237 -255 296 -88 43 -112 47 -125 23z"/>
<path d="M4141 6512 c-9 -17 -5 -21 47 -35 49 -14 59 -14 71 -2 13 13 10 16
-20 29 -66 28 -86 29 -98 8z"/>
<path d="M6136 6514 c-8 -21 -12 -18 56 -38 31 -9 59 -20 62 -25 3 -5 -5 -29
-19 -53 l-25 -45 38 -17 c59 -26 186 -161 217 -228 30 -65 50 -173 42 -227
l-5 -36 15 35 c21 48 29 204 13 271 -18 77 -74 180 -130 238 -47 49 -134 105
-200 128 -46 17 -57 16 -64 -3z"/>
<path d="M7076 6513 c-8 -20 -12 -17 57 -37 64 -19 70 -31 37 -81 -27 -40 -26
-44 17 -61 36 -15 137 -111 189 -179 38 -50 64 -144 65 -233 l0 -77 15 40 c8
22 18 76 21 120 14 199 -102 399 -282 485 -81 38 -111 44 -119 23z"/>
<path d="M8041 6511 c-10 -17 -5 -20 38 -31 27 -6 57 -17 66 -24 16 -12 16
-15 -5 -56 -21 -42 -21 -44 -4 -57 10 -7 24 -13 31 -13 19 0 171 -158 194
-202 28 -54 49 -143 50 -213 l1 -60 14 43 c36 117 26 240 -32 357 -60 123
-149 206 -272 254 -65 26 -69 26 -81 2z"/>
<path d="M9023 6511 c-12 -19 -10 -21 25 -27 37 -7 92 -30 92 -40 0 -2 -9 -22
-20 -44 -11 -22 -20 -41 -20 -44 0 -2 19 -14 43 -25 60 -29 197 -183 220 -249
10 -28 22 -90 26 -139 l7 -88 17 72 c9 40 17 90 17 111 0 180 -120 373 -280
450 -90 43 -112 47 -127 23z"/>
<path d="M829 6480 c-54 -29 -139 -109 -176 -168 -92 -143 -106 -324 -38 -478
13 -30 26 -54 28 -54 2 0 0 21 -4 48 -12 73 -10 162 5 217 15 59 48 126 70
144 8 7 27 32 40 56 14 24 42 53 61 65 19 12 35 23 35 25 0 2 -14 27 -32 55
-31 50 -32 53 -13 66 10 8 33 17 52 20 18 3 33 10 33 15 0 14 -21 10 -61 -11z"/>
<path d="M1865 6483 c-233 -126 -328 -407 -221 -655 9 -21 17 -38 19 -38 1 0
2 60 2 132 0 115 3 139 21 179 31 66 137 203 168 217 l27 12 -22 38 c-12 20
-29 45 -36 54 -13 14 -12 18 9 32 13 9 38 19 56 22 18 4 32 10 32 15 0 13 -21
10 -55 -8z"/>
<path d="M2809 6471 c-26 -16 -66 -48 -89 -70 -36 -34 -41 -44 -36 -69 5 -21
1 -36 -15 -57 l-23 -28 23 -18 c34 -28 57 -23 82 17 12 20 39 48 60 63 l38 28
-36 53 c-39 59 -38 62 35 82 23 7 42 16 42 20 0 16 -36 7 -81 -21z"/>
<path d="M3762 6459 c-79 -51 -118 -99 -114 -137 2 -17 -3 -34 -12 -42 -24
-19 -19 -49 10 -60 39 -15 54 -12 63 14 5 12 31 41 57 64 l47 40 -33 52 c-37
58 -36 62 37 82 23 7 40 15 37 20 -10 15 -29 8 -92 -33z"/>
<path d="M6735 6483 c-30 -15 -100 -69 -130 -100 -14 -14 -14 -17 0 -32 19
-22 19 -55 0 -71 -22 -19 -15 -54 12 -58 14 -2 26 4 34 20 13 25 79 88 92 88
10 0 -21 60 -45 87 -20 21 -20 21 4 37 13 9 38 19 56 22 18 4 32 10 32 15 0
13 -21 10 -55 -8z"/>
<path d="M7679 6471 c-26 -16 -66 -48 -89 -70 -36 -34 -41 -44 -36 -68 5 -21
1 -35 -14 -53 -25 -28 -25 -33 -2 -53 30 -27 58 -21 80 17 12 19 39 48 61 64
l40 29 -36 53 c-39 59 -38 62 35 82 23 7 42 16 42 20 0 16 -36 7 -81 -21z"/>
<path d="M8665 6471 c-71 -41 -148 -119 -141 -144 3 -11 -4 -32 -16 -48 -26
-35 -18 -56 24 -67 28 -8 35 -7 48 11 25 34 84 93 104 104 17 9 16 13 -18 61
l-37 51 23 15 c13 9 38 19 56 22 18 4 32 10 32 15 0 16 -24 9 -75 -20z"/>
<path d="M4031 5944 c0 -11 3 -14 6 -6 3 7 2 16 -1 19 -3 4 -6 -2 -5 -13z"/>
<path d="M1018 5933 c7 -3 16 -2 19 1 4 3 -2 6 -13 5 -11 0 -14 -3 -6 -6z"/>
<path d="M8858 5933 c7 -3 16 -2 19 1 4 3 -2 6 -13 5 -11 0 -14 -3 -6 -6z"/>
<path d="M6038 5923 c7 -3 16 -2 19 1 4 3 -2 6 -13 5 -11 0 -14 -3 -6 -6z"/>
<path d="M6865 5909 c-4 -6 -5 -12 -2 -15 2 -3 7 2 10 11 7 17 1 20 -8 4z"/>
<path d="M1054 5870 c-1 -30 3 -41 21 -50 12 -7 31 -10 41 -8 22 4 40 48 31
73 -6 15 -8 15 -23 1 -12 -13 -20 -14 -37 -4 -12 6 -24 15 -27 19 -3 4 -6 -10
-6 -31z"/>
<path d="M6013 5876 c0 -38 22 -66 53 -66 38 0 60 64 30 89 -11 9 -14 8 -12
-5 2 -23 -28 -26 -52 -4 -18 17 -19 17 -19 -14z"/>
<path d="M6885 5899 c-4 -6 -5 -12 -2 -15 2 -3 7 2 10 11 7 17 1 20 -8 4z"/>
<path d="M7096 5895 c-9 -26 -7 -32 5 -12 6 10 9 21 6 23 -2 3 -7 -2 -11 -11z"/>
<path d="M8909 5884 c-14 -38 -3 -62 31 -69 46 -10 65 14 49 62 -11 34 -13 36
-20 15 -5 -12 -12 -22 -16 -22 -17 0 -35 18 -29 29 4 6 5 11 1 11 -3 0 -10
-12 -16 -26z"/>
<path d="M8940 5900 c0 -5 5 -10 11 -10 5 0 7 5 4 10 -3 6 -8 10 -11 10 -2 0
-4 -4 -4 -10z"/>
<path d="M968 5893 c7 -3 16 -2 19 1 4 3 -2 6 -13 5 -11 0 -14 -3 -6 -6z"/>
<path d="M4085 5890 c3 -5 1 -11 -5 -15 -5 -3 -10 -3 -10 2 0 4 -11 9 -25 9
-21 2 -25 -2 -25 -27 0 -38 32 -56 66 -38 13 7 24 17 25 23 0 6 4 2 9 -9 8
-19 9 -19 9 2 1 12 -4 25 -9 28 -6 4 -8 10 -5 15 3 4 -4 10 -15 13 -11 3 -18
1 -15 -3z"/>
<path d="M5875 5884 c-19 -15 -19 -16 -1 -29 10 -8 34 -28 53 -45 33 -30 35
-31 59 -16 13 9 24 20 24 23 0 4 -5 2 -12 -5 -18 -18 -23 -15 -26 14 -2 31
-27 53 -60 54 -13 0 -20 4 -17 10 8 14 4 12 -20 -6z"/>
<path d="M6946 5885 c-3 -9 -3 -21 0 -27 3 -5 -2 -16 -12 -24 -18 -14 -17 -14
4 -4 18 9 23 8 28 -5 15 -38 74 -8 88 45 6 19 5 21 -3 10 -8 -11 -11 -12 -11
-2 0 8 -5 10 -12 5 -19 -11 -41 -10 -59 5 -14 11 -18 10 -23 -3z"/>
<path d="M8863 5885 c0 -8 4 -12 9 -9 5 3 6 10 3 15 -9 13 -12 11 -12 -6z"/>
<path d="M1244 5878 c-3 -5 -12 -7 -20 -4 -15 6 -25 -23 -22 -60 2 -20 4 -21
25 -7 32 21 121 13 141 -13 15 -20 15 -17 -5 34 -6 15 -5 16 13 2 17 -14 18
-13 7 1 -7 9 -9 20 -5 24 4 5 1 5 -5 1 -7 -4 -23 -2 -35 5 -34 19 -87 28 -94
17z"/>
<path d="M6204 5878 c-3 -5 -12 -7 -20 -4 -16 6 -15 6 -19 -46 -2 -37 -2 -37
22 -21 18 12 39 14 83 10 62 -5 78 6 45 33 -8 7 -12 17 -8 23 3 6 1 7 -5 3 -6
-3 -29 -2 -51 3 -26 6 -43 5 -47 -1z"/>
<path d="M9090 5878 c0 -6 -6 -8 -14 -5 -20 8 -32 -24 -27 -73 1 -6 11 -4 24
4 14 10 42 14 80 13 32 -2 62 2 67 8 12 14 -4 38 -27 41 -10 2 -37 7 -60 12
-28 6 -43 6 -43 0z m124 -34 c3 -8 2 -12 -4 -9 -6 3 -10 10 -10 16 0 14 7 11
14 -7z"/>
<path d="M7045 5820 c-3 -5 -2 -10 4 -10 5 0 13 5 16 10 3 6 2 10 -4 10 -5 0
-13 -4 -16 -10z"/>
<path d="M4095 5810 c3 -5 8 -10 11 -10 2 0 4 5 4 10 0 6 -5 10 -11 10 -5 0
-7 -4 -4 -10z"/>
<path d="M879 5779 c-25 -24 -30 -35 -24 -57 8 -35 14 -40 50 -48 44 -8 88 27
78 64 -7 31 -29 51 -58 52 l-20 1 20 9 c17 7 17 9 3 9 -10 1 -31 -13 -49 -30z
m34 -53 c4 -10 1 -13 -9 -9 -7 3 -14 9 -14 14 0 14 17 10 23 -5z"/>
<path d="M7139 5786 c-38 -33 -43 -58 -18 -89 29 -38 71 -36 99 3 20 29 21 32
6 55 -9 14 -27 27 -41 31 -14 3 -22 10 -19 15 8 14 1 10 -27 -15z m24 -60 c4
-10 1 -13 -9 -9 -7 3 -14 9 -14 14 0 14 17 10 23 -5z"/>
<path d="M9160 5800 c8 -5 20 -10 25 -10 6 0 3 5 -5 10 -8 5 -19 10 -25 10 -5
0 -3 -5 5 -10z"/>
<path d="M1246 5789 c4 -7 -25 -23 -36 -21 -13 2 -3 -55 12 -77 13 -18 23 -22
46 -19 24 3 29 1 25 -11 -2 -9 2 -6 9 6 11 18 16 20 33 11 17 -10 18 -9 8 4
-7 8 -9 19 -5 23 4 5 1 5 -5 1 -9 -5 -11 -2 -7 8 3 9 10 16 15 16 5 0 9 5 9
11 0 5 -4 8 -9 4 -8 -5 -27 31 -24 45 1 3 -16 5 -37 5 -21 0 -37 -3 -34 -6z
m22 -67 c2 -7 -2 -10 -12 -6 -9 3 -16 11 -16 16 0 13 23 5 28 -10z"/>
<path d="M3875 5792 c-54 -11 -75 -79 -32 -106 32 -20 71 -31 63 -17 -4 7 1
11 13 11 17 0 21 6 21 33 0 18 6 39 13 46 10 11 9 13 -6 8 -11 -4 -20 -1 -23
7 -7 18 -23 24 -49 18z m5 -67 c0 -9 -6 -12 -15 -9 -8 4 -15 10 -15 15 0 5 7
9 15 9 8 0 15 -7 15 -15z"/>
<path d="M6055 5790 c3 -5 8 -10 11 -10 2 0 4 5 4 10 0 6 -5 10 -11 10 -5 0
-7 -4 -4 -10z"/>
<path d="M6204 5793 c3 -3 -3 -13 -14 -22 -19 -16 -23 -30 -21 -64 1 -12 5
-16 14 -11 9 6 9 5 -1 -8 -11 -13 -6 -15 38 -15 27 0 50 4 50 9 0 5 4 7 9 4
13 -8 19 50 8 71 -14 25 -12 24 -52 33 -20 5 -34 6 -31 3z m24 -71 c2 -7 -2
-10 -12 -6 -9 3 -16 11 -16 16 0 13 23 5 28 -10z"/>
<path d="M6773 5777 c-15 -12 -21 -26 -19 -40 3 -12 5 -25 5 -29 2 -16 34 -38
55 -38 47 0 79 67 47 99 -10 10 -18 21 -16 23 2 2 -8 3 -23 3 -14 0 -36 -8
-49 -18z m40 -51 c4 -10 1 -13 -9 -9 -7 3 -14 9 -14 14 0 14 17 10 23 -5z"/>
<path d="M8719 5774 c-27 -29 -25 -68 7 -88 14 -10 33 -16 42 -14 10 2 24 -7
34 -22 10 -14 18 -20 18 -14 0 5 -5 15 -10 20 -7 7 -6 20 4 40 19 40 31 84 17
64 -9 -13 -11 -13 -11 3 0 9 -5 17 -11 17 -5 0 -8 3 -6 8 12 18 -65 6 -84 -14z
m44 -48 c4 -10 1 -13 -9 -9 -15 6 -19 23 -5 23 5 0 11 -7 14 -14z"/>
<path d="M4097 5783 c-4 -3 -7 -11 -7 -17 0 -6 5 -5 12 2 6 6 9 14 7 17 -3 3
-9 2 -12 -2z"/>
<path d="M6912 5770 c0 -14 2 -19 5 -12 2 6 2 18 0 25 -3 6 -5 1 -5 -13z"/>
<path d="M7057 5779 c7 -7 15 -10 18 -7 3 3 -2 9 -12 12 -14 6 -15 5 -6 -5z"/>
<path d="M9085 5781 c-12 -5 -27 -17 -35 -27 -13 -16 -13 -17 0 -9 13 8 13 7
1 -8 -11 -13 -11 -17 -1 -17 8 0 10 -3 7 -6 -12 -12 35 -44 64 -44 33 0 62 36
57 72 -2 16 1 22 12 20 18 -4 5 10 -13 15 -39 10 -75 11 -92 4z m29 -57 c4
-10 1 -14 -6 -12 -15 5 -23 28 -10 28 5 0 13 -7 16 -16z"/>
<path d="M5910 5760 c-13 -11 -27 -20 -33 -20 -5 0 -7 -7 -4 -14 4 -10 1 -13
-9 -9 -7 3 -14 9 -14 14 0 6 -9 5 -20 -1 -27 -15 -25 -22 11 -42 41 -24 55
-23 85 7 20 20 23 29 14 44 -7 14 -7 20 2 23 8 3 9 6 1 11 -6 4 -21 -2 -33
-13z"/>
<path d="M7086 5753 c-6 -14 -5 -15 5 -6 7 7 10 15 7 18 -3 3 -9 -2 -12 -12z"/>
<path d="M6354 5746 c-3 -8 -4 -25 -2 -38 3 -17 5 -13 9 15 5 38 2 47 -7 23z"/>
<path d="M4092 5730 c0 -14 2 -19 5 -12 2 6 2 18 0 25 -3 6 -5 1 -5 -13z"/>
<path d="M9240 5730 c0 -5 5 -10 11 -10 5 0 7 5 4 10 -3 6 -8 10 -11 10 -2 0
-4 -4 -4 -10z"/>
<path d="M6038 5723 c7 -3 16 -2 19 1 4 3 -2 6 -13 5 -11 0 -14 -3 -6 -6z"/>
<path d="M6331 5714 c0 -11 3 -14 6 -6 3 7 2 16 -1 19 -3 4 -6 -2 -5 -13z"/>
<path d="M6382 5700 c7 -11 17 -20 22 -20 5 0 1 9 -9 20 -10 11 -20 20 -22 20
-2 0 2 -9 9 -20z"/>
<path d="M6737 5706 c-4 -10 -3 -15 3 -11 6 3 10 2 10 -4 0 -5 -6 -12 -12 -14
-10 -4 -10 -6 -1 -6 18 -1 25 17 15 35 -8 15 -10 15 -15 0z"/>
<path d="M9230 5700 c6 -11 13 -20 16 -20 2 0 0 9 -6 20 -6 11 -13 20 -16 20
-2 0 0 -9 6 -20z"/>
<path d="M5993 5703 c9 -2 23 -2 30 0 6 3 -1 5 -18 5 -16 0 -22 -2 -12 -5z"/>
<path d="M7028 5703 c6 -2 18 -2 25 0 6 3 1 5 -13 5 -14 0 -19 -2 -12 -5z"/>
<path d="M990 5689 c0 -5 5 -7 10 -4 6 3 10 8 10 11 0 2 -4 4 -10 4 -5 0 -10
-5 -10 -11z"/>
<path d="M5810 5687 c0 -2 6 -10 14 -16 11 -9 16 -9 22 1 4 7 4 10 -1 6 -4 -4
-14 -3 -22 3 -7 6 -13 9 -13 6z"/>
<path d="M6365 5670 c3 -5 8 -10 11 -10 2 0 4 5 4 10 0 6 -5 10 -11 10 -5 0
-7 -4 -4 -10z"/>
<path d="M1435 5650 c-3 -5 -1 -10 4 -10 6 0 11 5 11 10 0 6 -2 10 -4 10 -3 0
-8 -4 -11 -10z"/>
<path d="M6820 5650 c-8 -5 -10 -10 -5 -10 6 0 17 5 25 10 8 5 11 10 5 10 -5
0 -17 -5 -25 -10z"/>
<path d="M7127 5649 c7 -7 15 -10 18 -7 3 3 -2 9 -12 12 -14 6 -15 5 -6 -5z"/>
<path d="M7304 5638 l-19 -23 23 19 c21 18 27 26 19 26 -2 0 -12 -10 -23 -22z"/>
<path d="M924 5642 c-8 -5 -7 -11 4 -22 14 -13 15 -12 9 4 -6 14 -4 17 8 12 9
-3 13 -2 10 4 -7 12 -16 12 -31 2z"/>
<path d="M1355 5640 c3 -5 8 -10 11 -10 2 0 4 5 4 10 0 6 -5 10 -11 10 -5 0
-7 -4 -4 -10z"/>
<path d="M3900 5640 c8 -5 22 -9 30 -9 10 0 8 3 -5 9 -27 12 -43 12 -25 0z"/>
<path d="M4200 5641 c0 -5 5 -13 10 -16 6 -3 10 -2 10 4 0 5 -4 13 -10 16 -5
3 -10 2 -10 -4z"/>
<path d="M5890 5646 c0 -2 7 -7 16 -10 8 -3 12 -2 9 4 -6 10 -25 14 -25 6z"/>
<path d="M7319 5623 c-13 -16 -12 -17 4 -4 9 7 17 15 17 17 0 8 -8 3 -21 -13z"/>
<path d="M2188 5933 c7 -3 16 -2 19 1 4 3 -2 6 -13 5 -11 0 -14 -3 -6 -6z"/>
<path d="M2155 5900 c-14 -6 -15 -9 -5 -10 12 0 12 -3 -2 -11 -12 -7 -24 -6
-38 1 -17 9 -22 8 -27 -7 -4 -10 -11 -21 -17 -25 -7 -5 -5 -8 5 -8 9 0 22 -7
29 -15 31 -37 81 -4 77 51 -1 19 -2 34 -2 33 0 0 -9 -4 -20 -9z"/>
<path d="M2030 5886 c0 -2 8 -10 18 -17 15 -13 16 -12 3 4 -13 16 -21 21 -21
13z"/>
<path d="M2180 5820 c0 -5 5 -10 10 -10 6 0 10 5 10 10 0 6 -4 10 -10 10 -5 0
-10 -4 -10 -10z"/>
<path d="M2278 5803 c7 -3 16 -2 19 1 4 3 -2 6 -13 5 -11 0 -14 -3 -6 -6z"/>
<path d="M1965 5793 c-11 -2 -30 -6 -42 -8 -12 -3 -29 -19 -37 -36 -15 -30
-15 -32 11 -53 27 -21 97 -41 87 -24 -3 4 0 8 6 8 6 0 9 4 5 9 -3 6 2 14 11
19 13 7 14 13 5 29 -13 26 -5 34 28 27 19 -4 15 0 -14 15 -21 12 -39 20 -40
20 0 -1 -9 -3 -20 -6z m40 -13 c3 -5 2 -10 -4 -10 -5 0 -13 5 -16 10 -3 6 -2
10 4 10 5 0 13 -4 16 -10z m-62 -54 c4 -10 1 -13 -9 -9 -15 6 -19 23 -5 23 5
0 11 -7 14 -14z"/>
<path d="M2250 5771 c-13 -25 -13 -57 1 -82 8 -16 19 -20 60 -18 36 2 48 6 45
16 -3 7 -1 23 4 35 5 13 9 17 9 9 1 -8 4 -11 8 -7 4 3 -8 20 -26 36 -38 35
-85 40 -101 11z m43 -45 c4 -10 1 -13 -9 -9 -15 6 -19 23 -5 23 5 0 11 -7 14
-14z"/>
<path d="M2402 5756 c7 -8 15 -12 17 -11 5 6 -10 25 -20 25 -5 0 -4 -6 3 -14z"/>
<path d="M1855 5750 c-3 -5 -1 -10 4 -10 6 0 11 5 11 10 0 6 -2 10 -4 10 -3 0
-8 -4 -11 -10z"/>
<path d="M2103 5723 c9 -2 25 -2 35 0 9 3 1 5 -18 5 -19 0 -27 -2 -17 -5z"/>
<path d="M2420 5719 c0 -5 5 -7 10 -4 6 3 10 8 10 11 0 2 -4 4 -10 4 -5 0 -10
-5 -10 -11z"/>
<path d="M2366 5697 c3 -10 9 -15 12 -12 3 3 0 11 -7 18 -10 9 -11 8 -5 -6z"/>
<path d="M1875 5689 c-4 -6 -5 -12 -2 -15 2 -3 7 2 10 11 7 17 1 20 -8 4z"/>
<path d="M2450 5670 c-6 -12 -9 -24 -6 -28 3 -3 6 0 6 7 0 7 6 11 14 8 8 -3
13 0 12 8 -4 25 -14 27 -26 5z"/>
<path d="M2288 5653 c7 -3 16 -2 19 1 4 3 -2 6 -13 5 -11 0 -14 -3 -6 -6z"/>
<path d="M2399 5643 c-13 -17 -13 -17 6 -3 11 8 22 16 24 17 2 2 0 3 -6 3 -6
0 -17 -8 -24 -17z"/>
<path d="M1963 5635 c0 -8 4 -12 9 -9 5 3 6 10 3 15 -9 13 -12 11 -12 -6z"/>
<path d="M2278 5623 c7 -3 16 -2 19 1 4 3 -2 6 -13 5 -11 0 -14 -3 -6 -6z"/>
<path d="M2405 5620 c-3 -5 -2 -10 4 -10 5 0 13 5 16 10 3 6 2 10 -4 10 -5 0
-13 -4 -16 -10z"/>
<path d="M2980 5898 c0 -4 7 -8 15 -8 8 0 15 4 15 8 0 5 -7 9 -15 9 -8 0 -15
-4 -15 -9z"/>
<path d="M3052 5884 c-8 -14 -5 -25 10 -46 26 -37 53 -36 73 3 19 35 16 51 -8
55 -9 1 -15 -2 -11 -7 11 -18 -29 -23 -42 -5 -12 16 -13 16 -22 0z"/>
<path d="M3237 5879 c-9 -6 -17 -6 -17 -2 -1 20 -20 -24 -20 -45 0 -22 2 -23
54 -17 43 6 54 4 59 -9 9 -23 26 -20 39 8 14 31 -5 53 -53 61 -18 3 -35 8 -38
10 -4 2 -14 -1 -24 -6z m103 -69 c0 -5 -4 -10 -10 -10 -5 0 -10 5 -10 10 0 6
5 10 10 10 6 0 10 -4 10 -10z"/>
<path d="M3182 5855 c0 -16 2 -22 5 -12 2 9 2 23 0 30 -3 6 -5 -1 -5 -18z"/>
<path d="M3024 5816 c-1 -17 1 -23 3 -13 2 9 8 15 12 13 4 -3 8 1 8 9 0 30
-22 21 -23 -9z"/>
<path d="M2869 5781 c-24 -26 -16 -77 15 -106 14 -13 26 -20 26 -15 0 16 41
22 58 8 15 -11 16 -11 4 3 -10 13 -10 23 -1 42 9 20 8 30 -6 51 -10 14 -25 26
-35 26 -10 0 -24 2 -32 4 -7 2 -20 -4 -29 -13z m45 -56 c3 -8 2 -15 -3 -15 -5
0 -14 7 -21 15 -10 12 -10 15 3 15 8 0 17 -7 21 -15z"/>
<path d="M3228 5794 c10 -5 9 -9 -4 -19 -21 -15 -23 -67 -4 -90 18 -21 106
-17 107 5 1 8 3 20 4 25 6 22 -26 66 -50 71 -53 12 -66 14 -53 8z m36 -70 c4
-10 1 -14 -6 -12 -15 5 -23 28 -10 28 5 0 13 -7 16 -16z"/>
<path d="M2970 5776 c0 -2 8 -10 18 -17 15 -13 16 -12 3 4 -13 16 -21 21 -21
13z"/>
<path d="M3370 5710 c0 -7 -7 -10 -15 -6 -8 3 -15 1 -15 -5 0 -7 10 -9 24 -5
15 4 26 1 29 -7 2 -6 7 -9 11 -6 3 3 -3 14 -14 24 -13 12 -20 14 -20 5z"/>
<path d="M3420 5630 c-9 -6 -10 -10 -3 -10 6 0 15 5 18 10 8 12 4 12 -15 0z"/>
<path d="M8038 5933 c7 -3 16 -2 19 1 4 3 -2 6 -13 5 -11 0 -14 -3 -6 -6z"/>
<path d="M8035 5910 c3 -5 8 -10 11 -10 2 0 4 5 4 10 0 6 -5 10 -11 10 -5 0
-7 -4 -4 -10z"/>
<path d="M8003 5896 c-11 -18 -35 -25 -54 -15 -11 6 -21 4 -29 -6 -16 -20 15
-65 45 -65 29 0 42 16 47 63 4 40 3 44 -9 23z"/>
<path d="M7885 5881 c-3 -5 -1 -12 5 -16 5 -3 10 1 10 9 0 18 -6 21 -15 7z"/>
<path d="M8052 5870 c0 -14 2 -19 5 -12 2 6 2 18 0 25 -3 6 -5 1 -5 -13z"/>
<path d="M8110 5880 c0 -6 -8 -10 -17 -8 -13 2 -19 -5 -21 -24 -2 -16 -9 -28
-15 -28 -7 0 -4 -5 5 -11 12 -7 24 -6 40 2 13 7 42 9 74 6 49 -5 52 -4 57 19
2 13 1 21 -4 19 -11 -7 -40 6 -34 15 3 5 -3 8 -12 8 -10 -1 -30 2 -45 5 -18 5
-28 3 -28 -3z"/>
<path d="M8032 5860 c0 -14 2 -19 5 -12 2 6 2 18 0 25 -3 6 -5 1 -5 -13z"/>
<path d="M7759 5795 c-33 -18 -41 -38 -33 -81 5 -26 12 -34 35 -39 16 -4 38
-3 50 0 12 4 19 3 16 -2 -3 -5 -1 -15 5 -23 8 -12 9 -12 4 2 -3 10 2 22 12 28
16 11 16 11 -1 6 -14 -5 -16 -1 -11 22 4 15 11 32 16 38 9 13 -31 44 -57 44
-9 0 -13 5 -10 10 8 13 6 12 -26 -5z m25 -70 c3 -8 2 -15 -3 -15 -5 0 -14 7
-21 15 -10 12 -10 15 3 15 8 0 17 -7 21 -15z"/>
<path d="M8138 5803 c7 -3 16 -2 19 1 4 3 -2 6 -13 5 -11 0 -14 -3 -6 -6z"/>
<path d="M8110 5789 c0 -4 -9 -11 -21 -14 -11 -4 -18 -9 -15 -12 3 -3 1 -14
-5 -25 -8 -15 -7 -23 8 -35 17 -14 17 -14 -6 -9 -17 3 -21 2 -13 -6 6 -6 31
-13 56 -15 37 -5 49 -2 63 14 10 10 15 14 10 7 -4 -7 -2 -14 6 -17 11 -4 13 2
10 26 -3 18 -5 38 -6 45 0 6 -5 12 -11 12 -6 0 -6 4 2 8 8 6 -3 12 -33 19 -25
6 -45 7 -45 2z m24 -65 c4 -10 1 -14 -6 -12 -15 5 -23 28 -10 28 5 0 13 -7 16
-16z"/>
<path d="M8215 5790 c3 -5 11 -10 16 -10 6 0 7 5 4 10 -3 6 -11 10 -16 10 -6
0 -7 -4 -4 -10z"/>
<path d="M7700 5720 c0 -5 5 -10 11 -10 5 0 7 5 4 10 -3 6 -8 10 -11 10 -2 0
-4 -4 -4 -10z"/>
<path d="M8000 5710 c0 -5 5 -10 11 -10 5 0 7 5 4 10 -3 6 -8 10 -11 10 -2 0
-4 -4 -4 -10z"/>
<path d="M8225 5699 c-4 -6 -5 -12 -2 -15 2 -3 7 2 10 11 7 17 1 20 -8 4z"/>
<path d="M8276 5685 c4 -8 11 -15 16 -15 6 0 5 6 -2 15 -7 8 -14 15 -16 15 -2
0 -1 -7 2 -15z"/>
<path d="M5300 5866 c0 -2 7 -7 16 -10 8 -3 12 -2 9 4 -6 10 -25 14 -25 6z"/>
<path d="M5280 5851 c0 -10 19 -25 25 -20 1 2 -3 10 -11 17 -8 7 -14 8 -14 3z"/>
<path d="M4868 5812 c-11 -15 -11 -15 2 -6 8 6 23 10 33 8 11 -1 16 0 13 4
-13 12 -36 10 -48 -6z"/>
<path d="M4976 5789 c4 -24 14 -49 23 -56 30 -23 101 -14 101 13 0 8 4 14 10
14 5 0 7 14 3 33 -8 41 -9 42 -28 23 -21 -21 -59 -20 -91 0 l-25 17 7 -44z"/>
<path d="M5236 5818 c4 -5 12 -7 20 -4 7 3 16 1 19 -3 2 -5 -8 -11 -25 -13
-18 -3 -27 -1 -23 6 3 6 -8 -5 -25 -24 -17 -19 -31 -39 -31 -45 -1 -5 4 -3 9
5 8 12 10 9 10 -14 0 -25 3 -27 23 -21 12 5 64 9 116 11 52 2 99 8 104 13 8 8
7 11 -1 11 -7 0 -12 6 -12 13 0 17 -62 47 -98 48 -24 0 -25 1 -7 10 17 8 16 9
-6 4 -14 -2 -29 -2 -33 2 -10 10 -46 11 -40 1z"/>
<path d="M4945 5779 c-4 -6 -5 -12 -2 -15 2 -3 7 2 10 11 7 17 1 20 -8 4z"/>
<path d="M5115 5711 c4 -8 2 -17 -6 -22 -9 -6 -10 -9 -2 -9 19 0 27 21 13 33
-10 9 -11 9 -5 -2z"/>
<path d="M5152 5690 c0 -14 2 -19 5 -12 2 6 2 18 0 25 -3 6 -5 1 -5 -13z"/>
<path d="M5385 5700 c3 -5 8 -10 11 -10 2 0 4 5 4 10 0 6 -5 10 -11 10 -5 0
-7 -4 -4 -10z"/>
<path d="M4738 5693 c7 -3 16 -2 19 1 4 3 -2 6 -13 5 -11 0 -14 -3 -6 -6z"/>
<path d="M4690 5686 c0 -2 7 -7 16 -10 8 -3 12 -2 9 4 -6 10 -25 14 -25 6z"/>
<path d="M5280 5680 c0 -6 -7 -10 -15 -10 -20 0 -65 -29 -65 -42 0 -5 5 -6 12
-2 7 5 8 3 2 -7 -8 -13 -14 -92 -6 -84 3 2 11 -2 19 -10 32 -33 91 -31 131 3
31 27 30 91 0 118 -29 26 -78 47 -78 34z m0 -95 c0 -7 6 -16 13 -19 6 -3 1 -3
-13 0 -32 8 -34 10 -26 29 7 18 26 11 26 -10z"/>
<path d="M4713 5653 c-28 -25 -55 -81 -32 -67 5 3 9 -6 9 -20 0 -34 38 -58 87
-55 21 2 45 -1 53 -6 8 -4 12 -5 8 0 -4 4 -4 13 2 19 17 22 28 94 16 107 -8 9
-8 10 1 5 6 -3 15 -1 19 5 4 7 3 9 -4 5 -6 -3 -13 -2 -17 4 -3 5 -1 10 5 10 6
0 8 5 4 11 -5 8 -8 8 -14 0 -5 -9 -14 -9 -34 -1 -44 16 -70 12 -103 -17z m57
-64 c15 -26 7 -34 -19 -19 -22 11 -26 22 -14 33 11 12 22 8 33 -14z"/>
<path d="M5098 5573 c7 -3 16 -2 19 1 4 3 -2 6 -13 5 -11 0 -14 -3 -6 -6z"/>
<path d="M4645 5560 c3 -5 8 -10 11 -10 2 0 4 5 4 10 0 6 -5 10 -11 10 -5 0
-7 -4 -4 -10z"/>
<path d="M4672 5535 c0 -16 2 -22 5 -12 2 9 2 23 0 30 -3 6 -5 -1 -5 -18z"/>
<path d="M5187 5499 c7 -7 15 -10 18 -7 3 3 -2 9 -12 12 -14 6 -15 5 -6 -5z"/>
<path d="M4825 5480 c3 -5 8 -10 11 -10 2 0 4 5 4 10 0 6 -5 10 -11 10 -5 0
-7 -4 -4 -10z"/>
<path d="M4598 5403 c6 -2 18 -2 25 0 6 3 1 5 -13 5 -14 0 -19 -2 -12 -5z"/>
<path d="M4636 5391 c-4 -5 3 -7 14 -4 23 6 26 13 6 13 -8 0 -17 -4 -20 -9z"/>
<path d="M5408 5393 c7 -3 16 -2 19 1 4 3 -2 6 -13 5 -11 0 -14 -3 -6 -6z"/>
<path d="M4668 5373 c7 -3 16 -2 19 1 4 3 -2 6 -13 5 -11 0 -14 -3 -6 -6z"/>
<path d="M5715 5380 c-3 -5 -2 -10 4 -10 5 0 13 5 16 10 3 6 2 10 -4 10 -5 0
-13 -4 -16 -10z"/>
<path d="M2180 5451 c-8 -5 -44 -8 -78 -8 -35 1 -66 -2 -70 -8 -3 -5 -2 -7 3
-3 4 4 14 0 22 -8 24 -24 112 -15 131 14 16 24 15 26 -8 13z"/>
<path d="M1985 5420 c-3 -5 -3 -10 2 -10 4 0 2 -4 -6 -9 -9 -6 -5 -8 14 -8 23
0 25 1 11 9 -9 5 -14 13 -11 19 4 5 4 9 1 9 -3 0 -8 -4 -11 -10z"/>
<path d="M2941 5411 c-11 -7 -9 -10 8 -16 13 -4 25 -4 28 -1 4 3 -2 6 -13 6
-16 0 -17 2 -4 10 8 5 11 10 5 10 -5 0 -16 -4 -24 -9z"/>
<path d="M3222 5401 c-11 -6 -10 -10 4 -15 9 -3 19 -4 22 -1 3 3 0 5 -7 5 -7
0 -9 5 -6 10 7 12 4 12 -13 1z"/>
<path d="M5900 5399 c0 -5 5 -7 10 -4 6 3 10 8 10 11 0 2 -4 4 -10 4 -5 0 -10
-5 -10 -11z"/>
<path d="M7876 5446 c9 -24 37 -36 86 -36 40 0 68 13 68 31 0 3 -29 4 -65 1
-44 -3 -70 0 -80 8 -13 11 -14 10 -9 -4z"/>
<path d="M7880 5400 c0 -5 5 -10 10 -10 6 0 10 5 10 10 0 6 -4 10 -10 10 -5 0
-10 -4 -10 -10z"/>
<path d="M8086 5398 c3 -5 10 -6 15 -3 13 9 11 12 -6 12 -8 0 -12 -4 -9 -9z"/>
<path d="M8120 5390 c0 -5 5 -10 11 -10 5 0 7 5 4 10 -3 6 -8 10 -11 10 -2 0
-4 -4 -4 -10z"/>
<path d="M9059 5383 c-13 -16 -12 -17 4 -4 9 7 17 15 17 17 0 8 -8 3 -21 -13z"/>
<path d="M5140 5190 c0 -5 5 -10 11 -10 5 0 7 5 4 10 -3 6 -8 10 -11 10 -2 0
-4 -4 -4 -10z"/>
<path d="M4920 5169 c0 -4 12 -17 26 -28 34 -27 123 -29 165 -4 16 10 29 21
29 25 0 13 -21 20 -33 10 -7 -5 -42 -9 -80 -9 -37 0 -62 4 -57 7 6 4 -3 7 -20
7 -16 0 -30 -4 -30 -8z"/>
<path d="M4890 5160 c0 -5 5 -10 11 -10 5 0 7 5 4 10 -3 6 -8 10 -11 10 -2 0
-4 -4 -4 -10z"/>
<path d="M5158 5133 c7 -3 16 -2 19 1 4 3 -2 6 -13 5 -11 0 -14 -3 -6 -6z"/>
<path d="M4380 5120 c-9 -6 -10 -10 -3 -10 6 0 15 5 18 10 8 12 4 12 -15 0z"/>
<path d="M4421 5044 c0 -11 3 -14 6 -6 3 7 2 16 -1 19 -3 4 -6 -2 -5 -13z"/>
<path d="M4436 4937 c3 -10 9 -15 12 -12 3 3 0 11 -7 18 -10 9 -11 8 -5 -6z"/>
<path d="M4735 4340 c3 -5 8 -10 11 -10 2 0 4 5 4 10 0 6 -5 10 -11 10 -5 0
-7 -4 -4 -10z"/>
<path d="M4840 4250 c0 -5 5 -10 11 -10 5 0 7 5 4 10 -3 6 -8 10 -11 10 -2 0
-4 -4 -4 -10z"/>
<path d="M5257 4114 c-3 -5 1 -15 9 -22 16 -14 18 -5 5 17 -5 7 -11 9 -14 5z"/>
<path d="M4946 4095 c4 -8 11 -15 16 -15 6 0 5 6 -2 15 -7 8 -14 15 -16 15 -2
0 -1 -7 2 -15z"/>
<path d="M4974 4061 c7 -11 46 -35 46 -28 0 3 -12 12 -26 22 -15 9 -23 12 -20
6z"/>
<path d="M5170 4020 c8 -5 20 -10 25 -10 6 0 3 5 -5 10 -8 5 -19 10 -25 10 -5
0 -3 -5 5 -10z"/>
<path d="M5755 5019 c-4 -6 -5 -12 -2 -15 2 -3 7 2 10 11 7 17 1 20 -8 4z"/>
<path d="M5860 4975 c14 -17 13 -18 -5 -11 -15 5 -17 4 -8 -4 7 -8 17 -9 27
-3 13 7 12 10 -7 22 -21 13 -21 13 -7 -4z"/>
<path d="M5923 4925 c0 -8 4 -12 9 -9 5 3 6 10 3 15 -9 13 -12 11 -12 -6z"/>
<path d="M6185 4590 c-3 -5 -1 -10 4 -10 6 0 11 5 11 10 0 6 -2 10 -4 10 -3 0
-8 -4 -11 -10z"/>
<path d="M5763 4551 c0 -11 5 -18 9 -15 4 3 5 11 1 19 -7 21 -12 19 -10 -4z"/>
<path d="M6370 4425 c6 -8 8 -20 4 -27 -5 -10 -4 -10 5 -2 13 12 5 44 -11 44
-6 0 -5 -6 2 -15z"/>
<path d="M5711 4304 c0 -11 3 -14 6 -6 3 7 2 16 -1 19 -3 4 -6 -2 -5 -13z"/>
<path d="M6333 4105 c-3 -9 -3 -18 -1 -21 3 -3 8 4 11 16 6 23 -1 27 -10 5z"/>
<path d="M6156 4059 c3 -5 0 -9 -7 -9 -7 0 -10 -2 -7 -5 3 -3 16 -2 28 3 l24
9 -22 5 c-12 4 -20 2 -16 -3z"/>
<path d="M6108 4053 c7 -3 16 -2 19 1 4 3 -2 6 -13 5 -11 0 -14 -3 -6 -6z"/>
<path d="M7349 3546 c-103 -28 -209 -120 -257 -224 -20 -44 -27 -78 -30 -144
-3 -55 -1 -88 6 -88 5 0 12 14 16 30 8 42 76 140 127 184 23 19 65 42 93 51
28 9 60 21 71 27 11 6 29 14 42 17 23 6 115 139 107 153 -8 12 -123 8 -175 -6z"/>
<path d="M7271 3181 c-1 -19 -5 -23 -27 -18 -19 3 -24 1 -20 -10 3 -8 6 -17 6
-19 0 -2 6 -4 14 -4 21 0 38 26 33 52 l-4 23 -2 -24z"/>
<path d="M7386 3073 c-6 -14 -5 -15 5 -6 7 7 10 15 7 18 -3 3 -9 -2 -12 -12z"/>
<path d="M7030 3033 l-25 -18 60 -6 c61 -7 78 0 68 28 -7 19 -74 16 -103 -4z"/>
<path d="M6871 2990 c12 -16 22 -43 22 -60 0 -35 20 -36 25 -1 4 23 -41 91
-59 91 -5 0 0 -13 12 -30z"/>
<path d="M7283 2983 c-18 -7 -16 -26 5 -49 9 -10 29 -33 44 -51 19 -23 28 -28
32 -18 8 21 -11 75 -36 102 -22 24 -25 25 -45 16z"/>
<path d="M7023 2957 c-31 -14 -32 -60 -2 -55 23 3 42 38 31 55 -5 7 -14 7 -29
0z m22 -17 c-3 -5 -12 -10 -18 -10 -7 0 -6 4 3 10 19 12 23 12 15 0z"/>
<path d="M7039 2853 c-13 -16 -12 -17 4 -4 16 13 21 21 13 21 -2 0 -10 -8 -17
-17z"/>
<path d="M7231 2849 c-27 -30 -28 -69 -1 -69 37 0 66 76 33 87 -6 2 -21 -6
-32 -18z m39 -9 c0 -5 -8 -10 -17 -10 -15 0 -16 2 -3 10 19 12 20 12 20 0z"/>
<path d="M6765 2819 c-38 -34 -49 -59 -40 -89 11 -35 39 -22 69 33 17 28 31
57 32 64 4 25 -28 21 -61 -8z"/>
<path d="M7000 2813 c0 -16 4 -34 8 -40 5 -7 8 4 7 27 0 22 -3 40 -7 40 -5 0
-8 -12 -8 -27z"/>
<path d="M7040 2746 c6 -6 18 -5 32 1 21 10 21 10 -9 9 -19 -1 -28 -5 -23 -10z"/>
<path d="M6870 2670 c0 -5 22 -16 49 -25 29 -9 72 -37 107 -68 99 -89 155
-114 194 -86 12 8 10 9 -7 4 -33 -9 -83 17 -154 80 -35 32 -77 63 -94 70 -55
23 -95 33 -95 25z"/>
<path d="M6460 2470 c0 -11 5 -20 10 -20 6 0 10 9 10 20 0 11 -4 20 -10 20 -5
0 -10 -9 -10 -20z"/>
<path d="M6422 2392 c-17 -45 72 -341 96 -317 3 3 -2 21 -12 40 l-19 34 32 49
32 50 -41 80 c-33 64 -45 80 -62 79 -11 -1 -23 -8 -26 -15z"/>
<path d="M6736 2125 c4 -38 12 -83 19 -100 l14 -30 -5 30 c-3 17 -11 62 -19
100 l-14 70 5 -70z"/>
<path d="M7602 1540 c-13 -16 -26 -30 -31 -30 -4 0 -32 -14 -62 -30 -40 -22
-46 -29 -24 -24 16 4 36 13 43 21 7 7 19 13 25 13 17 1 52 32 66 58 16 31 9
27 -17 -8z"/>
<path d="M7662 1493 c-6 -3 -10 -9 -6 -14 15 -25 -96 -73 -200 -85 -44 -5 -58
-3 -72 10 -9 9 -19 14 -22 11 -4 -3 0 -10 8 -15 13 -9 13 -10 0 -10 -12 0 -13
-2 -1 -9 17 -11 134 -4 178 10 18 6 37 8 43 4 5 -3 10 -1 10 4 0 6 5 11 10 11
21 0 89 55 90 71 0 10 -23 17 -38 12z"/>
<path d="M7070 1339 c0 -11 4 -18 10 -14 5 3 7 12 3 20 -7 21 -13 19 -13 -6z"/>
<path d="M4169 4533 c12 -24 31 -39 31 -25 0 5 -10 17 -21 28 -22 19 -22 19
-10 -3z"/>
<path d="M1625 3499 c-61 -14 -147 -51 -138 -59 4 -4 57 -26 116 -49 108 -41
109 -41 160 -27 109 30 120 29 222 -23 52 -26 95 -44 95 -41 0 16 -60 89 -96
117 -55 42 -93 61 -166 78 -70 16 -133 18 -193 4z"/>
<path d="M1372 3345 c-137 -156 -111 -401 56 -527 56 -42 165 -88 178 -76 3 4
-14 35 -39 70 -24 35 -57 87 -72 117 -31 61 -29 97 11 195 l23 60 -45 86 c-69
134 -63 130 -112 75z"/>
<path d="M1809 3119 c-43 -43 2 -134 77 -159 115 -38 143 110 31 163 -47 23
-83 21 -108 -4z"/>
<path d="M2350 2992 c0 -9 13 -17 33 -21 4 0 7 2 7 7 0 4 -3 7 -7 7 -5 0 -14
4 -20 8 -7 5 -13 4 -13 -1z"/>
<path d="M2325 2810 c3 -5 8 -10 11 -10 2 0 4 5 4 10 0 6 -5 10 -11 10 -5 0
-7 -4 -4 -10z"/>
<path d="M2006 2754 c-9 -24 -7 -27 9 -10 17 17 19 26 6 26 -5 0 -12 -7 -15
-16z"/>
<path d="M2036 2647 c3 -10 9 -15 12 -12 3 3 0 11 -7 18 -10 9 -11 8 -5 -6z"/>
<path d="M7745 1304 c-14 -11 -14 -12 0 -18 15 -5 55 12 55 24 0 10 -38 6 -55
-6z m25 -4 c0 -5 -5 -10 -11 -10 -5 0 -7 5 -4 10 3 6 8 10 11 10 2 0 4 -4 4
-10z"/>
<path d="M7222 900 c0 -14 2 -19 5 -12 2 6 2 18 0 25 -3 6 -5 1 -5 -13z"/>
<path d="M7420 831 c0 -5 5 -13 10 -16 6 -3 10 -2 10 4 0 5 -4 13 -10 16 -5 3
-10 2 -10 -4z"/>
<path d="M7346 814 c-4 -9 -4 -19 -1 -22 2 -3 7 3 11 12 4 9 4 19 1 22 -2 3
-7 -3 -11 -12z"/>
</g>
</svg>
