<?xml version="1.0" standalone="no"?>
<!DOCTYPE svg PUBLIC "-//W3C//DTD SVG 20010904//EN"
 "http://www.w3.org/TR/2001/REC-SVG-20010904/DTD/svg10.dtd">
<svg version="1.0" xmlns="http://www.w3.org/2000/svg"
 width="927.000000pt" height="306.000000pt" viewBox="0 0 927.000000 306.000000"
 preserveAspectRatio="xMidYMid meet">

<g transform="translate(0.000000,306.000000) scale(0.100000,-0.100000)"
fill="#000000" stroke="none">
<path d="M0 1530 l0 -1530 1885 0 c1037 0 1885 3 1885 6 0 11 -82 84 -94 84
-6 0 -20 7 -30 15 -18 14 -17 16 20 62 21 26 72 83 113 125 81 86 79 85 141
26 80 -77 144 -179 171 -271 l13 -47 63 0 c56 0 62 2 60 20 -1 11 -4 20 -8 20
-10 0 -34 63 -31 83 2 9 -2 17 -8 17 -7 0 -9 8 -5 21 4 13 3 19 -3 16 -11 -8
-44 72 -35 86 3 6 1 7 -5 3 -6 -3 -17 13 -28 41 -9 27 -27 71 -40 98 -32 70
-38 101 -23 110 7 5 10 4 6 -2 -9 -15 24 -26 37 -13 8 8 7 10 -5 5 -10 -4 -16
0 -16 9 0 8 6 12 14 9 7 -3 13 2 13 10 0 9 13 25 30 37 l30 21 47 -48 c27 -27
63 -54 81 -61 17 -7 44 -17 60 -22 19 -8 38 -31 66 -85 51 -96 119 -173 187
-210 42 -22 70 -30 131 -33 72 -4 83 -2 143 27 74 37 123 88 167 179 32 65 39
73 36 44 -1 -9 0 -99 0 -199 l2 -183 145 0 146 0 -6 102 c-4 57 -11 166 -15
242 -5 77 -8 142 -6 144 9 8 45 -19 41 -31 -8 -28 -14 -107 -7 -107 4 0 17 18
30 40 23 41 57 54 68 25 4 -8 15 -15 26 -15 10 0 31 -12 46 -27 15 -15 30 -28
33 -28 3 0 22 -11 42 -25 27 -18 33 -28 25 -37 -6 -7 -15 -13 -20 -13 -6 0 -6
5 1 14 9 10 7 17 -6 27 -16 13 -17 12 -5 -3 8 -10 9 -18 3 -22 -6 -4 -8 -13
-4 -22 5 -13 7 -13 23 1 9 8 23 15 31 15 12 0 11 -2 -1 -11 -12 -9 -12 -10 3
-5 13 4 34 -6 64 -32 47 -37 183 -189 181 -201 0 -3 0 -12 1 -18 1 -10 344
-13 1681 -13 l1680 0 0 1530 0 1530 -4635 0 -4635 0 0 -1530z m4664 911 c46
-57 60 -67 80 -64 36 7 59 -11 76 -59 13 -37 20 -43 47 -46 25 -3 38 3 59 27
47 53 104 36 104 -29 0 -43 27 -80 58 -80 9 0 31 9 47 20 62 41 101 14 91 -61
-6 -41 -3 -52 14 -69 23 -23 39 -25 74 -9 62 29 104 -22 72 -87 -21 -44 -20
-54 2 -54 26 0 42 20 42 52 0 41 31 53 66 26 l27 -22 18 24 c10 14 39 54 65
89 l47 65 43 -47 c27 -28 54 -47 71 -49 18 -2 29 -10 31 -23 9 -47 62 -63 82
-24 7 12 19 19 32 17 23 -3 34 -19 42 -59 8 -35 25 -41 65 -21 46 22 66 7 66
-49 l0 -44 48 0 c36 0 52 -5 62 -19 22 -30 46 -4 43 46 -4 49 19 71 52 50 29
-17 58 -15 69 7 6 10 8 21 5 24 -10 10 6 45 23 52 10 3 29 -3 45 -15 15 -11
29 -20 30 -20 2 0 30 38 63 85 33 47 63 85 67 85 4 0 23 -20 44 -45 27 -33 44
-45 63 -45 21 0 31 -7 42 -32 17 -39 48 -47 74 -18 34 37 75 16 75 -39 0 -30
32 -44 59 -25 12 9 31 14 44 12 19 -3 23 -11 27 -53 l5 -50 46 0 c30 0 53 -6
66 -17 41 -37 78 -12 68 44 -9 48 11 64 58 47 48 -17 67 -7 67 35 0 25 6 38
19 46 23 12 47 5 55 -16 10 -27 31 -14 68 44 21 31 49 71 63 87 l25 30 41 -47
c28 -33 49 -48 66 -48 18 0 28 -9 39 -35 17 -41 50 -47 79 -15 10 11 27 20 37
20 19 0 39 -36 31 -56 -2 -7 6 -19 18 -28 20 -14 25 -14 51 2 38 22 63 7 63
-39 0 -51 11 -62 56 -55 26 4 42 2 52 -9 22 -21 65 -29 82 -15 10 8 14 27 13
52 -4 50 18 69 55 49 40 -21 61 -11 68 33 5 33 21 55 40 56 4 0 19 -10 34 -22
25 -20 29 -20 39 -5 73 107 110 157 117 157 4 0 24 -20 45 -45 28 -35 43 -45
65 -45 25 0 30 -5 36 -30 8 -41 45 -51 77 -21 12 11 30 21 39 21 18 0 41 -35
32 -50 -3 -5 4 -19 15 -30 20 -20 23 -21 47 -5 15 10 34 14 49 11 21 -6 24
-12 23 -44 -4 -56 6 -65 57 -57 53 8 70 -13 52 -63 -15 -40 1 -60 50 -64 31
-3 37 -7 40 -29 2 -14 -4 -31 -12 -39 -33 -26 -14 -65 34 -72 36 -5 39 -44 5
-75 -32 -30 -29 -51 10 -73 43 -24 45 -58 5 -73 -41 -15 -51 -54 -22 -78 41
-33 24 -79 -28 -79 -31 0 -45 -36 -26 -65 31 -47 16 -75 -37 -75 -22 1 -22 1
-3 15 21 16 18 19 -8 9 -9 -3 -16 -12 -16 -20 0 -8 -4 -14 -10 -14 -14 0 -8
22 10 38 13 11 10 12 -16 7 -28 -5 -32 -3 -50 37 -53 120 -233 230 -325 201
l-34 -11 40 -1 c22 -1 35 -5 28 -9 -7 -4 5 -7 25 -7 42 0 149 -50 161 -74 5
-9 11 -33 14 -54 3 -21 20 -60 36 -88 32 -51 37 -64 22 -55 -4 3 -6 -5 -4 -18
3 -16 -2 -27 -19 -37 -28 -19 -104 -24 -113 -9 -11 18 3 24 22 9 16 -13 17
-12 4 3 -9 12 -21 16 -36 12 -13 -3 -26 -1 -29 5 -4 6 -15 11 -24 10 -12 0
-10 -3 6 -10 37 -14 17 -29 -23 -16 -24 7 -31 13 -23 19 10 6 9 8 -2 8 -9 0
-21 -5 -27 -11 -20 -20 -127 -23 -164 -5 -18 9 -35 12 -38 8 -9 -14 -71 -32
-71 -21 0 17 -29 9 -44 -13 -10 -14 -28 -23 -53 -25 -24 -1 -33 1 -24 6 9 6
10 11 2 15 -6 4 -11 14 -11 22 0 9 5 12 11 8 7 -4 7 1 -1 16 -7 13 -9 33 -4
48 4 15 7 30 6 34 -1 4 7 27 17 51 l19 44 58 -2 c73 -2 104 -17 97 -46 -4 -15
-8 -17 -14 -8 -4 7 -5 17 -3 21 3 4 -3 5 -12 1 -12 -4 -15 -3 -10 5 9 14 9 14
-32 3 -23 -7 -30 -7 -26 1 4 6 3 8 -3 5 -6 -4 -16 -20 -23 -36 -23 -57 23
-104 80 -83 21 8 50 70 70 148 6 28 4 33 -18 43 -13 7 -22 14 -19 18 4 3 13 0
22 -7 9 -7 18 -10 22 -6 10 10 11 46 1 40 -5 -4 -7 -12 -4 -20 6 -16 -10 -19
-19 -3 -4 6 -13 8 -20 5 -7 -2 -19 1 -26 7 -11 10 -11 9 -1 -5 11 -14 7 -16
-38 -20 -42 -2 -47 -1 -33 9 10 7 24 17 31 23 20 18 71 30 105 25 29 -4 29 -4
7 4 -21 8 -18 9 25 11 l50 3 -65 8 c-52 7 -74 6 -110 -8 -83 -31 -147 -80
-197 -150 -26 -38 -52 -71 -57 -75 -6 -4 -6 -16 2 -33 11 -24 10 -25 -7 -15
-28 14 -41 13 -41 -5 0 -13 -2 -14 -14 -3 -8 7 -10 14 -6 16 5 2 0 12 -11 23
-13 13 -27 17 -42 14 -19 -5 -26 1 -44 37 -41 87 -119 153 -225 192 -39 15
-59 17 -129 9 -53 -6 -95 -6 -119 1 -94 25 -269 -96 -335 -232 -14 -28 -14
-36 -3 -50 12 -15 11 -16 -5 -3 -23 18 -29 11 -32 -36 -3 -42 9 -63 35 -63 13
0 17 -8 16 -32 -1 -30 -4 -33 -31 -33 -28 0 -30 2 -29 37 1 31 -1 35 -15 26
-9 -5 -16 -22 -16 -37 0 -22 -4 -26 -30 -26 -25 0 -31 4 -33 27 -3 21 3 30 27
42 33 18 55 21 31 6 -10 -7 -11 -10 -2 -10 23 0 51 109 29 111 -7 0 -22 2 -35
5 -13 2 -21 0 -18 -5 3 -5 -1 -11 -9 -14 -24 -10 -5 22 24 39 l26 15 -36 -6
c-35 -5 -36 -4 -59 46 -29 61 -100 128 -177 165 -53 26 -64 28 -207 29 l-151
1 -78 -40 c-98 -50 -175 -137 -168 -192 1 -11 -5 -27 -14 -34 -13 -11 -18 -10
-31 6 -14 17 -14 16 0 -8 21 -36 21 -59 -1 -28 -9 14 -17 26 -19 28 -1 2 -16
-4 -33 -13 -31 -15 -31 -15 -19 4 6 11 14 18 18 16 3 -1 11 4 19 13 13 14 11
15 -17 9 -30 -6 -33 -4 -53 36 -38 74 -79 116 -152 157 -82 45 -122 54 -192
41 l-50 -9 63 -1 c41 -1 61 -5 57 -11 -4 -7 2 -9 19 -4 16 4 26 2 26 -5 0 -6
10 -11 21 -11 32 0 87 -38 104 -71 11 -20 12 -29 4 -29 -7 0 -5 -8 5 -19 10
-11 19 -31 20 -44 0 -14 4 -23 8 -21 3 2 14 -16 23 -40 18 -46 13 -68 -20 -96
-14 -12 -18 -11 -26 1 -6 10 -9 10 -9 2 0 -22 -60 -15 -81 10 -19 22 -19 22
-34 3 -13 -17 -15 -18 -15 -3 0 9 -5 17 -11 17 -5 0 -7 -5 -3 -12 5 -8 2 -9
-12 -3 -10 5 -32 7 -49 5 -92 -9 -163 -4 -182 12 -23 21 -34 23 -28 6 3 -7 -7
-19 -22 -25 -22 -11 -29 -10 -44 3 -18 17 -23 13 -33 -28 -3 -15 -19 -36 -36
-48 -25 -18 -35 -19 -64 -12 -23 7 -38 6 -45 -1 -6 -6 -11 -7 -11 -2 0 6 -4 4
-9 -3 -6 -11 -10 -10 -15 4 -4 10 -4 16 -1 12 4 -3 15 2 25 12 10 10 26 22 36
28 32 18 9 24 -33 9 l-40 -14 -29 56 c-49 95 -96 151 -174 206 -118 83 -219
120 -285 105 -50 -12 -208 -12 -256 -1 -52 12 -156 -26 -254 -94 -79 -54 -106
-83 -187 -198 -36 -53 -43 -58 -68 -53 -43 8 -42 -3 2 -38 47 -35 69 -72 27
-45 -39 25 -64 28 -89 9 -23 -17 -36 -60 -18 -60 5 0 12 -8 15 -17 9 -25 58
-70 71 -65 14 4 52 -38 52 -58 0 -27 -30 -60 -54 -60 -13 0 -31 9 -41 20 -16
17 -17 25 -7 59 14 47 15 51 2 51 -5 0 -7 -8 -3 -17 5 -14 1 -13 -16 4 -11 12
-23 30 -24 40 -12 59 -19 71 -44 70 -45 0 -72 65 -38 93 18 15 11 30 -14 30
-10 0 -24 6 -30 14 -11 13 -17 12 -48 -1 -41 -17 -121 -14 -170 7 -24 11 -37
11 -55 2 -22 -11 -21 -11 7 -6 l30 5 -27 -16 c-26 -14 -29 -14 -48 5 -11 11
-28 19 -37 19 -17 -1 -17 -2 0 -6 18 -5 24 -23 7 -23 -5 0 -10 -7 -10 -15 0
-21 -18 -19 -23 3 -4 13 -5 13 -6 -4 -1 -16 -8 -21 -24 -21 -22 0 -24 4 -26
52 -1 32 3 56 10 60 8 6 8 9 -1 15 -9 6 -10 12 -1 26 7 13 10 14 11 5 0 -8 3
-11 6 -8 4 4 2 12 -4 20 -8 9 -5 21 10 45 18 29 25 32 62 31 48 -2 106 -19
106 -32 0 -5 -8 -6 -17 -2 -25 10 -83 12 -83 3 0 -4 -7 -8 -16 -8 -8 0 -12 -4
-9 -10 3 -5 2 -10 -2 -10 -5 0 -7 -16 -5 -35 3 -21 8 -32 15 -28 6 4 8 0 4
-11 -4 -10 -3 -15 3 -11 5 3 18 1 29 -5 12 -6 22 -6 26 -1 3 6 14 8 25 6 17
-3 20 2 20 34 0 21 3 41 8 45 4 4 7 11 7 14 1 20 30 49 44 45 9 -3 6 2 -7 11
-12 10 -20 22 -17 27 4 5 0 9 -7 9 -9 0 -9 3 2 10 12 8 11 10 -5 8 -11 0 -45
0 -75 1 -41 2 -50 5 -35 11 11 5 16 9 10 10 -18 3 110 49 140 51 25 1 23 3
-16 11 -61 13 -108 -1 -189 -54 -89 -59 -183 -186 -159 -215 8 -9 4 -11 -15
-7 -25 4 -26 3 -26 -51 0 -48 -3 -55 -17 -53 -13 2 -18 -4 -19 -22 -2 -49 -4
-51 -30 -48 -29 3 -48 36 -34 58 4 7 19 13 34 13 14 0 26 5 26 12 0 7 7 18 15
25 15 13 18 79 4 101 -4 7 -20 10 -41 6 -33 -5 -35 -3 -62 49 -34 65 -92 119
-172 159 -56 29 -63 30 -204 30 -161 1 -190 -5 -274 -59 -77 -49 -177 -186
-155 -212 8 -10 3 -11 -20 -8 -26 4 -29 3 -25 -18 4 -23 4 -23 -5 -2 -14 32
-28 37 -56 18 -15 -10 -25 -12 -25 -5 0 6 7 11 17 11 9 0 13 3 9 7 -3 4 4 13
16 20 22 13 21 14 -13 8 -34 -5 -36 -4 -59 44 -36 78 -117 146 -222 185 -38
15 -57 16 -110 8 l-63 -9 56 -2 c51 -1 89 -18 73 -33 -3 -3 14 -4 38 -1 36 4
51 -1 92 -27 37 -24 47 -35 43 -50 -3 -11 -1 -23 4 -26 5 -3 9 -10 9 -15 0 -6
-4 -7 -10 -4 -5 3 -10 1 -10 -4 0 -6 7 -11 17 -11 9 0 14 -3 10 -6 -3 -3 8
-28 24 -55 32 -56 31 -89 -4 -114 -29 -20 -103 -20 -111 0 -6 16 -46 21 -46 6
0 -5 -15 -5 -35 1 -19 6 -32 15 -29 20 7 12 0 10 -32 -7 -37 -19 -115 -19
-159 -1 -19 8 -35 11 -35 6 0 -13 -64 -33 -68 -20 -2 5 -12 10 -23 10 -17 0
-23 -10 -21 -31 1 -4 -14 -10 -34 -13 -40 -8 -62 0 -45 17 6 6 11 16 11 22 0
5 -5 3 -10 -5 -16 -24 -5 79 15 149 l19 61 55 -4 c68 -4 111 -15 111 -28 0 -5
-6 -6 -12 -3 -7 4 -4 -1 6 -9 11 -9 14 -16 7 -16 -7 0 -9 -5 -5 -11 5 -8 9 -7
14 1 4 7 15 10 25 7 9 -4 14 -3 10 3 -3 6 -13 10 -21 10 -15 0 -17 14 -5 45
17 42 -25 71 -98 66 l-35 -3 32 27 c23 19 53 30 105 39 l72 13 -65 7 c-62 7
-67 6 -148 -35 -84 -42 -129 -86 -179 -170 -12 -21 -25 -29 -45 -29 -15 0 -30
-4 -33 -10 -3 -5 0 -7 8 -5 7 3 26 -6 43 -21 l29 -27 -28 17 c-27 17 -73 14
-62 -4 3 -5 -4 -14 -15 -20 -22 -12 -55 0 -63 22 -3 10 -9 10 -28 -1 -21 -12
-20 -9 6 19 l30 33 -27 -7 c-25 -6 -30 -2 -53 44 -34 67 -86 118 -164 159
l-64 34 -156 1 c-152 2 -157 1 -212 -26 -72 -36 -138 -94 -179 -158 -23 -37
-38 -50 -55 -50 -13 0 -27 -5 -31 -12 -5 -7 0 -9 14 -6 25 7 50 -16 31 -28 -7
-4 -9 -3 -5 4 3 6 2 13 -4 17 -5 3 -10 1 -10 -6 0 -6 -8 -9 -19 -6 -13 3 -21
-1 -24 -14 -7 -26 -53 -25 -67 1 -8 16 -7 26 5 42 8 13 15 30 15 40 0 19 -35
42 -49 34 -5 -3 -19 2 -31 12 -19 16 -21 22 -11 40 6 12 16 22 20 22 15 0 21
30 11 50 -5 10 -21 20 -34 24 -14 3 -28 16 -32 28 -5 17 1 27 25 47 38 31 40
55 5 77 -37 25 -30 65 13 76 42 11 52 42 24 72 -36 38 -21 76 30 76 40 0 53
22 38 63 -19 52 -7 70 40 62 49 -8 75 13 61 50 -5 14 -7 31 -4 40 8 19 43 30
57 16 15 -15 50 -14 65 1 7 7 12 24 12 40 0 41 31 53 66 26 l27 -22 18 24 c10
14 39 54 65 89 l47 65 44 -47 c29 -31 52 -47 69 -47 15 0 27 -7 30 -17 17 -54
48 -67 79 -33 33 37 75 19 75 -32 0 -37 28 -51 64 -32 53 27 70 15 71 -51 l0
-40 49 0 c60 0 78 -19 56 -60 -17 -31 -5 -58 29 -63 21 -3 21 -3 5 32 -23 48
-7 70 46 61 46 -8 61 8 57 59 -3 47 21 68 53 48 29 -17 58 -15 69 7 6 10 8 21
5 24 -10 10 6 45 23 52 10 3 29 -3 45 -15 15 -11 29 -20 30 -20 2 0 30 38 63
85 33 47 63 85 67 85 4 0 24 -20 45 -45 27 -32 45 -45 63 -45 20 0 30 -8 41
-32 17 -39 48 -47 74 -18 34 38 70 21 77 -35 3 -34 28 -44 63 -25 42 22 59 10
65 -45 l5 -50 46 0 c30 0 53 -6 66 -18 41 -36 78 -11 68 45 -9 48 11 64 58 47
48 -17 67 -7 67 35 0 25 6 38 19 46 23 12 47 5 55 -16 10 -27 31 -14 68 44 21
31 49 71 63 87 l25 30 43 -48 c27 -30 50 -47 65 -47 17 0 27 -9 38 -35 17 -41
46 -46 80 -14 30 28 64 18 64 -20 0 -47 37 -65 80 -39 30 19 55 -1 55 -43 0
-52 11 -62 59 -55 34 5 44 3 58 -14 35 -40 83 -11 73 44 -9 43 15 65 49 47 13
-7 34 -11 47 -9 20 2 25 10 27 40 5 54 59 77 76 32 10 -27 31 -14 68 44 21 31
49 71 62 87 l25 30 41 -47 c28 -33 49 -48 66 -48 18 0 27 -9 38 -35 12 -27 21
-35 40 -35 15 0 30 8 36 20 8 15 20 19 58 18 26 0 55 -5 65 -10 51 -26 100 26
77 81 -15 38 -6 65 26 80 22 10 31 8 60 -10 60 -36 115 0 98 66 -4 16 1 30 15
44 28 28 65 27 89 -4 11 -14 26 -25 33 -25 8 0 54 56 103 125 48 69 92 125 96
125 4 0 33 -31 64 -69z m-3784 -1112 c-12 -8 -9 -9 12 -5 15 4 36 2 45 -2 10
-5 35 -17 56 -27 24 -12 36 -24 33 -32 -4 -9 0 -13 12 -11 12 2 17 -3 16 -19
0 -12 4 -19 9 -16 5 3 8 0 5 -8 -6 -19 -33 -18 -34 1 0 8 5 21 10 29 8 11 8
13 0 8 -6 -4 -27 1 -45 10 -19 10 -43 16 -54 15 -19 -2 -19 -1 -1 6 19 8 19 9
-2 14 -12 4 -20 3 -17 -2 7 -11 -19 -31 -42 -33 -13 0 -18 -9 -18 -29 0 -15 4
-28 8 -28 5 0 5 -5 2 -10 -5 -8 -11 -7 -21 1 -12 10 -13 9 -8 -5 8 -21 20 -20
45 5 19 19 29 21 78 16 34 -4 60 -12 67 -22 9 -11 14 -13 19 -5 11 17 27 -3
19 -23 -3 -9 -9 -15 -13 -13 -4 3 -8 -6 -9 -18 -1 -16 6 -27 23 -34 15 -7 25
-8 25 -2 0 6 -6 10 -14 10 -24 0 -30 21 -11 38 14 14 17 14 13 2 -3 -8 4 -24
14 -35 30 -31 33 -63 11 -93 -16 -21 -30 -28 -67 -30 -39 -3 -50 1 -66 20 -19
22 -21 22 -34 5 -12 -16 -16 -16 -49 -2 -28 11 -42 12 -67 4 -44 -16 -135 -7
-160 16 -19 17 -20 17 -20 0 0 -13 -6 -16 -26 -12 -18 3 -24 1 -20 -9 7 -19
-3 -18 -25 2 -17 15 -19 15 -30 -10 -7 -14 -17 -27 -23 -27 -6 -1 -25 -3 -42
-4 l-31 -3 4 56 c2 32 4 65 4 75 0 9 4 17 9 17 5 0 7 7 4 15 -4 8 -2 21 4 28
5 6 11 21 13 31 3 17 13 20 64 22 33 0 50 -1 38 -3 -27 -5 -73 -58 -73 -83 0
-22 26 -50 46 -50 9 0 12 -5 8 -11 -11 -19 39 1 63 25 18 18 20 27 13 61 -4
22 -8 33 -9 26 -1 -12 -4 -12 -13 -3 -7 7 -21 12 -32 12 -25 0 -19 5 16 14 16
4 32 1 40 -7 8 -8 22 -10 38 -6 16 4 19 7 8 8 -22 1 -24 39 -3 48 25 9 32 -7
11 -23 -11 -8 -15 -14 -10 -14 6 0 15 5 22 12 8 8 15 8 26 -1 17 -14 70 -9 72
7 1 7 2 22 3 35 1 12 6 29 11 37 9 13 11 13 20 0 5 -8 10 -10 10 -4 0 6 -6 17
-14 23 -11 10 -16 8 -21 -9 -3 -11 -11 -18 -16 -15 -5 4 -9 2 -9 -3 0 -17 -41
-22 -47 -6 -4 11 -8 12 -19 3 -12 -9 -13 -9 -9 4 4 8 2 18 -4 22 -7 3 -8 0 -5
-10 5 -12 2 -14 -12 -8 -18 7 -18 6 -1 -11 23 -23 22 -29 -4 -21 -15 5 -19 4
-14 -5 4 -7 -6 -5 -25 5 -17 9 -49 17 -71 17 -38 0 -39 1 -20 15 60 42 105 53
216 53 81 0 106 -3 95 -11z m2033 -4 c15 -6 16 -10 5 -17 -8 -5 -3 -6 14 -2
15 3 35 1 45 -4 17 -10 17 -11 1 -17 -10 -4 -15 -11 -12 -16 3 -5 -7 -4 -22 1
-19 8 -29 8 -34 0 -4 -6 -13 -10 -20 -8 -12 3 -33 -55 -24 -65 2 -2 26 1 54 7
45 9 51 8 64 -10 8 -10 18 -16 22 -11 4 4 2 7 -4 7 -7 0 -12 5 -12 11 0 6 6 9
13 6 8 -3 19 -2 26 3 10 5 7 13 -10 29 -12 11 -26 21 -31 21 -14 0 -9 18 8 24
8 3 12 2 9 -4 -3 -6 1 -10 10 -10 9 0 13 -4 10 -10 -4 -6 1 -7 11 -3 13 5 16
3 11 -10 -3 -9 -3 -17 2 -17 14 0 21 -43 9 -58 -6 -7 -7 -12 -2 -11 21 4 28
-2 14 -11 -10 -6 -11 -10 -3 -10 12 0 44 -51 50 -80 6 -29 -7 -56 -31 -70 -21
-11 -28 -11 -43 1 -11 9 -14 10 -9 2 13 -23 -38 -15 -58 9 -17 20 -20 20 -31
5 -10 -14 -17 -15 -44 -6 -27 10 -30 13 -19 27 9 10 -2 7 -32 -8 -36 -18 -55
-22 -105 -17 -34 2 -74 12 -89 22 -20 13 -25 14 -21 3 4 -9 -7 -20 -30 -31
-41 -20 -47 -14 -7 7 20 11 22 15 9 16 -11 0 -15 4 -11 11 4 7 -7 4 -25 -7
-17 -10 -31 -22 -31 -25 0 -18 -34 -39 -61 -39 -29 0 -29 0 -29 59 0 66 7 94
22 85 6 -4 6 1 -1 13 -6 11 -7 24 -3 28 4 3 8 10 8 13 10 47 16 51 71 51 38
-1 51 -4 42 -10 -10 -7 -7 -9 11 -8 41 3 60 0 60 -11 0 -15 -31 -25 -39 -13
-3 5 -23 13 -43 16 -28 4 -38 2 -38 -8 0 -7 -12 -27 -26 -44 -25 -30 -27 -61
-4 -61 6 0 8 -5 4 -12 -4 -7 -3 -8 4 -4 12 7 5 36 -9 36 -14 0 -10 17 5 23 9
4 13 1 11 -6 -3 -7 5 -23 16 -37 11 -14 18 -18 14 -10 -5 12 -3 11 7 -1 12
-15 15 -15 27 -1 13 13 15 13 22 -4 7 -17 8 -17 8 -1 1 10 8 29 17 42 9 13 13
29 9 35 -3 5 3 22 14 36 24 30 27 64 9 83 -11 11 -8 12 12 6 14 -3 35 -18 48
-32 18 -20 29 -24 53 -19 22 4 29 2 29 -10 0 -9 -5 -12 -12 -8 -7 4 -8 3 -4
-4 4 -7 11 -12 17 -12 13 0 11 37 -2 46 -7 4 -7 10 -1 16 5 5 7 20 5 32 -5 22
-7 23 -31 10 -22 -11 -27 -11 -37 3 -11 14 -12 14 -18 0 -5 -13 -16 -16 -49
-13 -24 2 -62 4 -85 5 -60 1 -47 23 30 50 52 18 79 21 167 17 58 -2 113 -7
123 -11z m3874 0 c8 -8 19 -13 24 -9 5 3 25 0 45 -6 30 -10 33 -14 22 -28 -12
-14 -10 -14 10 -3 18 10 26 9 44 -4 13 -8 18 -15 12 -15 -5 0 -15 5 -22 12 -6
6 -14 9 -17 6 -4 -3 8 -12 24 -19 17 -8 31 -17 31 -20 0 -4 3 -21 7 -39 4 -22
3 -31 -5 -27 -12 8 -10 -19 3 -30 4 -4 5 -2 1 5 -16 27 6 10 23 -19 17 -29 18
-75 1 -64 -4 3 -14 -3 -21 -12 -10 -12 -10 -14 -1 -9 6 4 12 2 12 -3 0 -6 -4
-11 -9 -11 -5 0 -12 -7 -15 -16 -6 -15 -4 -15 10 -3 10 8 25 27 35 43 15 24
19 27 24 14 9 -24 -23 -81 -41 -74 -9 3 -12 1 -9 -4 4 -6 -12 -10 -40 -10 -34
0 -47 4 -52 18 -9 24 -45 46 -42 25 4 -23 -3 -30 -26 -25 -14 2 -23 8 -20 12
2 4 -12 5 -33 2 -77 -11 -167 -6 -199 11 -26 14 -31 14 -27 3 3 -8 -3 -19 -15
-26 -22 -11 -41 -6 -41 12 0 6 7 5 18 -3 15 -12 16 -12 5 2 -7 9 -9 19 -5 24
4 4 -10 -3 -30 -16 -23 -14 -36 -29 -33 -38 4 -9 -1 -12 -15 -8 -11 3 -18 1
-15 -3 3 -5 -8 -8 -25 -8 -28 1 -30 4 -30 37 0 63 12 141 21 135 5 -3 6 2 3
11 -4 8 1 26 10 40 14 21 24 25 67 25 34 0 48 -4 43 -11 -4 -8 1 -9 16 -4 15
5 28 1 45 -15 17 -16 25 -18 30 -9 5 8 4 10 -3 5 -7 -4 -12 -2 -12 3 0 6 8 11
18 11 11 0 13 3 5 8 -6 4 -11 16 -10 27 1 12 -8 24 -25 33 -27 13 -28 14 -12
44 9 17 11 27 4 23 -6 -4 -15 -17 -20 -29 -6 -17 -17 -22 -46 -23 -33 -1 -35
0 -14 7 14 4 18 9 10 9 -8 1 5 12 29 25 38 20 61 23 153 24 86 2 113 -1 125
-13z m953 4 c0 -6 9 -9 20 -6 11 3 20 1 20 -4 0 -5 14 -9 30 -9 20 0 30 -5 30
-15 0 -8 5 -15 11 -15 5 0 7 5 3 11 -4 7 2 6 17 -2 26 -14 54 -39 43 -39 -3 0
-1 -7 6 -15 10 -12 10 -18 -1 -32 -12 -14 -12 -16 2 -11 12 5 19 -3 27 -28 7
-23 7 -32 0 -28 -6 4 -9 1 -7 -5 3 -7 8 -12 13 -11 5 1 14 -6 19 -16 24 -42
13 -104 -19 -104 -8 0 -13 -3 -11 -7 3 -5 -13 -9 -35 -11 -31 -2 -44 2 -59 20
-18 22 -19 22 -33 4 -15 -18 -16 -18 -48 2 -29 17 -36 18 -63 6 -40 -17 -108
-17 -150 0 -18 8 -35 11 -37 7 -2 -5 -14 -11 -28 -15 -19 -6 -21 -5 -10 3 8 6
10 11 4 11 -6 0 -19 -10 -27 -22 l-16 -23 5 28 c4 26 3 27 -16 17 -18 -10 -21
-15 -19 -37 1 -16 -46 -19 -59 -4 -9 12 -12 12 -10 2 2 -7 -2 -15 -7 -17 -6
-3 -12 11 -13 31 -2 23 2 35 10 35 8 0 9 3 3 8 -14 9 -17 52 -5 52 5 0 7 7 3
16 -3 8 5 26 18 42 16 17 17 21 5 12 -17 -13 -18 -13 -13 0 4 8 10 23 13 32 5
14 17 18 60 17 30 -1 54 -6 54 -11 0 -5 4 -7 10 -3 5 3 26 -4 47 -15 32 -17
32 -26 1 -21 -5 0 -8 -3 -8 -8 0 -14 34 -9 49 6 7 8 8 13 2 13 -6 0 -14 18
-17 41 -5 29 -13 44 -30 51 -23 11 -23 12 -8 30 23 24 9 23 -16 -2 -25 -25
-90 -29 -70 -5 7 9 15 13 18 11 2 -3 11 1 19 9 8 8 25 15 38 15 13 0 26 4 29
9 8 13 206 14 206 0z m-2807 -49 c44 -14 89 -34 102 -45 12 -11 29 -21 36 -23
27 -5 58 -25 53 -34 -8 -13 -24 -9 -24 7 0 9 -9 15 -22 14 -18 -1 -19 -2 -5
-6 9 -2 15 -9 12 -14 -6 -8 0 -11 34 -13 21 -2 26 -25 7 -32 -10 -4 -28 5 -46
22 -16 16 -35 30 -40 30 -6 1 -25 2 -42 3 -29 2 -30 4 -13 12 16 7 13 8 -10 3
-16 -3 -42 -7 -57 -7 -14 -1 -24 -5 -21 -9 2 -5 1 -8 -4 -8 -4 0 -20 -10 -35
-23 -19 -17 -24 -27 -17 -38 7 -12 9 -11 9 3 0 9 4 19 8 22 5 3 6 -9 4 -26 -4
-29 -3 -30 19 -23 13 5 66 9 118 11 51 2 96 5 99 8 10 11 23 6 17 -6 -4 -7 0
-4 9 6 15 19 16 19 21 0 4 -10 13 -36 20 -58 10 -27 11 -44 4 -57 -6 -13 -6
-19 1 -19 5 0 10 6 10 13 0 6 14 -12 30 -42 30 -54 41 -109 19 -95 -7 4 -10 1
-7 -7 3 -8 -4 -20 -16 -27 -16 -10 -16 -12 -3 -8 11 3 15 2 12 -4 -3 -6 -11
-10 -16 -10 -6 0 -17 -7 -25 -15 -9 -8 -21 -15 -27 -15 -7 0 -6 4 3 10 9 6 10
10 3 10 -6 0 -15 -4 -18 -10 -7 -12 -85 -13 -101 -2 -6 4 -13 15 -17 25 -3 9
-15 17 -26 17 -24 0 -36 -16 -19 -23 7 -3 3 -6 -9 -6 -13 -1 -23 4 -23 10 0 5
-5 7 -11 4 -5 -4 -24 -1 -40 5 -23 10 -27 15 -18 27 19 23 2 27 -22 5 -29 -28
-111 -44 -179 -36 -63 7 -120 28 -120 43 0 6 -5 11 -11 11 -6 0 -8 -8 -5 -18
6 -17 -5 -25 -76 -51 -18 -7 -28 -7 -28 -1 0 6 10 10 23 11 21 0 21 1 2 9 -33
14 -71 12 -73 -5 -1 -8 -3 -22 -4 -30 -2 -19 -13 -19 -33 1 -12 13 -19 14 -28
5 -9 -9 -6 -13 13 -18 22 -6 21 -8 -15 -14 -65 -11 -67 -8 -61 100 7 124 9
140 20 133 5 -3 7 2 3 11 -3 8 3 39 14 69 10 29 19 53 19 53 0 1 9 1 20 2 11
1 18 -2 15 -8 -4 -5 -1 -9 4 -9 6 0 11 4 11 10 0 5 15 8 33 6 17 -3 45 -5 60
-5 16 -1 26 -5 23 -9 -2 -4 4 -9 15 -10 42 -4 49 -6 49 -13 0 -16 33 -18 58
-3 15 8 19 13 9 10 -22 -7 -36 22 -16 35 10 6 10 9 2 9 -7 0 -13 5 -13 11 0 5
4 7 10 4 6 -3 7 1 4 9 -3 9 -10 13 -15 10 -5 -3 -6 2 -3 10 3 9 10 13 15 10 5
-3 9 -1 9 5 0 15 -21 25 -53 26 -26 1 -27 -1 -11 -12 13 -9 21 -10 31 -2 8 7
13 8 13 1 0 -5 -7 -15 -15 -22 -11 -9 -15 -9 -15 -1 0 7 -4 10 -9 6 -6 -3 -15
0 -22 7 -8 10 -30 12 -78 7 -36 -3 -67 -5 -69 -3 -9 6 110 73 163 92 86 31
285 26 398 -8z m-1318 -128 c-3 -3 -11 0 -18 7 -9 10 -8 11 6 5 10 -3 15 -9
12 -12z m-3032 -36 c4 -10 1 -13 -9 -9 -15 6 -19 23 -5 23 5 0 11 -7 14 -14z
m2001 -1 c3 -8 2 -15 -3 -15 -5 0 -14 7 -21 15 -10 12 -10 15 3 15 8 0 17 -7
21 -15z m966 0 c0 -9 -6 -12 -15 -9 -8 4 -15 10 -15 15 0 5 7 9 15 9 8 0 15
-7 15 -15z m4884 -1 c4 -10 1 -14 -6 -12 -15 5 -23 28 -10 28 5 0 13 -7 16
-16z m-5189 -15 c9 -14 6 -16 -35 -23 -31 -5 -32 -5 -12 6 12 6 22 15 22 20 0
12 18 10 25 -3z m4855 -9 c0 -5 -7 -7 -15 -4 -8 4 -15 8 -15 10 0 2 7 4 15 4
8 0 15 -4 15 -10z m-23 -16 c-3 -3 -12 -4 -19 -1 -8 3 -5 6 6 6 11 1 17 -2 13
-5z m-6776 -57 c-10 -9 -11 -8 -5 6 3 10 9 15 12 12 3 -3 0 -11 -7 -18z m-50
-28 c-20 -17 -30 -36 -12 -25 4 3 5 -9 2 -27 -5 -24 -13 -33 -30 -35 -46 -7
-56 64 -10 72 25 4 59 30 60 46 0 12 2 13 6 1 3 -8 -4 -22 -16 -32z m1069 -14
c10 6 40 -22 40 -38 0 -24 -18 -39 -41 -35 -21 3 -24 8 -23 40 1 30 -2 36 -17
33 -23 -5 -24 4 -2 35 l17 24 8 -32 c5 -18 13 -30 18 -27z m3930 51 c0 -3 -7
-12 -16 -21 -15 -15 -15 -18 5 -36 13 -12 21 -30 19 -42 -3 -19 -10 -22 -60
-24 -47 -1 -58 2 -63 16 -7 24 4 51 21 52 26 3 29 4 58 32 28 26 36 31 36 23z
m1890 -4 c0 -4 -11 -19 -24 -33 -17 -18 -21 -30 -15 -41 15 -26 0 -49 -30 -46
-20 2 -27 9 -29 30 -3 21 3 30 25 41 15 8 37 24 47 36 20 23 26 25 26 13z
m-7855 -12 c3 -5 1 -10 -4 -10 -6 0 -11 5 -11 10 0 6 2 10 4 10 3 0 8 -4 11
-10z m8820 -20 c-9 -16 -18 -30 -21 -30 -3 0 -2 5 2 12 4 7 3 8 -4 4 -9 -5 -9
-12 0 -25 17 -28 4 -50 -29 -48 -22 2 -29 8 -31 30 -3 20 2 29 20 37 13 5 34
18 48 29 33 27 33 26 15 -9z m-7788 -2 c-3 -8 -6 -5 -6 6 -1 11 2 17 5 13 3
-3 4 -12 1 -19z m69 -51 c-1 -25 -6 -31 -28 -34 -31 -4 -46 24 -29 55 6 11 8
22 4 25 -3 4 8 1 24 -5 25 -9 30 -17 29 -41z m6779 43 c3 -5 14 -10 23 -10 12
0 18 -9 20 -29 2 -30 -12 -49 -23 -31 -3 5 -12 10 -18 10 -7 0 -6 -4 3 -10 13
-8 12 -10 -3 -10 -23 0 -32 26 -19 55 9 20 9 23 -3 18 -8 -3 -15 0 -15 6 0 14
27 15 35 1z m-7805 -41 c0 -33 -23 -48 -49 -32 -17 12 -17 53 0 64 24 14 49
-3 49 -32z m1906 -9 c-1 -18 -7 -26 -25 -28 -31 -5 -45 11 -37 42 12 47 64 35
62 -14z m1048 34 c29 -29 13 -68 -25 -62 -27 3 -38 40 -19 64 16 18 25 18 44
-2z m-2514 -59 c11 -13 6 -15 -39 -15 -47 0 -61 7 -44 23 12 13 71 7 83 -8z
m1028 -2 c2 -9 -10 -13 -42 -13 -43 0 -55 7 -39 24 12 11 76 2 81 -11z m967 6
c4 -6 5 -13 2 -16 -8 -7 -75 -8 -83 -1 -13 14 8 28 41 28 19 0 37 -5 40 -11z
m973 -6 c2 -9 -11 -13 -48 -13 -46 0 -51 2 -40 16 16 18 81 16 88 -3z m1992 2
c11 -13 6 -15 -39 -15 -47 0 -61 7 -44 23 12 13 71 7 83 -8z m940 0 c11 -13 6
-15 -39 -15 -47 0 -61 7 -44 23 12 13 71 7 83 -8z m965 4 c4 -6 5 -13 2 -16
-8 -7 -75 -8 -83 -1 -13 14 8 28 41 28 19 0 37 -5 40 -11z m983 -6 c2 -9 -10
-13 -42 -13 -43 0 -55 7 -39 24 12 11 76 2 81 -11z m-3191 -20 c-3 -3 -11 -2
-17 2 -9 6 -9 10 1 16 14 8 27 -7 16 -18z m-1 -29 c-3 -9 -6 -24 -6 -35 0 -13
-5 -17 -16 -12 -13 5 -15 2 -10 -14 4 -12 1 -25 -9 -33 -9 -7 -15 -29 -15 -51
0 -44 -25 -65 -65 -55 -28 7 -39 35 -30 76 6 29 17 34 62 33 6 0 9 6 6 13 -3
8 -1 14 4 14 17 0 74 60 68 70 -4 6 -1 10 5 10 7 0 9 -7 6 -16z m-4711 -15
c16 -7 15 -8 -10 -7 -16 1 -35 6 -42 11 -8 5 -11 2 -9 -10 4 -26 45 -44 85
-36 27 4 32 3 27 -8 -4 -8 -1 -6 7 4 8 9 19 17 25 17 6 0 9 6 6 14 -3 9 -16
13 -32 11 -24 -4 -23 -2 7 11 30 14 35 13 52 -2 10 -9 16 -21 12 -27 -4 -6 -1
-7 7 -2 8 5 17 2 24 -7 6 -8 13 -15 16 -16 3 0 16 -5 29 -10 l25 -9 -24 -6
c-14 -4 -31 -1 -40 7 -29 25 -46 31 -27 9 10 -12 15 -23 10 -26 -30 -17 -278
5 -300 26 -7 8 6 27 18 27 6 0 7 -5 3 -11 -4 -8 0 -8 15 0 25 14 28 23 4 14
-16 -6 -16 -5 -5 10 8 8 20 13 28 10 8 -3 14 -2 13 3 -4 26 20 26 76 3z m1009
4 c30 -5 33 -13 5 -13 -14 0 -30 5 -37 12 -8 8 -12 9 -12 1 0 -25 32 -43 78
-43 26 0 53 4 61 9 22 14 3 30 -32 26 -30 -4 -29 -3 8 9 38 12 42 12 77 -13
20 -14 34 -29 31 -33 -2 -5 6 -8 19 -9 13 0 32 -5 43 -10 19 -9 18 -9 -2 -5
-13 2 -26 0 -29 -6 -3 -5 -15 -8 -25 -5 -11 3 -19 1 -19 -5 0 -9 -167 -5 -230
6 -14 2 -29 5 -35 5 -5 1 -16 5 -24 10 -18 11 -5 32 15 24 13 -5 13 -7 2 -14
-9 -6 -6 -8 9 -6 20 1 21 3 7 18 -13 15 -12 18 18 37 18 11 37 18 43 14 5 -3
19 -8 29 -9z m996 -10 c3 -2 -15 -2 -40 0 l-44 4 23 -18 c15 -12 39 -19 66
-19 59 0 75 8 75 37 0 14 4 22 10 18 6 -4 7 -11 4 -17 -4 -6 -2 -8 3 -5 6 4
21 -1 33 -11 22 -18 22 -19 4 -37 -15 -15 -15 -18 -3 -13 9 3 22 3 29 -2 18
-11 -49 -20 -135 -19 -74 1 -172 22 -189 40 -8 7 -5 8 9 3 11 -4 17 -3 13 1
-5 5 1 15 12 22 18 12 24 13 38 1 15 -12 16 -11 3 5 -12 15 -12 20 -2 27 12 7
79 -5 91 -17z m950 5 c10 -6 -1 -7 -32 -3 -28 4 -49 2 -53 -4 -3 -7 0 -8 9 -5
9 3 27 -3 42 -15 21 -17 35 -20 68 -14 22 3 49 11 59 18 16 11 16 13 2 19 -9
3 -21 4 -26 0 -5 -3 -9 -3 -9 1 0 3 10 9 23 14 22 9 51 -4 42 -18 -2 -4 1 -8
8 -8 7 0 34 -12 61 -27 48 -26 46 -31 -11 -29 -7 1 -13 -3 -13 -9 0 -5 -5 -6
-10 -3 -17 11 1 26 22 19 18 -5 19 -4 7 10 -13 14 -16 13 -36 -9 -19 -22 -30
-25 -85 -24 -74 0 -189 19 -183 30 3 4 -4 5 -15 2 -11 -3 -20 -1 -20 5 0 13
29 24 42 15 6 -3 8 -1 4 5 -3 6 6 20 20 31 27 21 49 21 84 -1z m2000 6 c21 -4
53 -1 71 5 27 9 35 8 59 -12 15 -12 36 -28 46 -35 17 -11 17 -11 -3 -2 -14 6
-30 7 -45 1 -25 -11 -20 -12 54 -15 60 -3 66 -9 23 -22 -19 -6 -32 -7 -29 -2
6 10 -10 11 -20 1 -13 -14 -152 -13 -223 2 -40 8 -75 15 -78 15 -3 0 -5 5 -5
11 0 6 9 8 23 4 15 -4 18 -3 8 3 -15 11 3 27 19 17 6 -4 9 -1 8 7 -2 7 3 12
10 11 6 -2 11 0 11 5 -3 18 2 24 17 18 9 -3 33 -9 54 -12z m916 6 c8 0 14 -5
14 -11 0 -5 -4 -7 -10 -4 -5 3 -17 2 -26 -3 -13 -7 -12 -11 8 -24 22 -14 80
-16 116 -3 17 6 15 25 -3 25 -23 0 -18 17 6 23 15 4 30 -3 49 -21 16 -15 34
-28 41 -30 7 -2 24 -9 38 -17 28 -16 31 -14 -31 -19 -7 -1 -16 -5 -20 -11 -5
-6 -8 -4 -8 4 0 12 -3 12 -12 3 -15 -15 -137 -16 -193 -1 -22 5 -50 11 -63 13
-12 2 -26 6 -30 10 -9 10 40 47 55 41 7 -2 15 1 19 7 5 7 2 8 -7 3 -12 -8 -12
-6 0 9 8 9 21 14 28 11 8 -3 21 -5 29 -5z m948 2 c2 -4 22 -9 42 -10 55 -4 55
-12 1 -12 -31 0 -47 4 -47 13 0 8 -3 7 -10 -3 -5 -8 -12 -11 -15 -8 -8 8 3 28
15 28 5 0 11 -4 14 -8z m185 -26 c7 -8 14 -23 15 -33 2 -10 13 -19 26 -21 14
-2 20 0 16 7 -9 13 4 14 23 2 25 -16 -76 -29 -188 -25 -132 6 -131 6 -131 15
0 5 -10 13 -22 19 -23 11 -23 11 -3 -5 20 -17 19 -17 -5 -10 -14 4 -27 9 -30
12 -9 8 25 23 40 17 8 -3 11 -2 7 2 -4 4 -2 13 3 20 8 9 19 8 50 -7 21 -10 55
-19 75 -19 35 0 105 23 105 35 0 3 -4 3 -10 0 -13 -8 -32 4 -25 16 7 11 35 -2
54 -25z m788 20 c-11 -29 18 -51 67 -48 51 2 90 18 81 33 -4 5 -11 7 -16 4 -5
-4 -9 -2 -9 3 0 21 31 20 57 -2 16 -13 43 -31 61 -40 34 -17 44 -30 15 -19
-11 5 -14 3 -8 -6 6 -10 2 -11 -15 -6 -16 5 -20 4 -15 -5 6 -9 2 -9 -15 0 -15
8 -20 8 -16 1 5 -7 -5 -11 -28 -11 -19 0 -36 5 -38 11 -3 9 -9 9 -25 0 -26
-13 -77 -15 -68 -2 3 5 0 13 -6 17 -8 5 -9 3 -4 -6 6 -10 0 -12 -31 -7 -21 4
-40 11 -42 17 -2 5 -8 10 -13 10 -6 0 -7 -5 -3 -11 4 -8 0 -8 -15 0 -23 13
-29 26 -8 18 7 -3 19 4 26 15 8 13 18 17 29 13 9 -3 13 -3 10 1 -8 7 12 33 26
34 4 0 6 -6 3 -14z m-5722 -6 c-3 -5 -16 -10 -28 -10 -18 0 -19 2 -7 10 20 13
43 13 35 0z m4865 0 c0 -5 -2 -10 -4 -10 -3 0 -8 5 -11 10 -3 6 -1 10 4 10 6
0 11 -4 11 -10z m890 0 c0 -5 -8 -10 -17 -10 -15 0 -16 2 -3 10 19 12 20 12
20 0z m-1887 -7 c-7 -2 -21 -2 -30 0 -10 3 -4 5 12 5 17 0 24 -2 18 -5z m1936
-3 c-6 -5 -18 -6 -26 -3 -19 8 -16 11 13 11 17 0 22 -3 13 -8z m-829 -41 c0
-5 -4 -9 -8 -9 -5 0 -9 7 -9 15 0 8 4 12 9 9 4 -3 8 -9 8 -15z m-4870 1 c0 -5
-5 -10 -11 -10 -5 0 -7 5 -4 10 3 6 8 10 11 10 2 0 4 -4 4 -10z m38 -21 c-19
-13 -28 -11 -28 5 0 9 7 12 21 9 16 -4 17 -8 7 -14z m1795 -97 c10 -10 14 -22
10 -25 -8 -9 -106 -9 -128 -1 -14 6 -14 8 1 25 23 26 95 26 117 1z m-167 -84
c-8 13 6 17 18 5 10 -10 35 -14 96 -15 60 0 78 3 99 16 10 7 22 1 41 -20 15
-16 33 -30 41 -32 8 -2 20 -10 27 -19 6 -9 12 -14 12 -10 0 4 17 -2 37 -13 21
-11 45 -20 53 -21 10 0 9 -3 -5 -9 -27 -12 -43 -12 -25 0 8 5 11 10 7 10 -4 0
-18 -6 -30 -14 -39 -25 -191 -38 -292 -26 -96 11 -192 35 -213 52 -10 8 -9 13
5 23 23 17 38 8 21 -13 -12 -15 -11 -16 4 -4 9 8 22 11 28 7 5 -3 13 0 16 9 3
8 13 12 22 9 14 -4 14 -3 3 5 -10 7 -21 7 -32 1 -35 -18 -33 -8 6 30 32 31 43
37 54 28 12 -9 13 -9 7 1z m494 -122 c0 -2 -7 -7 -16 -10 -8 -3 -12 -2 -9 4 6
10 25 14 25 6z"/>
<path d="M4819 2126 l-16 -32 64 -12 c53 -10 113 -32 131 -47 2 -2 -13 -34
-32 -73 l-35 -70 57 -27 c41 -20 88 -59 168 -141 156 -157 192 -238 203 -449
l6 -120 17 50 c50 145 48 305 -4 463 -39 118 -102 215 -197 305 -78 73 -131
107 -229 147 -108 43 -114 44 -133 6z"/>
<path d="M4334 2089 c-250 -132 -398 -376 -398 -659 0 -124 25 -224 80 -328
19 -37 32 -58 29 -48 -3 11 -11 65 -17 121 -20 182 12 328 98 448 24 34 59 85
78 114 30 45 84 94 134 122 10 6 1 27 -37 86 l-50 79 27 18 c15 10 51 23 80
29 54 13 57 15 44 37 -7 9 -22 5 -68 -19z"/>
<path d="M845 1902 c-7 -19 -10 -17 57 -36 31 -9 59 -20 62 -25 3 -5 -5 -29
-19 -53 l-25 -45 38 -17 c20 -9 70 -50 110 -90 64 -65 76 -73 99 -67 42 11 51
36 24 65 -12 13 -21 33 -19 43 3 22 -36 78 -91 129 -74 69 -223 130 -236 96z"/>
<path d="M1873 1901 c-11 -17 -8 -20 25 -26 20 -4 49 -13 65 -21 30 -16 30
-28 0 -87 -14 -27 -13 -28 23 -43 37 -15 137 -111 190 -179 37 -48 64 -144 65
-228 l1 -72 14 34 c9 18 18 70 21 115 15 220 -118 428 -327 507 -62 23 -62 23
-77 0z"/>
<path d="M2838 1902 c-5 -18 1 -22 42 -32 27 -6 56 -17 65 -24 16 -12 16 -15
-4 -54 -11 -23 -21 -43 -21 -46 0 -3 17 -13 37 -23 48 -23 178 -156 207 -213
28 -54 46 -131 47 -208 l1 -57 15 45 c22 64 21 211 -1 280 -44 135 -141 250
-258 308 -89 44 -124 50 -130 24z"/>
<path d="M3811 1902 c-8 -14 0 -19 47 -34 30 -9 59 -15 64 -12 16 10 8 32 -14
39 -74 22 -88 23 -97 7z"/>
<path d="M5806 1903 c-8 -20 -12 -18 56 -37 31 -9 59 -20 62 -25 3 -5 -5 -29
-19 -53 l-25 -45 38 -17 c21 -10 73 -52 115 -94 94 -95 126 -159 142 -287 l11
-90 12 53 c16 70 15 173 -2 243 -15 65 -70 168 -118 220 -83 89 -256 174 -272
132z"/>
<path d="M6746 1904 c-8 -21 -12 -18 57 -38 61 -18 70 -33 44 -71 -30 -45 -29
-55 10 -72 39 -16 159 -133 199 -193 31 -47 54 -140 54 -220 l1 -65 15 35 c8
19 18 71 21 115 14 199 -101 398 -282 485 -83 40 -111 46 -119 24z"/>
<path d="M7710 1900 c-8 -16 -8 -20 3 -20 26 0 117 -33 117 -42 0 -5 -10 -27
-21 -50 -20 -40 -21 -42 -3 -55 10 -7 24 -13 31 -13 19 0 171 -158 194 -202
28 -54 49 -143 50 -213 l1 -60 15 45 c22 65 21 211 -1 280 -50 152 -157 270
-296 327 -68 28 -77 28 -90 3z"/>
<path d="M8693 1901 c-11 -17 -8 -20 25 -26 37 -7 92 -31 92 -41 0 -2 -9 -22
-20 -44 -11 -22 -20 -42 -20 -44 0 -3 16 -13 37 -21 53 -22 179 -158 214 -231
23 -47 31 -83 37 -155 l8 -94 17 72 c9 40 17 90 17 111 0 180 -120 374 -280
450 -91 43 -112 47 -127 23z"/>
<path d="M500 1870 c-67 -35 -155 -126 -193 -198 -65 -122 -80 -224 -53 -347
12 -56 50 -155 59 -155 2 0 0 24 -5 53 -13 69 -5 189 17 254 10 29 33 71 52
92 18 22 33 43 33 48 0 11 60 75 89 93 l23 15 -33 54 c-32 51 -33 54 -14 67
10 8 33 17 52 20 18 3 33 10 33 15 0 14 -22 10 -60 -11z"/>
<path d="M1535 1873 c-215 -116 -316 -371 -239 -601 14 -42 29 -80 33 -85 4
-4 6 41 3 101 -5 122 10 194 53 253 13 19 34 48 45 64 11 17 24 37 30 45 6 8
14 20 18 25 4 6 22 20 39 31 l33 20 -35 52 -34 52 23 15 c12 8 36 18 54 21 18
4 32 10 32 15 0 13 -21 10 -55 -8z"/>
<path d="M2502 1873 c-18 -8 -31 -18 -28 -20 2 -3 13 0 24 6 12 6 30 11 41 11
12 0 21 5 21 10 0 14 -20 12 -58 -7z"/>
<path d="M3463 1869 c-18 -12 -33 -22 -33 -23 0 -2 22 5 49 13 27 9 47 19 44
24 -7 12 -26 8 -60 -14z"/>
<path d="M6399 1870 c-19 -10 -59 -40 -87 -66 -48 -43 -51 -48 -37 -64 19 -21
19 -54 0 -70 -21 -17 -19 -47 5 -60 16 -9 22 -6 37 17 22 35 39 52 75 79 l28
21 -34 52 -35 51 23 15 c12 8 36 18 54 21 18 4 32 10 32 15 0 14 -22 10 -61
-11z"/>
<path d="M7368 1869 c-21 -11 -38 -21 -38 -23 0 -6 88 28 96 37 14 14 -22 6
-58 -14z"/>
<path d="M8333 1860 c-76 -44 -144 -116 -137 -145 4 -16 -1 -30 -15 -44 -28
-28 -26 -49 5 -61 43 -17 61 -11 82 24 12 19 39 48 61 64 l40 29 -35 51 -34
51 23 16 c13 8 37 18 55 21 18 4 32 10 32 15 0 16 -24 9 -77 -21z"/>
<path d="M2400 1801 c-46 -43 -51 -52 -46 -78 5 -22 1 -36 -15 -57 -18 -23
-20 -30 -8 -41 8 -8 26 -17 40 -20 22 -6 29 -1 47 29 11 19 38 48 60 63 43 32
43 28 -10 106 -10 15 -16 32 -13 37 13 21 -4 8 -55 -39z"/>
<path d="M3360 1791 c-40 -40 -49 -55 -41 -65 13 -15 4 -47 -16 -59 -22 -14
-15 -47 13 -57 40 -16 51 -12 72 24 12 19 38 48 59 63 l39 28 -37 58 -38 59
-51 -51z"/>
<path d="M7266 1794 c-40 -38 -46 -49 -41 -73 4 -19 0 -34 -15 -51 -25 -28
-25 -33 -2 -53 30 -27 58 -21 80 17 12 19 39 48 61 64 l40 29 -36 54 c-19 30
-36 55 -37 56 -2 2 -24 -18 -50 -43z"/>
<path d="M5573 1346 c-34 -15 -59 -51 -44 -61 6 -3 13 1 18 8 13 23 51 38 80
32 24 -5 25 -4 8 5 -17 9 -17 10 7 5 14 -3 37 -1 50 4 l23 10 -26 0 c-15 1
-39 3 -55 6 -16 3 -43 -1 -61 -9z"/>
<path d="M1858 1323 c7 -3 16 -2 19 1 4 3 -2 6 -13 5 -11 0 -14 -3 -6 -6z"/>
<path d="M3658 1323 c6 -2 18 -2 25 0 6 3 1 5 -13 5 -14 0 -19 -2 -12 -5z"/>
<path d="M5595 1310 c6 -10 3 -12 -11 -7 -18 7 -18 6 -1 -7 22 -17 22 -21 -3
-23 -12 -1 -18 3 -14 8 3 6 -3 5 -15 -3 -25 -15 -26 -24 -7 -35 8 -4 30 -22
49 -40 36 -33 77 -36 77 -6 0 8 4 12 9 9 5 -4 12 0 14 6 4 10 8 10 15 -1 11
-16 62 -8 62 10 0 6 3 8 8 5 4 -2 7 14 7 35 0 22 -1 36 -3 30 -2 -6 -8 -9 -13
-5 -5 3 -9 1 -9 -4 0 -15 -31 -24 -44 -13 -7 6 -22 8 -34 4 -21 -5 -21 -6 -5
-18 16 -12 16 -14 0 -29 -18 -19 -37 -14 -37 10 0 8 -5 14 -12 14 -6 0 -3 7 8
15 12 9 14 14 6 15 -7 0 -11 4 -8 9 4 5 -4 7 -16 3 -14 -3 -19 -1 -14 6 3 6 1
14 -5 18 -8 5 -9 3 -4 -6z"/>
<path d="M5654 1309 c-3 -6 -1 -16 6 -22 10 -9 11 -9 5 2 -4 8 -2 17 6 22 9 6
10 9 2 9 -6 0 -15 -5 -19 -11z"/>
<path d="M5768 1313 c7 -3 16 -2 19 1 4 3 -2 6 -13 5 -11 0 -14 -3 -6 -6z"/>
<path d="M3638 1303 c6 -2 18 -2 25 0 6 3 1 5 -13 5 -14 0 -19 -2 -12 -5z"/>
<path d="M5810 1300 c0 -5 7 -7 15 -4 8 4 15 8 15 10 0 2 -7 4 -15 4 -8 0 -15
-4 -15 -10z"/>
<path d="M1825 1290 c-14 -6 -15 -9 -5 -10 12 0 11 -3 -3 -11 -14 -8 -24 -6
-43 6 -14 9 -28 14 -32 11 -3 -3 -1 -6 4 -6 5 0 10 -9 10 -20 0 -22 -21 -27
-29 -7 -4 9 -6 9 -6 -1 -1 -7 7 -15 17 -19 9 -3 25 -13 34 -21 19 -16 64 -10
71 11 2 6 3 -1 1 -18 -3 -29 -2 -29 8 -7 8 17 9 29 1 40 -5 9 -9 27 -8 40 1
12 1 22 1 21 -1 0 -10 -4 -21 -9z"/>
<path d="M5730 1290 c0 -5 5 -10 10 -10 6 0 10 5 10 10 0 6 -4 10 -10 10 -5 0
-10 -4 -10 -10z"/>
<path d="M5912 1293 c-6 -2 -9 -10 -5 -16 4 -6 0 -8 -9 -4 -9 3 -20 1 -26 -5
-6 -6 -12 -6 -17 2 -5 8 -12 1 -20 -21 -7 -19 -16 -42 -20 -51 -6 -16 -4 -16
40 -2 28 10 64 14 91 11 37 -4 46 -1 55 14 7 15 6 19 -6 19 -8 0 -15 7 -15 15
0 9 -6 12 -17 8 -12 -5 -14 -3 -8 7 5 9 4 11 -3 6 -7 -4 -17 -4 -23 0 -8 4 -7
9 2 15 15 9 2 11 -19 2z"/>
<path d="M8583 1280 c-3 -11 -12 -20 -20 -20 -8 0 -11 -4 -8 -10 3 -5 1 -10
-4 -10 -6 0 -11 -4 -11 -9 0 -5 8 -8 18 -6 9 1 25 -4 34 -12 17 -16 58 -10 58
8 0 6 4 8 9 4 6 -3 9 11 8 34 -1 24 -4 35 -9 28 -6 -9 -8 -8 -8 3 -1 9 -5 6
-10 -7 -6 -16 -15 -20 -30 -16 -13 3 -19 11 -16 19 3 8 3 14 0 14 -3 0 -8 -9
-11 -20z"/>
<path d="M8610 1289 c0 -5 5 -7 10 -4 6 3 10 8 10 11 0 2 -4 4 -10 4 -5 0 -10
-5 -10 -11z"/>
<path d="M8810 1291 c0 -5 7 -12 16 -15 14 -5 15 -4 4 9 -14 17 -20 19 -20 6z"/>
<path d="M1891 1273 c0 -11 3 -13 6 -5 6 15 43 16 43 1 0 -6 -6 -9 -14 -6 -16
6 -34 -30 -28 -56 3 -13 9 -16 20 -11 27 11 116 13 130 2 8 -7 12 -7 12 1 0 7
5 9 10 6 19 -11 6 18 -17 40 -13 12 -19 26 -15 30 4 4 -2 3 -12 -2 -14 -8 -31
-7 -59 3 -54 19 -77 18 -76 -3z"/>
<path d="M3687 1263 c3 -15 6 -35 6 -43 -1 -11 7 -15 25 -15 41 2 62 15 62 40
0 13 6 26 13 29 6 3 -7 3 -30 0 -23 -3 -51 -1 -63 6 -19 10 -20 9 -13 -17z"/>
<path d="M8788 1281 c-2 -5 -14 -12 -27 -16 -13 -4 -21 -3 -18 2 3 5 -3 9 -14
9 -10 0 -19 -4 -19 -8 0 -4 3 -8 8 -8 4 0 6 -24 5 -52 -1 -29 1 -45 3 -35 8
26 52 41 72 25 12 -10 14 -10 8 0 -10 17 2 15 20 -3 9 -8 20 -15 27 -15 6 0 2
7 -9 15 -18 15 -18 15 10 13 23 -2 29 1 32 19 2 12 -1 25 -8 29 -7 4 -8 3 -4
-4 5 -8 2 -10 -8 -6 -9 3 -13 11 -9 17 3 6 1 7 -6 3 -6 -4 -23 -1 -36 8 -13 8
-25 12 -27 7z"/>
<path d="M3660 1256 c0 -8 4 -17 9 -20 5 -4 7 3 4 14 -6 23 -13 26 -13 6z"/>
<path d="M3790 1241 c0 -9 30 -24 36 -18 2 1 -6 8 -16 15 -11 7 -20 8 -20 3z"/>
<path d="M1872 1220 c0 -14 2 -19 5 -12 2 6 2 18 0 25 -3 6 -5 1 -5 -13z"/>
<path d="M8548 1203 c7 -3 16 -2 19 1 4 3 -2 6 -13 5 -11 0 -14 -3 -6 -6z"/>
<path d="M1588 1182 c-22 -13 -28 -24 -28 -50 0 -24 -4 -31 -12 -26 -7 4 -10
4 -6 -1 4 -4 3 -16 -3 -26 -6 -11 -6 -19 0 -19 5 0 12 7 15 15 5 14 10 13 36
-7 23 -17 33 -19 42 -10 18 18 32 14 17 -5 -11 -13 -8 -13 13 2 18 14 22 21
12 23 -11 3 -8 8 8 22 19 16 20 19 6 20 -11 0 -16 6 -13 19 2 11 -3 22 -11 25
-9 3 -13 10 -10 15 3 5 -4 7 -16 3 -14 -3 -19 -2 -14 6 10 17 -4 14 -36 -6z
m25 -66 c4 -10 1 -13 -9 -9 -15 6 -19 23 -5 23 5 0 11 -7 14 -14z"/>
<path d="M5879 1193 c-10 -2 -20 -14 -23 -26 -5 -18 -8 -19 -15 -8 -6 10 -8 3
-6 -22 3 -33 26 -80 36 -74 2 1 -2 -3 -9 -9 -10 -9 -10 -13 3 -18 10 -4 14 -2
9 5 -4 8 1 9 17 4 19 -5 21 -4 9 4 -15 10 -8 13 25 11 14 -1 34 30 39 63 6 35
-3 49 -29 53 -48 6 -49 7 -20 14 27 7 27 8 5 8 -14 0 -32 -2 -41 -5z m19 -81
c2 -7 -2 -10 -12 -6 -9 3 -16 11 -16 16 0 13 23 5 28 -10z"/>
<path d="M1750 1180 c-8 -5 -12 -12 -9 -15 4 -3 12 1 19 10 14 17 11 19 -10 5z"/>
<path d="M1928 1171 c3 -9 1 -12 -6 -7 -15 9 -16 -57 -1 -85 8 -16 19 -19 58
-17 47 3 47 3 48 38 2 58 -18 84 -65 85 -30 0 -38 -3 -34 -14z m35 -55 c4 -10
1 -13 -9 -9 -7 3 -14 9 -14 14 0 14 17 10 23 -5z"/>
<path d="M3650 1175 c-7 -9 -10 -18 -6 -22 3 -3 6 -1 6 6 0 7 5 9 10 6 6 -4 7
-11 4 -17 -4 -6 -2 -8 4 -5 10 7 11 32 0 42 -3 3 -11 -1 -18 -10z"/>
<path d="M8637 1179 c7 -7 15 -10 18 -7 3 3 -2 9 -12 12 -14 6 -15 5 -6 -5z"/>
<path d="M8770 1179 c0 -5 -6 -9 -14 -9 -8 0 -17 -8 -21 -17 -12 -29 -14 -63
-4 -63 6 0 8 -4 5 -9 -4 -5 7 -12 24 -16 19 -4 28 -11 23 -18 -4 -7 1 -6 10 2
13 10 23 11 41 3 18 -8 23 -7 23 4 0 8 -6 13 -14 10 -22 -9 -15 13 13 41 14
14 19 23 11 20 -9 -3 -18 1 -21 9 -3 9 1 14 12 15 12 0 9 4 -8 11 -48 20 -80
27 -80 17z m14 -65 c4 -10 1 -14 -6 -12 -15 5 -23 28 -10 28 5 0 13 -7 16 -16z"/>
<path d="M3765 1170 c-3 -5 -1 -10 4 -10 6 0 11 5 11 10 0 6 -2 10 -4 10 -3 0
-8 -4 -11 -10z"/>
<path d="M1851 1154 c0 -11 3 -14 6 -6 3 7 2 16 -1 19 -3 4 -6 -2 -5 -13z"/>
<path d="M5580 1150 c-13 -11 -27 -20 -33 -20 -5 0 -7 -7 -3 -15 7 -19 1 -19
-19 1 -15 16 -18 16 -33 -1 -14 -14 -14 -18 -3 -22 7 -3 22 -14 33 -25 19 -19
19 -19 53 2 38 23 50 47 34 66 -6 7 -8 18 -4 24 10 16 0 12 -25 -10z"/>
<path d="M5668 1163 c7 -3 16 -2 19 1 4 3 -2 6 -13 5 -11 0 -14 -3 -6 -6z"/>
<path d="M2072 1146 c7 -8 15 -12 17 -11 5 6 -10 25 -20 25 -5 0 -4 -6 3 -14z"/>
<path d="M1876 1137 c3 -10 9 -15 12 -12 3 3 0 11 -7 18 -10 9 -11 8 -5 -6z"/>
<path d="M5991 1140 c-9 -5 -4 -7 13 -7 29 0 32 2 13 10 -8 3 -20 2 -26 -3z"/>
<path d="M3762 1115 c0 -16 2 -22 5 -12 2 9 2 23 0 30 -3 6 -5 -1 -5 -18z"/>
<path d="M8910 1120 c0 -5 5 -10 11 -10 5 0 7 5 4 10 -3 6 -8 10 -11 10 -2 0
-4 -4 -4 -10z"/>
<path d="M1755 1111 c-3 -5 0 -13 6 -17 7 -4 9 -3 5 4 -4 7 6 12 26 15 l33 4
-32 1 c-17 1 -34 -2 -38 -7z"/>
<path d="M2036 1105 c-6 -17 21 -48 35 -40 5 4 9 8 9 11 0 3 -4 2 -10 -1 -13
-8 -13 1 1 28 9 20 9 20 -4 5 -17 -22 -28 -23 -21 -3 4 8 4 15 1 15 -3 0 -7
-7 -11 -15z"/>
<path d="M2086 1103 c-4 -11 -1 -11 14 -3 24 13 25 17 5 17 -8 0 -16 -6 -19
-14z"/>
<path d="M6021 1104 c0 -11 3 -14 6 -6 3 7 2 16 -1 19 -3 4 -6 -2 -5 -13z"/>
<path d="M5649 1097 c5 -5 21 -7 37 -5 27 3 26 4 -8 9 -22 3 -34 1 -29 -4z"/>
<path d="M8540 1100 c0 -5 5 -10 11 -10 5 0 7 5 4 10 -3 6 -8 10 -11 10 -2 0
-4 -4 -4 -10z"/>
<path d="M8900 1092 c6 -13 14 -21 18 -18 3 4 -2 14 -12 24 -18 16 -18 16 -6
-6z"/>
<path d="M1818 1093 c7 -3 16 -2 19 1 4 3 -2 6 -13 5 -11 0 -14 -3 -6 -6z"/>
<path d="M2110 1090 c-8 -5 -12 -12 -9 -15 4 -3 12 1 19 10 14 17 11 19 -10 5z"/>
<path d="M3620 1084 c0 -8 5 -12 10 -9 6 3 10 10 10 16 0 5 -4 9 -10 9 -5 0
-10 -7 -10 -16z"/>
<path d="M6040 1096 c0 -2 7 -9 15 -16 13 -11 14 -10 9 4 -5 14 -24 23 -24 12z"/>
<path d="M8932 1080 c0 -14 2 -19 5 -12 2 6 2 18 0 25 -3 6 -5 1 -5 -13z"/>
<path d="M8875 1070 c3 -5 8 -10 11 -10 2 0 4 5 4 10 0 6 -5 10 -11 10 -5 0
-7 -4 -4 -10z"/>
<path d="M3836 1055 c4 -8 12 -15 19 -15 8 0 16 -8 18 -17 4 -15 5 -16 6 -2 0
9 -10 24 -24 33 -21 14 -24 14 -19 1z"/>
<path d="M5500 1059 c0 -5 5 -7 10 -4 6 3 10 8 10 11 0 2 -4 4 -10 4 -5 0 -10
-5 -10 -11z"/>
<path d="M6012 1045 c6 -13 15 -22 19 -19 5 2 1 14 -9 24 -22 26 -24 25 -10
-5z"/>
<path d="M5575 1051 c6 -11 4 -13 -8 -8 -23 9 -21 0 2 -13 15 -7 19 -7 17 5
-1 8 -6 18 -11 22 -4 5 -5 2 0 -6z"/>
<path d="M8469 1047 c13 -17 13 -18 -4 -15 -10 1 -19 -3 -21 -10 -1 -7 0 -8 2
-3 3 5 14 7 24 4 25 -7 26 10 3 28 -17 13 -17 12 -4 -4z"/>
<path d="M1917 1034 c2 -7 11 -10 19 -7 19 7 18 10 -5 16 -13 3 -18 1 -14 -9z"/>
<path d="M5480 1041 c0 -6 4 -13 10 -16 6 -3 7 1 4 9 -7 18 -14 21 -14 7z"/>
<path d="M8409 1033 c-13 -17 -13 -17 6 -3 11 8 22 16 24 17 2 2 0 3 -6 3 -6
0 -17 -8 -24 -17z"/>
<path d="M8738 1043 c6 -2 18 -2 25 0 6 3 1 5 -13 5 -14 0 -19 -2 -12 -5z"/>
<path d="M8920 1040 c-8 -5 -10 -10 -5 -10 6 0 17 5 25 10 8 5 11 10 5 10 -5
0 -17 -5 -25 -10z"/>
<path d="M1605 1030 c-3 -5 -2 -10 4 -10 5 0 13 5 16 10 3 6 2 10 -4 10 -5 0
-13 -4 -16 -10z"/>
<path d="M5542 1024 c10 -10 20 -16 22 -13 3 3 -5 11 -17 18 -21 13 -21 12 -5
-5z"/>
<path d="M2080 1013 c0 -19 21 -27 33 -13 9 10 9 11 -2 5 -8 -4 -17 -2 -22 6
-6 9 -9 10 -9 2z"/>
<path d="M8885 1012 c-3 -3 -5 -10 -5 -16 0 -6 5 -4 10 4 7 11 12 12 18 3 5
-8 11 -8 24 1 15 11 14 13 -12 13 -17 0 -32 -3 -35 -5z"/>
<path d="M5985 1000 c-3 -5 1 -10 10 -10 9 0 13 5 10 10 -3 6 -8 10 -10 10 -2
0 -7 -4 -10 -10z"/>
<path d="M7108 913 c7 -3 16 -2 19 1 4 3 -2 6 -13 5 -11 0 -14 -3 -6 -6z"/>
<path d="M3986 807 c3 -10 9 -15 12 -12 3 3 0 11 -7 18 -10 9 -11 8 -5 -6z"/>
<path d="M698 1323 c7 -3 16 -2 19 1 4 3 -2 6 -13 5 -11 0 -14 -3 -6 -6z"/>
<path d="M660 1291 c-8 -6 -18 -7 -24 -4 -5 3 -6 1 -3 -5 8 -12 47 -4 47 9 0
11 -1 11 -20 0z"/>
<path d="M970 1296 c0 -2 7 -9 15 -16 9 -7 15 -8 15 -2 0 5 -7 12 -15 16 -8 3
-15 4 -15 2z"/>
<path d="M970 1190 c0 -5 5 -10 11 -10 5 0 7 5 4 10 -3 6 -8 10 -11 10 -2 0
-4 -4 -4 -10z"/>
<path d="M914 1182 c7 -12 -21 -25 -49 -24 -15 0 -16 0 -3 -4 10 -3 15 -11 11
-20 -3 -9 4 -29 17 -46 18 -25 20 -32 9 -39 -8 -5 -17 -9 -21 -9 -5 0 -8 -5
-8 -11 0 -6 13 -1 29 10 33 24 57 27 64 9 3 -8 6 -7 6 4 1 24 19 32 37 17 21
-17 30 -3 10 16 -13 14 -21 48 -18 76 1 4 -11 10 -26 13 -15 4 -35 9 -46 13
-11 3 -16 1 -12 -5z m24 -70 c2 -7 -2 -10 -12 -6 -9 3 -16 11 -16 16 0 13 23
5 28 -10z"/>
<path d="M817 1169 c7 -7 15 -10 18 -7 3 3 -2 9 -12 12 -14 6 -15 5 -6 -5z"/>
<path d="M710 1100 c-18 -12 -2 -12 25 0 13 6 15 9 5 9 -8 0 -22 -4 -30 -9z"/>
<path d="M870 1076 c0 -2 7 -7 16 -10 8 -3 12 -2 9 4 -6 10 -25 14 -25 6z"/>
<path d="M635 1060 c3 -5 8 -10 11 -10 2 0 4 5 4 10 0 6 -5 10 -11 10 -5 0 -7
-4 -4 -10z"/>
<path d="M1085 1050 c10 -11 22 -20 26 -20 5 0 1 9 -8 20 -10 11 -22 20 -27
20 -5 0 -1 -9 9 -20z"/>
<path d="M1025 1040 c-3 -5 -2 -10 4 -10 5 0 13 5 16 10 3 6 2 10 -4 10 -5 0
-13 -4 -16 -10z"/>
<path d="M1057 1030 c-3 -11 -2 -20 3 -20 12 0 21 28 11 35 -5 2 -11 -4 -14
-15z"/>
<path d="M560 1036 c0 -2 7 -7 16 -10 8 -3 12 -2 9 4 -6 10 -25 14 -25 6z"/>
<path d="M900 1016 c0 -2 7 -6 15 -10 8 -3 15 -1 15 4 0 6 -7 10 -15 10 -8 0
-15 -2 -15 -4z"/>
<path d="M466 993 c-6 -14 -5 -15 5 -6 7 7 10 15 7 18 -3 3 -9 -2 -12 -12z"/>
<path d="M2830 1320 c8 -5 20 -10 25 -10 6 0 3 5 -5 10 -8 5 -19 10 -25 10 -5
0 -3 -5 5 -10z"/>
<path d="M2875 1310 c-3 -6 1 -7 9 -4 18 7 21 14 7 14 -6 0 -13 -4 -16 -10z"/>
<path d="M2650 1288 c0 -4 7 -8 15 -8 8 0 15 4 15 8 0 5 -7 9 -15 9 -8 0 -15
-4 -15 -9z"/>
<path d="M2856 1275 c-3 -9 -6 -26 -5 -38 1 -14 4 -9 9 13 9 37 7 52 -4 25z"/>
<path d="M2700 1215 c-7 -8 -9 -15 -4 -15 5 0 2 -5 -6 -10 -13 -8 -12 -10 4
-10 12 0 16 5 13 14 -3 8 -1 17 6 19 7 2 9 7 6 11 -3 4 -12 0 -19 -9z"/>
<path d="M2857 1179 c7 -7 15 -10 18 -7 3 3 -2 9 -12 12 -14 6 -15 5 -6 -5z"/>
<path d="M2904 1181 c19 -7 19 -8 -1 -13 -26 -7 -34 -44 -16 -80 10 -22 21
-28 44 -28 21 0 28 -4 24 -12 -4 -7 0 -5 9 6 8 10 20 15 27 10 8 -4 10 -3 5 4
-4 6 -2 21 4 32 9 16 8 24 -5 36 -8 8 -15 19 -15 24 0 5 -17 14 -37 19 -43 12
-68 13 -39 2z m30 -67 c4 -10 1 -14 -6 -12 -15 5 -23 28 -10 28 5 0 13 -7 16
-16z"/>
<path d="M2677 1158 c-12 -10 -14 -17 -6 -28 9 -13 10 -13 6 0 -2 8 5 20 17
27 12 7 16 12 10 13 -5 0 -18 -6 -27 -12z"/>
<path d="M3060 1119 c0 -6 -10 -8 -22 -5 -13 3 -17 3 -10 0 17 -8 15 -25 -3
-18 -17 7 -21 -21 -5 -31 5 -3 7 0 5 7 -3 8 2 14 14 15 14 1 19 -4 18 -18 -1
-10 -5 -19 -10 -19 -4 0 -5 -5 -2 -11 4 -6 10 -8 13 -5 7 7 13 96 6 96 -2 0
-4 -5 -4 -11z"/>
<path d="M3083 1088 c1 -15 6 -23 11 -18 4 4 4 16 -2 26 -9 16 -10 14 -9 -8z"/>
<path d="M2650 1079 c0 -5 5 -7 10 -4 6 3 10 8 10 11 0 2 -4 4 -10 4 -5 0 -10
-5 -10 -11z"/>
<path d="M2630 1071 c0 -6 4 -13 10 -16 6 -3 7 1 4 9 -7 18 -14 21 -14 7z"/>
<path d="M2905 1020 c3 -5 8 -10 11 -10 2 0 4 5 4 10 0 6 -5 10 -11 10 -5 0
-7 -4 -4 -10z"/>
<path d="M3077 1019 c7 -7 15 -10 18 -7 3 3 -2 9 -12 12 -14 6 -15 5 -6 -5z"/>
<path d="M2500 995 c-7 -9 -8 -15 -2 -15 5 0 12 7 16 15 3 8 4 15 2 15 -2 0
-9 -7 -16 -15z"/>
<path d="M6648 1323 c6 -2 18 -2 25 0 6 3 1 5 -13 5 -14 0 -19 -2 -12 -5z"/>
<path d="M6710 1302 c0 -5 -7 -17 -16 -28 -14 -18 -15 -18 -9 6 5 21 4 22 -5
8 -6 -10 -19 -18 -28 -17 -10 0 -12 3 -4 6 6 2 12 9 12 14 0 4 -7 6 -15 3 -8
-4 -15 -14 -15 -24 0 -10 -3 -26 -7 -36 -6 -16 -7 -16 -13 1 -6 18 -7 18 -12
-2 -5 -18 -2 -21 18 -17 12 2 26 0 29 -6 9 -15 41 -12 56 6 12 14 14 14 20 -3
5 -12 8 -14 8 -3 0 8 -3 21 -8 29 -7 10 -4 19 7 29 16 13 16 13 -1 8 -15 -5
-17 -2 -12 14 4 11 4 20 1 20 -3 0 -6 -4 -6 -8z"/>
<path d="M6820 1299 c0 -5 5 -7 10 -4 6 3 10 8 10 11 0 2 -4 4 -10 4 -5 0 -10
-5 -10 -11z"/>
<path d="M6761 1270 c-6 -18 -6 -30 0 -30 15 0 10 -28 -7 -38 -14 -8 -14 -10
1 -22 8 -7 18 -10 22 -6 3 3 1 6 -5 6 -7 0 -12 4 -12 9 0 5 6 8 13 8 6 -1 29
3 50 7 29 7 42 5 56 -8 10 -9 21 -16 26 -16 5 0 0 7 -11 16 -18 15 -18 15 8
10 15 -4 30 -2 33 4 7 12 -38 57 -57 57 -7 0 -26 3 -41 7 -18 4 -27 2 -27 -5
0 -7 -3 -9 -7 -6 -3 4 -13 1 -21 -6 -13 -10 -14 -8 -8 16 9 36 1 35 -13 -3z"/>
<path d="M6845 1290 c-3 -5 -1 -10 4 -10 6 0 11 5 11 10 0 6 -2 10 -4 10 -3 0
-8 -4 -11 -10z"/>
<path d="M6625 1199 c-4 -6 -5 -12 -2 -15 2 -3 7 2 10 11 7 17 1 20 -8 4z"/>
<path d="M6432 1154 c-19 -19 -30 -34 -23 -34 6 0 17 -11 23 -25 6 -14 16 -25
22 -25 6 0 23 -6 38 -14 20 -11 25 -11 22 -2 -3 7 3 19 13 27 16 13 17 12 5
-3 -9 -12 -10 -18 -2 -23 6 -4 14 -4 17 -1 4 3 1 6 -6 6 -7 0 -9 5 -4 13 4 6
6 21 5 32 -2 17 -1 18 8 5 10 -13 11 -13 7 1 -3 9 -1 21 5 27 6 6 6 12 -3 17
-7 5 -10 4 -5 -3 3 -6 2 -13 -4 -17 -9 -5 -14 6 -12 26 1 3 -15 11 -35 17 -33
10 -37 9 -71 -24z m51 -38 c4 -10 1 -13 -9 -9 -7 3 -14 9 -14 14 0 14 17 10
23 -5z"/>
<path d="M6795 1171 c-34 -18 -61 -41 -48 -41 5 0 14 5 21 12 9 9 11 4 7 -21
-3 -27 1 -35 27 -51 24 -15 35 -16 54 -8 35 16 58 56 44 73 -7 8 -9 18 -6 23
3 5 -11 14 -32 19 -28 7 -44 6 -67 -6z m38 -55 c4 -10 1 -13 -9 -9 -7 3 -14 9
-14 14 0 14 17 10 23 -5z"/>
<path d="M6720 1176 c0 -2 7 -9 15 -16 9 -7 15 -8 15 -2 0 5 -7 12 -15 16 -8
3 -15 4 -15 2z"/>
<path d="M6700 1140 c0 -5 5 -10 10 -10 6 0 10 5 10 10 0 6 -4 10 -10 10 -5 0
-10 -4 -10 -10z"/>
<path d="M6965 1119 c-4 -6 -5 -12 -2 -15 2 -3 7 2 10 11 7 17 1 20 -8 4z"/>
<path d="M6377 1101 c-4 -17 -3 -21 5 -13 5 5 8 16 6 23 -3 8 -7 3 -11 -10z"/>
<path d="M6693 1093 c9 -2 23 -2 30 0 6 3 -1 5 -18 5 -16 0 -22 -2 -12 -5z"/>
<path d="M6411 1067 c-8 -10 -7 -14 2 -14 8 0 14 6 14 14 0 7 -1 13 -2 13 -2
0 -8 -6 -14 -13z"/>
<path d="M6906 1063 c-6 -14 -5 -15 5 -6 7 7 10 15 7 18 -3 3 -9 -2 -12 -12z"/>
<path d="M6446 1045 c-3 -8 -1 -15 4 -15 6 0 10 7 10 15 0 8 -2 15 -4 15 -2 0
-6 -7 -10 -15z"/>
<path d="M6781 1041 c-9 -6 -6 -8 13 -8 14 0 23 3 20 8 -7 11 -15 11 -33 0z"/>
<path d="M7698 1323 c7 -3 16 -2 19 1 4 3 -2 6 -13 5 -11 0 -14 -3 -6 -6z"/>
<path d="M7669 1306 c7 -9 8 -17 2 -20 -5 -3 -12 0 -15 6 -3 7 -3 3 0 -9 4
-18 1 -20 -18 -16 -13 4 -26 10 -29 15 -3 4 -16 -10 -28 -33 -16 -28 -19 -40
-10 -37 8 3 13 11 12 17 -2 6 2 11 7 11 17 0 11 -28 -7 -39 -10 -6 -13 -11 -6
-11 6 0 14 4 17 8 3 5 18 7 34 4 35 -5 55 17 56 61 1 21 7 33 18 35 13 2 18
-6 21 -35 l4 -38 -1 40 c-1 35 -4 40 -23 39 -13 0 -23 3 -23 8 0 4 -5 8 -11 8
-8 0 -8 -4 0 -14z"/>
<path d="M7701 1264 c0 -11 3 -14 6 -6 3 7 2 16 -1 19 -3 4 -6 -2 -5 -13z"/>
<path d="M7780 1271 c0 -6 -9 -11 -20 -11 -14 0 -20 -7 -20 -21 0 -11 -10 -29
-22 -40 -13 -10 -17 -18 -10 -19 6 0 12 4 12 9 0 9 6 10 114 14 75 3 96 18 52
39 -19 8 -23 14 -14 19 7 5 0 7 -17 7 -17 -1 -40 2 -53 6 -13 5 -22 3 -22 -3z"/>
<path d="M7682 1190 c0 -14 2 -19 5 -12 2 6 2 18 0 25 -3 6 -5 1 -5 -13z"/>
<path d="M7410 1170 c-19 -17 -30 -30 -26 -30 5 0 3 -7 -4 -15 -7 -9 -10 -18
-6 -22 3 -3 6 -1 6 6 0 7 5 9 10 6 8 -5 7 -11 -1 -21 -10 -12 -9 -13 6 -8 13
5 16 4 11 -4 -7 -11 -2 -13 44 -17 8 0 21 -5 29 -9 10 -6 12 -5 7 2 -4 7 -3
12 3 12 5 0 12 -6 15 -12 3 -7 3 -2 0 11 -4 13 -2 21 3 18 5 -3 9 15 9 42 -1
37 -4 47 -15 43 -9 -3 -12 -1 -7 6 5 8 2 10 -9 6 -8 -4 -21 -1 -28 5 -11 8
-22 4 -47 -19z m44 -55 c6 -17 4 -18 -18 -9 -20 8 -21 24 -2 24 8 0 16 -7 20
-15z"/>
<path d="M7818 1193 c7 -3 16 -2 19 1 4 3 -2 6 -13 5 -11 0 -14 -3 -6 -6z"/>
<path d="M7767 1171 c-22 -23 -29 -55 -17 -85 7 -18 18 -25 49 -28 36 -3 42
-1 52 24 6 15 16 25 21 22 6 -4 6 2 -1 13 -6 11 -8 23 -5 26 7 7 -33 33 -61
40 -12 3 -27 -2 -38 -12z m37 -57 c4 -10 1 -14 -6 -12 -15 5 -23 28 -10 28 5
0 13 -7 16 -16z"/>
<path d="M7731 1164 c0 -11 3 -14 6 -6 3 7 2 16 -1 19 -3 4 -6 -2 -5 -13z"/>
<path d="M7888 1122 c4 -10 7 -12 10 -4 2 7 9 9 15 5 7 -3 8 -2 4 2 -14 16
-36 14 -29 -3z"/>
<path d="M7340 1124 c0 -6 7 -19 16 -30 14 -18 14 -18 3 6 -14 31 -19 36 -19
24z"/>
<path d="M7926 1097 c3 -10 9 -15 12 -12 3 3 0 11 -7 18 -10 9 -11 8 -5 -6z"/>
<path d="M7720 1080 c0 -5 5 -10 11 -10 5 0 7 5 4 10 -3 6 -8 10 -11 10 -2 0
-4 -4 -4 -10z"/>
<path d="M7857 1078 c-3 -10 3 -14 23 -14 20 0 26 4 23 14 -5 11 -7 11 -14 0
-8 -11 -10 -11 -18 0 -7 11 -9 11 -14 0z"/>
<path d="M7341 1064 c0 -11 3 -14 6 -6 3 7 2 16 -1 19 -3 4 -6 -2 -5 -13z"/>
<path d="M7455 1040 c3 -5 16 -10 28 -9 21 0 21 1 2 9 -28 12 -37 12 -30 0z"/>
<path d="M7953 1035 c-3 -9 -3 -18 -1 -21 3 -3 8 4 11 16 6 23 -1 27 -10 5z"/>
<path d="M7351 1014 c0 -11 3 -14 6 -6 3 7 2 16 -1 19 -3 4 -6 -2 -5 -13z"/>
<path d="M7377 1013 c-4 -3 -7 -11 -7 -17 0 -6 5 -5 12 2 6 6 9 14 7 17 -3 3
-9 2 -12 -2z"/>
<path d="M7920 1009 c0 -5 5 -7 10 -4 6 3 10 8 10 11 0 2 -4 4 -10 4 -5 0 -10
-5 -10 -11z"/>
<path d="M4605 1210 c3 -5 8 -10 11 -10 2 0 4 5 4 10 0 6 -5 10 -11 10 -5 0
-7 -4 -4 -10z"/>
<path d="M4640 1200 c13 -25 13 -51 0 -30 -5 8 -10 10 -10 4 0 -6 12 -23 26
-38 25 -25 26 -26 6 -26 -11 0 -23 -4 -26 -9 -3 -4 16 -4 42 1 26 6 57 12 70
14 15 3 22 12 22 27 0 18 2 19 11 7 7 -11 8 -4 3 25 -8 49 -13 55 -25 32 -11
-18 -39 -24 -39 -7 0 6 -5 10 -11 10 -5 0 -7 -4 -4 -10 3 -5 -1 -10 -9 -10 -8
0 -19 6 -23 13 -4 6 -16 13 -25 13 -14 1 -15 -2 -8 -16z"/>
<path d="M4920 1209 c0 -5 5 -7 10 -4 6 3 10 8 10 11 0 2 -4 4 -10 4 -5 0 -10
-5 -10 -11z"/>
<path d="M4808 1167 c-3 -19 -2 -25 4 -19 6 6 8 18 6 28 -3 14 -5 12 -10 -9z"/>
<path d="M4810 1110 c0 -5 5 -10 11 -10 5 0 7 5 4 10 -3 6 -8 10 -11 10 -2 0
-4 -4 -4 -10z"/>
<path d="M4367 1091 c-4 -17 -3 -21 5 -13 5 5 8 16 6 23 -3 8 -7 3 -11 -10z"/>
<path d="M5050 1090 c0 -5 5 -10 10 -10 6 0 10 5 10 10 0 6 -4 10 -10 10 -5 0
-10 -4 -10 -10z"/>
<path d="M4408 1083 c6 -2 18 -2 25 0 6 3 1 5 -13 5 -14 0 -19 -2 -12 -5z"/>
<path d="M4714 1082 c3 -5 0 -13 -6 -15 -8 -3 -6 -6 5 -6 19 -1 23 14 5 25 -6
4 -8 3 -4 -4z"/>
<path d="M4379 1063 c-1 -5 -1 -12 0 -17 1 -5 -8 -6 -19 -3 -18 4 -19 3 -9 -9
15 -18 4 -31 -14 -16 -10 9 -13 5 -14 -16 0 -15 1 -19 4 -9 4 14 8 16 19 6 8
-6 14 -17 14 -23 0 -6 -5 -4 -10 4 -6 9 -10 10 -10 3 0 -6 5 -15 10 -18 6 -3
10 -15 10 -26 0 -42 103 -53 144 -16 29 25 37 76 17 101 -11 13 -11 17 3 22 9
3 13 11 10 16 -4 6 -10 5 -15 -3 -6 -10 -13 -10 -34 -1 -32 15 -72 16 -80 2
-3 -5 -11 -10 -16 -10 -6 0 -7 5 -4 10 3 6 4 10 1 10 -3 0 -7 -3 -7 -7z m61
-84 c15 -26 7 -34 -19 -19 -22 11 -26 22 -14 33 11 12 22 8 33 -14z"/>
<path d="M4922 1060 c-13 -6 -28 -8 -32 -5 -5 3 -7 -6 -6 -20 2 -13 0 -22 -5
-20 -12 8 -17 -18 -8 -37 5 -9 10 -28 11 -42 1 -14 4 -23 7 -21 2 3 16 -5 32
-16 26 -18 31 -19 64 -5 19 8 37 14 39 13 3 -1 8 2 13 7 5 5 2 6 -7 2 -9 -5
-8 -2 3 7 27 23 23 88 -8 116 -31 26 -71 34 -103 21z m31 -89 c3 -14 0 -17
-14 -14 -11 3 -19 12 -19 19 0 21 27 17 33 -5z"/>
<path d="M5106 1051 c-3 -5 1 -11 9 -14 9 -4 12 -1 8 9 -6 16 -10 17 -17 5z"/>
<path d="M4545 1040 c-4 -6 -11 -7 -17 -4 -7 4 -8 2 -4 -5 6 -9 11 -9 22 0 14
11 18 19 10 19 -3 0 -8 -5 -11 -10z"/>
<path d="M5142 1020 c0 -14 2 -19 5 -12 2 6 2 18 0 25 -3 6 -5 1 -5 -13z"/>
<path d="M4291 1014 c0 -11 3 -14 6 -6 3 7 2 16 -1 19 -3 4 -6 -2 -5 -13z"/>
<path d="M4778 963 c7 -3 16 -2 19 1 4 3 -2 6 -13 5 -11 0 -14 -3 -6 -6z"/>
<path d="M4580 930 c0 -5 7 -7 15 -4 8 4 15 8 15 10 0 2 -7 4 -15 4 -8 0 -15
-4 -15 -10z"/>
<path d="M4292 845 c0 -16 2 -22 5 -12 2 9 2 23 0 30 -3 6 -5 -1 -5 -18z"/>
<path d="M4968 863 c6 -2 18 -2 25 0 6 3 1 5 -13 5 -14 0 -19 -2 -12 -5z"/>
<path d="M4347 809 c7 -7 15 -10 18 -7 3 3 -2 9 -12 12 -14 6 -15 5 -6 -5z"/>
<path d="M5068 803 c7 -3 16 -2 19 1 4 3 -2 6 -13 5 -11 0 -14 -3 -6 -6z"/>
<path d="M5073 783 c9 -2 23 -2 30 0 6 3 -1 5 -18 5 -16 0 -22 -2 -12 -5z"/>
<path d="M4268 763 c7 -3 16 -2 19 1 4 3 -2 6 -13 5 -11 0 -14 -3 -6 -6z"/>
<path d="M733 763 c9 -2 23 -2 30 0 6 3 -1 5 -18 5 -16 0 -22 -2 -12 -5z"/>
<path d="M1902 779 c-12 -18 -11 -19 5 -11 10 5 25 7 33 4 16 -5 15 -4 -10 15
-13 10 -18 8 -28 -8z"/>
<path d="M1698 783 c6 -2 18 -2 25 0 6 3 1 5 -13 5 -14 0 -19 -2 -12 -5z"/>
<path d="M1788 773 c7 -3 16 -2 19 1 4 3 -2 6 -13 5 -11 0 -14 -3 -6 -6z"/>
<path d="M2623 795 c0 -8 4 -15 9 -15 4 0 8 4 8 9 0 6 -4 12 -8 15 -5 3 -9 -1
-9 -9z"/>
<path d="M3650 780 c19 -11 44 -19 55 -19 12 1 8 4 -12 10 -18 5 -35 14 -38
19 -3 6 -14 10 -23 10 -10 -1 -3 -9 18 -20z"/>
<path d="M5643 835 c0 -36 118 -54 142 -22 7 9 14 15 17 12 2 -3 5 2 5 9 0 10
-5 12 -16 7 -25 -12 -108 -14 -129 -2 -14 8 -19 7 -19 -4z"/>
<path d="M5693 763 c9 -2 23 -2 30 0 6 3 -1 5 -18 5 -16 0 -22 -2 -12 -5z"/>
<path d="M6725 790 c3 -5 12 -10 20 -10 8 0 17 5 20 10 4 6 -5 10 -20 10 -15
0 -24 -4 -20 -10z"/>
<path d="M4805 580 c3 -5 11 -10 16 -10 6 0 7 5 4 10 -3 6 -11 10 -16 10 -6 0
-7 -4 -4 -10z"/>
<path d="M4590 560 c0 -23 46 -43 112 -50 40 -4 75 -5 77 -3 2 1 -2 3 -10 3
-8 0 -5 6 8 15 12 9 26 15 30 14 20 -3 33 2 33 13 0 9 -3 9 -12 0 -9 -9 -14
-7 -23 5 -8 10 -17 13 -26 7 -15 -9 -140 -14 -134 -5 1 3 -10 6 -26 7 -16 1
-29 -2 -29 -6z"/>
<path d="M4877 529 c7 -7 15 -10 18 -7 3 3 -2 9 -12 12 -14 6 -15 5 -6 -5z"/>
<path d="M4826 517 c-16 -12 -16 -13 3 -13 11 0 17 4 15 8 -3 4 -1 8 5 8 5 0
13 -4 16 -10 3 -5 11 -10 18 -10 6 0 2 7 -9 15 -24 18 -26 18 -48 2z"/>
<path d="M4092 440 c0 -14 2 -19 5 -12 2 6 2 18 0 25 -3 6 -5 1 -5 -13z"/>
<path d="M5426 405 c-9 -26 -7 -32 5 -12 6 10 9 21 6 23 -2 3 -7 -2 -11 -11z"/>
<path d="M4107 391 c-4 -17 -3 -21 5 -13 5 5 8 16 6 23 -3 8 -7 3 -11 -10z"/>
<path d="M5462 382 c-8 -6 -2 -9 17 -9 17 0 28 4 25 9 -7 10 -25 10 -42 0z"/>
<path d="M5495 360 c-23 -6 -25 -8 -8 -9 12 0 30 -4 40 -7 13 -4 15 -3 4 4
-11 8 -11 10 0 15 20 8 -1 6 -36 -3z"/>
<path d="M4106 327 c3 -10 9 -15 12 -12 3 3 0 11 -7 18 -10 9 -11 8 -5 -6z"/>
<path d="M5539 200 c-1 -5 -2 -13 -3 -17 -1 -5 -5 -26 -10 -48 -4 -22 -11 -44
-16 -50 -5 -5 -11 -27 -15 -47 -6 -34 -5 -38 13 -38 13 0 23 9 28 23 4 12 17
44 30 71 24 50 32 92 15 82 -5 -3 -11 3 -14 14 -5 21 -26 28 -28 10z"/>
<path d="M5390 10 c0 -5 5 -10 10 -10 6 0 10 5 10 10 0 6 -4 10 -10 10 -5 0
-10 -4 -10 -10z"/>
</g>
</svg>
