<?xml version="1.0" standalone="no"?>
<!DOCTYPE svg PUBLIC "-//W3C//DTD SVG 20010904//EN"
 "http://www.w3.org/TR/2001/REC-SVG-20010904/DTD/svg10.dtd">
<svg version="1.0" xmlns="http://www.w3.org/2000/svg"
 width="589.000000pt" height="728.000000pt" viewBox="0 0 589.000000 728.000000"
 preserveAspectRatio="xMidYMid meet">

<g transform="translate(0.000000,728.000000) scale(0.100000,-0.100000)"
fill="#000000" stroke="none">
<path d="M3105 5565 c-22 -7 -53 -14 -70 -15 -23 -2 -18 -4 19 -11 89 -14 120
-19 174 -26 28 -3 52 -9 52 -13 0 -4 18 -10 40 -14 52 -8 183 -69 211 -99 15
-15 20 -17 16 -6 -3 9 0 22 6 28 8 8 8 11 -2 11 -7 0 -25 8 -39 18 -60 42
-147 83 -225 106 -112 33 -136 36 -182 21z"/>
<path d="M2575 5521 c-38 -16 -69 -34 -68 -40 2 -6 -4 -8 -11 -5 -19 7 -46 -7
-149 -84 -105 -77 -167 -145 -229 -249 -73 -122 -106 -165 -126 -159 -60 18
-72 18 -66 2 3 -9 12 -16 18 -16 25 0 107 -62 102 -77 -3 -8 -2 -12 3 -9 5 3
12 -1 15 -10 5 -12 2 -15 -10 -10 -8 3 -20 6 -26 6 -6 0 -8 6 -5 13 3 9 -13
11 -67 9 -69 -3 -73 -5 -83 -33 -7 -17 -8 -31 -2 -35 5 -3 7 -10 4 -15 -4 -5
-2 -9 3 -9 9 0 25 -37 23 -52 -1 -5 2 -7 7 -6 15 4 69 -38 64 -51 -3 -9 1 -11
17 -6 15 4 23 1 27 -10 5 -12 14 -14 38 -9 26 6 29 4 19 -8 -10 -11 -8 -20 6
-44 15 -25 30 -92 34 -156 1 -9 3 -15 5 -13 3 2 17 -12 32 -33 69 -93 187
-172 258 -172 24 0 41 -4 38 -9 -3 -5 27 -17 67 -26 39 -10 76 -21 81 -26 6
-5 19 -9 30 -9 24 0 168 -60 178 -74 4 -6 49 -10 100 -10 84 -1 99 2 161 31
37 18 74 38 82 46 8 8 44 20 80 26 88 16 268 75 258 85 -4 5 2 5 14 2 12 -4
24 -2 28 4 3 5 18 10 32 10 65 0 218 141 250 230 11 30 24 50 33 50 10 0 11
-3 3 -8 -6 -4 -14 -29 -18 -56 -6 -40 -5 -47 6 -41 12 8 12 6 0 -8 -7 -9 -15
-34 -17 -54 -14 -121 -33 -205 -80 -351 l-23 -73 117 2 117 1 -3 -73 c-5 -100
-60 -389 -74 -389 -4 0 -8 -7 -8 -15 0 -8 -4 -23 -9 -33 -5 -9 -14 -28 -20
-42 -31 -65 -45 -73 -159 -86 -59 -8 -147 -16 -195 -18 -48 -3 -92 -8 -98 -11
-5 -4 -9 1 -9 9 0 8 -24 64 -54 123 -30 59 -91 182 -136 273 -88 181 -123 226
-164 210 -13 -5 -26 -6 -30 -3 -12 13 -56 -9 -77 -38 -30 -43 -99 -202 -139
-324 -18 -55 -36 -104 -40 -110 -5 -5 -20 -50 -34 -99 -14 -49 -28 -91 -30
-93 -10 -11 -177 -43 -254 -49 -74 -6 -82 -5 -76 10 3 9 1 16 -5 16 -6 0 -10
3 -9 8 2 7 -24 95 -41 137 -23 58 -51 157 -51 182 0 22 -2 25 -10 13 -8 -12
-10 -10 -10 10 -1 14 -17 84 -36 155 -20 72 -39 150 -44 175 -4 25 -14 70 -23
100 -8 30 -15 62 -15 70 0 8 -7 52 -15 97 -8 45 -14 97 -13 117 1 29 -1 32
-13 23 -12 -10 -13 -9 -6 2 4 8 8 27 7 43 0 15 3 26 8 23 5 -3 11 -1 15 4 3 6
12 8 19 5 8 -3 17 0 22 7 4 8 3 10 -4 5 -20 -12 -34 4 -20 22 12 15 11 16 -4
4 -10 -8 -16 -19 -15 -24 1 -6 -6 -12 -17 -13 -26 -5 -97 -76 -89 -89 3 -6 2
-8 -2 -3 -10 8 -65 -41 -65 -57 0 -6 5 -4 10 4 6 9 10 10 10 3 0 -6 -5 -15
-10 -18 -7 -4 -6 -14 2 -28 6 -12 10 -22 8 -22 -1 0 5 -27 15 -60 10 -33 23
-80 31 -105 24 -85 46 -368 29 -373 -5 -2 18 -30 51 -63 34 -32 66 -68 72 -79
5 -11 13 -69 17 -130 6 -90 5 -108 -6 -97 -16 14 -33 16 -24 2 3 -5 1 -10 -5
-10 -6 0 -10 8 -8 17 3 19 -63 60 -133 83 -37 13 -40 12 -67 -16 -69 -70 -91
-83 -189 -109 -74 -20 -127 -27 -217 -29 l-120 -3 -11 -34 c-22 -62 -27 -85
-17 -70 18 25 270 55 462 56 74 0 138 4 141 8 3 4 52 3 108 -2 185 -19 480
-10 626 19 21 4 36 0 31 -9 -4 -5 0 -12 6 -14 10 -4 10 -6 1 -6 -7 -1 -13 -6
-13 -11 0 -13 35 4 70 34 21 18 22 18 10 2 -14 -18 -13 -19 2 -13 13 4 15 2
11 -11 -6 -14 -4 -15 9 -5 15 13 28 8 28 -11 0 -6 -5 -4 -10 4 -5 8 -10 11
-10 7 0 -4 7 -19 16 -32 9 -14 12 -25 6 -25 -6 0 -8 -9 -5 -20 3 -11 10 -17
16 -13 6 3 7 1 3 -6 -4 -6 -11 -9 -16 -6 -4 3 -11 -2 -14 -11 -3 -9 -2 -12 5
-9 6 4 8 -2 4 -18 -6 -22 -4 -23 24 -19 17 2 29 7 27 11 -6 9 16 37 34 44 12
4 11 6 -2 6 -10 1 -18 6 -18 11 0 6 -5 10 -11 10 -5 0 -7 -4 -4 -10 3 -5 4
-10 1 -10 -8 0 -36 57 -36 74 0 8 11 27 25 42 14 15 25 23 25 19 0 -4 6 -2 14
4 10 9 16 9 21 1 4 -6 18 -15 31 -20 17 -7 24 -17 24 -35 0 -29 7 -31 46 -10
17 9 30 11 32 5 2 -6 8 -7 13 -4 6 3 4 11 -5 17 -12 10 -15 66 -20 322 -3 171
-8 326 -11 345 -6 34 -5 34 22 -15 l28 -50 3 -289 c2 -175 -1 -291 -6 -295 -6
-3 -3 -12 6 -21 14 -13 15 -12 9 3 -3 9 -2 17 3 17 6 0 10 -8 11 -17 0 -11 3
-13 6 -5 2 6 13 12 23 12 21 0 70 -20 71 -29 6 -44 5 -90 -2 -85 -10 6 -12 -9
-3 -19 8 -8 64 20 64 32 0 4 11 6 25 3 14 -2 25 -8 25 -13 0 -5 9 -9 21 -9 11
0 18 -4 15 -9 -3 -5 1 -15 10 -22 14 -11 15 -10 12 7 -3 18 -28 52 -35 46 -11
-9 -28 26 -25 50 2 15 0 34 -6 41 -8 10 -6 13 9 14 33 3 46 20 41 53 -2 18 0
30 7 30 21 0 388 51 536 75 83 13 175 26 205 30 30 3 78 12 105 20 28 7 65 16
83 19 36 5 49 12 39 22 -3 3 -21 1 -39 -5 -18 -6 -58 -12 -88 -13 l-55 -3 -7
64 c-4 35 -6 208 -5 385 3 268 6 331 20 379 20 70 35 87 76 87 22 0 31 -6 36
-22 4 -13 15 -32 25 -43 25 -29 66 -138 92 -246 12 -52 26 -97 31 -100 5 -3
-6 -12 -23 -19 -51 -21 -26 -22 31 -1 71 26 184 52 232 53 36 0 37 1 23 22 -8
11 -21 20 -29 20 -9 -1 -13 5 -10 16 6 22 -25 72 -40 63 -6 -3 -7 -1 -3 6 11
17 -88 140 -102 127 -3 -4 0 -12 6 -18 15 -15 15 -28 0 -28 -6 0 -8 3 -5 7 4
3 2 12 -4 20 -9 9 -8 17 0 27 9 11 6 18 -14 34 -14 11 -25 23 -25 27 0 13 -28
34 -35 27 -5 -4 -5 -2 -2 4 8 14 -17 37 -28 26 -5 -4 -5 -2 -2 4 8 13 -46 67
-57 57 -4 -4 -4 0 0 10 6 16 -5 22 -29 18 -5 -1 -6 2 -3 7 7 12 -38 54 -49 45
-4 -5 -5 -3 -2 4 4 6 -18 33 -55 63 -62 52 -90 68 -137 76 -14 3 -28 7 -33 10
-5 3 -16 -4 -26 -16 -9 -11 -34 -25 -55 -30 -33 -7 -42 -5 -67 17 -17 14 -30
32 -30 42 0 9 -5 22 -12 29 -9 9 -8 15 7 25 10 8 19 25 20 38 1 18 8 24 26 25
41 1 53 4 46 11 -7 7 39 53 53 53 5 0 12 9 15 20 4 11 10 18 15 15 10 -6 30
49 30 81 0 16 -6 24 -17 25 -11 0 -13 3 -5 6 24 10 0 23 -42 23 -25 0 -62 -10
-89 -24 -26 -13 -47 -19 -47 -15 0 5 5 9 10 9 6 0 10 7 10 15 0 8 5 15 10 15
6 0 10 7 10 15 0 8 7 15 15 15 8 0 15 6 15 14 0 8 19 23 43 35 l42 21 -42 0
c-31 0 -48 -6 -64 -22 -12 -13 -18 -16 -14 -8 8 13 6 13 -7 2 -18 -15 -30 0
-92 113 -41 73 -102 150 -160 199 -55 48 -89 53 -60 9 9 -14 16 -41 17 -59 1
-19 4 -34 9 -34 4 0 5 -7 2 -15 -4 -8 -1 -15 6 -15 8 0 10 -9 6 -27 -4 -18 -3
-23 2 -15 6 9 14 -1 27 -35 18 -48 68 -148 106 -211 14 -25 18 -43 13 -72 -4
-22 -11 -40 -16 -40 -5 0 -7 -4 -3 -10 14 -23 -71 -100 -95 -85 -5 3 -10 1
-10 -5 0 -7 -7 -10 -15 -6 -8 3 -28 0 -45 -6 -34 -12 -210 6 -220 22 -3 5 -12
8 -20 7 -8 -1 -46 6 -83 17 -68 18 -68 18 -52 42 25 39 17 49 -12 16 -44 -49
-93 -65 -223 -70 -130 -5 -184 6 -225 44 l-28 25 7 -26 c4 -17 3 -24 -4 -20
-5 3 -10 2 -10 -2 0 -5 -15 -17 -32 -28 l-33 -18 18 20 c12 14 15 23 8 28 -10
6 -15 0 -13 -16 3 -24 -138 -97 -160 -83 -6 4 -8 3 -5 -3 8 -13 -137 -46 -183
-41 l-35 3 -3 141 c-3 127 -1 151 23 245 15 57 30 114 32 127 3 12 11 22 19
22 7 0 11 8 9 20 -2 11 0 20 6 20 5 0 9 -8 9 -17 0 -13 2 -15 8 -5 13 19 207
10 280 -13 7 -3 13 -4 15 -3 1 1 13 -4 26 -11 19 -11 21 -15 10 -23 -11 -8
-10 -8 4 -4 10 3 23 6 28 6 5 0 9 12 9 26 0 14 4 23 8 20 17 -10 -14 94 -32
111 -13 12 -16 13 -10 3 6 -12 5 -13 -8 -3 -8 7 -18 10 -21 6 -4 -3 -7 0 -7 7
0 7 -2 11 -5 8 -3 -2 -30 1 -62 7 -44 9 -67 8 -106 -2 -32 -8 -55 -9 -66 -3
-10 6 -11 10 -3 10 6 0 21 8 31 18 10 9 31 28 45 41 37 33 155 91 187 91 14 0
29 4 35 10 5 5 26 10 47 12 54 3 57 18 4 18 -24 0 -64 2 -88 5 -34 4 -60 -1
-114 -24z m-250 -192 c11 -16 1 -19 -13 -3 -7 8 -8 14 -3 14 5 0 13 -5 16 -11z
m91 -11 c-9 -5 -22 -7 -29 -4 -7 2 -4 5 6 5 10 1 15 5 12 11 -4 6 1 7 11 3 15
-6 15 -7 0 -15z m1414 -342 c0 -2 -7 -7 -16 -10 -8 -3 -12 -2 -9 4 6 10 25 14
25 6z m-1797 -31 c-3 -9 -8 -14 -10 -11 -3 3 -2 9 2 15 9 16 15 13 8 -4z m42
-14 c3 -5 2 -12 -3 -15 -5 -3 -9 1 -9 9 0 17 3 19 12 6z m129 -233 c-5 -8 -1
-9 10 -5 11 4 15 3 11 -4 -10 -14 -28 -6 -31 14 -1 9 2 15 7 11 5 -3 6 -10 3
-16z m-117 -10 c-3 -8 -6 -5 -6 6 -1 11 2 17 5 13 3 -3 4 -12 1 -19z m903 -78
c0 -3 -13 -7 -30 -8 -19 -1 -30 2 -30 10 0 9 -3 8 -10 -2 -8 -12 -10 -13 -10
-1 0 8 8 23 17 33 16 18 17 18 40 -4 13 -12 23 -24 23 -28z m64 -92 c-1 -15 3
-25 8 -22 4 3 6 10 3 15 -11 16 11 10 35 -11 13 -11 28 -20 33 -20 6 0 7 -3 4
-7 -4 -3 3 -11 16 -18 13 -7 21 -19 19 -31 -2 -13 0 -15 6 -7 6 10 12 10 28
-2 13 -10 16 -17 8 -22 -9 -6 -8 -11 1 -20 10 -10 14 -9 19 3 4 10 2 13 -6 8
-7 -4 -8 -3 -4 4 8 13 49 -9 74 -38 8 -8 11 -9 7 -2 -6 11 -3 11 13 1 12 -7
19 -17 16 -21 -3 -4 1 -6 8 -3 7 3 36 -4 63 -14 l50 -19 -30 -12 c-16 -7 -37
-13 -45 -14 -8 -1 -23 -5 -32 -9 -10 -4 -26 -10 -35 -14 -10 -3 -29 -7 -43 -8
-14 -1 -65 -8 -115 -15 -86 -12 -309 -10 -380 4 -122 24 -177 39 -189 52 -10
9 -17 10 -21 4 -4 -6 -11 -8 -16 -5 -7 5 83 75 97 75 1 0 26 21 55 48 28 26
56 46 60 45 5 -2 8 3 7 10 -2 6 5 11 14 11 10 -1 15 2 13 7 -3 4 8 23 24 41
l29 33 103 0 104 0 -1 -27z m1121 13 c3 -5 2 -12 -3 -15 -5 -3 -9 1 -9 9 0 17
3 19 12 6z m-2145 -165 c0 -3 -4 -8 -10 -11 -5 -3 -10 -1 -10 4 0 6 5 11 10
11 6 0 10 -2 10 -4z m-87 -83 c-5 -15 -3 -16 8 -5 21 20 30 14 12 -8 -15 -17
-19 -18 -26 -5 -4 8 -5 20 -2 25 10 16 15 11 8 -7z m2502 -22 c3 -5 2 -12 -3
-15 -5 -3 -9 1 -9 9 0 17 3 19 12 6z m-1905 -11 c-8 -5 -19 -10 -25 -10 -5 0
-3 5 5 10 8 5 20 10 25 10 6 0 3 -5 -5 -10z m583 -81 c-6 -6 -32 -8 -59 -6
l-49 3 53 2 c32 1 52 6 52 14 0 6 3 8 7 5 4 -4 2 -12 -4 -18z m-285 -16 c-10
-2 -28 -2 -40 0 -13 2 -5 4 17 4 22 1 32 -1 23 -4z m112 -498 c-18 -172 -49
-296 -85 -343 -24 -32 -78 -82 -83 -77 -3 2 -12 -1 -20 -7 -17 -14 -42 -19
-42 -9 0 16 97 301 101 297 2 -3 5 8 6 22 0 15 6 28 12 30 6 2 9 8 6 13 -3 4
6 33 20 64 14 31 25 58 25 61 0 4 15 36 33 73 l32 66 3 -40 c2 -22 -1 -89 -8
-150z m207 -57 c-3 -8 -6 -5 -6 6 -1 11 2 17 5 13 3 -3 4 -12 1 -19z m-231
-360 c4 -6 3 -8 -4 -4 -6 3 -13 2 -17 -4 -3 -5 -11 -10 -18 -10 -6 0 -2 7 9
15 23 18 21 17 30 3z m318 -124 c3 -8 2 -12 -4 -9 -6 3 -10 10 -10 16 0 14 7
11 14 -7z m57 -7 c-10 -9 -11 -8 -5 6 3 10 9 15 12 12 3 -3 0 -11 -7 -18z
m-57 -47 c-6 -6 -10 -3 -10 10 0 13 4 16 10 10 7 -7 7 -13 0 -20z"/>
<path d="M2938 4633 c6 -2 9 -10 6 -15 -4 -7 -2 -8 5 -4 13 9 5 26 -12 25 -9
0 -8 -2 1 -6z"/>
<path d="M2850 4515 c-7 -8 -16 -13 -20 -10 -5 3 -11 2 -14 -3 -10 -17 24 -8
41 10 9 10 14 18 11 18 -3 0 -11 -7 -18 -15z"/>
<path d="M2856 4492 c-3 -5 1 -9 9 -9 8 0 12 4 9 9 -3 4 -7 8 -9 8 -2 0 -6 -4
-9 -8z"/>
<path d="M3136 4437 c3 -10 9 -15 12 -12 3 3 0 11 -7 18 -10 9 -11 8 -5 -6z"/>
<path d="M2714 4398 l-19 -23 23 19 c12 11 22 21 22 23 0 8 -8 2 -26 -19z"/>
<path d="M3106 4412 c-11 -18 -147 -34 -229 -27 -73 7 -80 6 -69 -8 25 -30 85
-50 153 -51 85 0 145 28 162 77 6 17 -7 24 -17 9z"/>
<path d="M2674 4362 c3 -6 -1 -15 -10 -20 -15 -8 -14 -10 2 -16 10 -4 15 -4
11 0 -4 4 -2 13 4 20 7 8 6 14 -2 20 -7 4 -9 3 -5 -4z"/>
<path d="M3250 4350 c-8 -5 -10 -10 -5 -11 6 0 18 -2 28 -4 15 -3 16 -1 6 11
-14 16 -10 16 -29 4z"/>
<path d="M2920 3756 c0 -8 4 -17 9 -20 5 -4 7 3 4 14 -6 23 -13 26 -13 6z"/>
<path d="M2928 5533 c6 -2 18 -2 25 0 6 3 1 5 -13 5 -14 0 -19 -2 -12 -5z"/>
<path d="M3015 5381 c-18 -56 -92 -63 -136 -13 l-23 27 -7 -40 c-4 -22 -3 -44
2 -49 5 -6 9 -18 9 -27 0 -9 12 -24 26 -34 33 -21 105 -16 130 10 20 20 31
105 16 130 -9 17 -10 17 -17 -4z"/>
<path d="M3310 5368 c-104 -14 -113 -19 -132 -74 -21 -58 -21 -57 -6 -48 8 5
9 2 5 -9 -8 -22 8 -30 33 -17 16 9 25 8 36 -1 8 -6 17 -9 21 -5 3 3 1 6 -5 6
-21 0 -13 16 11 20 12 2 75 4 140 4 83 1 116 4 113 12 -2 6 0 17 5 23 5 6 6 9
3 6 -4 -3 -18 10 -31 28 -13 17 -29 32 -36 32 -18 1 -70 15 -87 24 -8 4 -40 3
-70 -1z"/>
<path d="M2955 5350 c-3 -6 1 -7 9 -4 18 7 21 14 7 14 -6 0 -13 -4 -16 -10z"/>
<path d="M3169 5343 c-13 -16 -12 -17 4 -4 16 13 21 21 13 21 -2 0 -10 -8 -17
-17z"/>
<path d="M3245 5138 c-31 -29 -36 -41 -41 -93 l-6 -60 42 -24 c34 -19 52 -23
101 -19 81 6 115 32 112 84 -5 84 -12 100 -52 122 -59 33 -113 30 -156 -10z
m102 -144 c-3 -3 -12 -4 -19 -1 -8 3 -5 6 6 6 11 1 17 -2 13 -5z"/>
<path d="M2515 5143 c-47 -7 -96 -75 -88 -125 3 -21 -1 -28 -12 -28 -12 0 -8
-7 12 -24 56 -46 70 -50 168 -47 33 1 104 54 87 65 -6 4 -9 13 -5 21 3 9 -1
15 -8 15 -11 0 -11 2 0 9 13 8 12 15 -4 50 -10 23 -25 41 -34 41 -9 0 -25 7
-35 15 -20 15 -26 16 -81 8z"/>
<path d="M3617 5091 c-4 -17 -3 -21 5 -13 5 5 8 16 6 23 -3 8 -7 3 -11 -10z"/>
<path d="M4010 5036 c7 -7 13 -7 20 0 6 6 3 10 -10 10 -13 0 -16 -4 -10 -10z"/>
<path d="M3687 4981 c-4 -17 -3 -21 5 -13 5 5 8 16 6 23 -3 8 -7 3 -11 -10z"/>
<path d="M2760 4939 c0 -5 5 -7 10 -4 6 3 10 8 10 11 0 2 -4 4 -10 4 -5 0 -10
-5 -10 -11z"/>
<path d="M2588 4903 c7 -3 16 -2 19 1 4 3 -2 6 -13 5 -11 0 -14 -3 -6 -6z"/>
<path d="M3706 4872 c-3 -5 1 -9 9 -9 8 0 12 4 9 9 -3 4 -7 8 -9 8 -2 0 -6 -4
-9 -8z"/>
<path d="M3687 4799 c7 -7 15 -10 18 -7 3 3 -2 9 -12 12 -14 6 -15 5 -6 -5z"/>
<path d="M3318 4783 c7 -3 16 -2 19 1 4 3 -2 6 -13 5 -11 0 -14 -3 -6 -6z"/>
<path d="M3655 4770 c-3 -6 1 -7 9 -4 18 7 21 14 7 14 -6 0 -13 -4 -16 -10z"/>
<path d="M4010 4772 c0 -6 -8 -13 -17 -15 -16 -4 -16 -5 -1 -6 18 -1 34 16 24
26 -3 4 -6 1 -6 -5z"/>
<path d="M3980 4735 c0 -7 30 -13 34 -7 3 4 -4 9 -15 9 -10 1 -19 0 -19 -2z"/>
<path d="M1904 4708 c-11 -18 -12 -48 -2 -42 5 4 7 12 4 19 -2 7 1 18 7 24 6
6 8 11 5 11 -4 0 -10 -6 -14 -12z"/>
<path d="M1855 4209 c-4 -6 -5 -12 -2 -15 2 -3 7 2 10 11 7 17 1 20 -8 4z"/>
<path d="M1810 4121 c0 -7 -5 -9 -12 -5 -7 5 -8 3 -3 -5 5 -9 10 -10 18 -2 6
6 8 14 4 18 -4 3 -7 1 -7 -6z"/>
<path d="M1701 3924 c0 -11 3 -14 6 -6 3 7 2 16 -1 19 -3 4 -6 -2 -5 -13z"/>
<path d="M1670 3830 c0 -5 5 -10 11 -10 5 0 7 5 4 10 -3 6 -8 10 -11 10 -2 0
-4 -4 -4 -10z"/>
<path d="M4270 3819 c0 -5 5 -7 10 -4 6 3 10 8 10 11 0 2 -4 4 -10 4 -5 0 -10
-5 -10 -11z"/>
<path d="M4170 3739 c0 -5 5 -7 10 -4 6 3 10 8 10 11 0 2 -4 4 -10 4 -5 0 -10
-5 -10 -11z"/>
<path d="M4697 3719 c-49 -5 -124 -21 -169 -36 l-81 -28 2 -110 c2 -121 9
-135 63 -135 27 0 71 -9 174 -37 28 -7 75 -28 105 -46 46 -27 54 -37 57 -65 6
-58 -82 -125 -228 -175 -138 -47 -560 -87 -560 -53 0 6 -5 4 -10 -4 -9 -13
-10 -13 -10 0 -1 8 -14 -12 -31 -45 -17 -33 -40 -76 -52 -95 -23 -38 -146
-170 -158 -170 -4 0 -28 21 -54 48 -25 26 -43 40 -40 32 6 -18 -3 -31 -33 -48
-19 -11 -29 -11 -53 0 -28 12 -31 16 -33 47 -1 7 -16 22 -35 32 -33 18 -35 18
-63 -2 -28 -20 -30 -20 -64 -4 -26 12 -35 22 -31 35 4 14 1 17 -12 13 -9 -3
-21 -10 -28 -15 -19 -15 -76 29 -70 54 4 12 -3 24 -17 33 -21 14 -28 12 -92
-21 -68 -35 -69 -35 -98 -18 -26 15 -29 15 -23 1 3 -9 -1 -23 -9 -32 -20 -19
-64 -31 -73 -18 -3 5 -14 12 -23 16 -11 4 -16 16 -16 37 1 17 -4 36 -10 42 -9
9 -12 5 -12 -18 0 -25 -6 -33 -34 -47 -30 -14 -36 -14 -46 -1 -16 19 -38 18
-36 -1 0 -9 -11 -23 -26 -32 -24 -15 -30 -15 -53 -3 -33 17 -60 3 -60 -31 0
-15 -10 -29 -30 -41 -30 -17 -32 -17 -63 3 -25 15 -32 24 -27 39 4 14 -2 27
-19 44 -14 13 -26 28 -26 35 0 13 -10 14 -28 2 -11 -7 -10 -9 3 -15 27 -10 16
-74 -17 -94 -24 -14 -30 -14 -54 -1 -15 7 -29 22 -32 31 -4 16 -7 16 -34 -3
-16 -12 -46 -43 -65 -70 -28 -36 -40 -46 -52 -39 -31 16 -122 114 -148 157
-14 24 -30 40 -35 36 -6 -3 -8 -1 -5 4 8 13 -12 73 -24 73 -5 0 -9 9 -9 20 0
24 -13 26 -30 5 -7 -9 -15 -13 -17 -11 -3 3 -21 -5 -41 -16 -150 -84 -279
-132 -442 -163 -47 -9 -93 -21 -104 -26 -13 -8 -16 -7 -11 1 6 9 2 9 -12 1
-14 -7 -23 -7 -30 0 -7 7 -10 3 -8 -13 4 -38 5 -39 16 -32 8 4 9 -1 4 -16 -5
-17 -4 -21 5 -15 9 5 11 4 6 -4 -12 -19 32 -80 55 -76 11 2 17 0 14 -6 -4 -5
-11 -7 -16 -4 -5 4 -9 1 -9 -4 0 -16 21 -13 44 7 16 13 18 13 8 1 -6 -9 -8
-20 -4 -24 4 -5 2 -5 -5 -1 -6 3 -14 2 -17 -2 -14 -23 142 -135 174 -124 8 2
12 1 7 -3 -10 -11 49 -36 68 -29 8 4 15 1 15 -6 0 -8 9 -11 25 -8 13 3 22 1
19 -3 -2 -4 45 -8 106 -8 60 0 110 4 110 7 0 4 12 7 28 8 41 1 101 12 115 21
13 8 24 11 69 20 16 3 28 9 28 13 0 13 33 5 38 -9 2 -7 1 -50 -3 -95 l-6 -82
-192 43 c-410 92 -706 129 -949 120 -255 -9 -343 -48 -402 -177 -117 -258 19
-899 262 -1226 114 -155 209 -205 430 -230 l62 -7 0 -59 c0 -90 37 -160 102
-194 16 -8 56 -14 98 -14 l70 0 0 -200 0 -200 -299 0 c-299 0 -300 0 -315 -22
-18 -26 -21 -90 -6 -119 11 -19 43 -19 1930 -19 1887 0 1919 0 1930 19 15 29
12 93 -6 119 -14 21 -23 22 -133 22 -65 0 -200 3 -299 7 l-182 6 0 189 0 188
78 0 c71 0 83 3 119 29 50 36 73 91 73 176 0 94 -24 142 -93 185 l-27 17 102
12 c232 28 325 62 425 155 349 323 512 1106 286 1372 -128 150 -409 156 -780
18 -117 -43 -317 -137 -425 -200 -43 -25 -84 -42 -90 -38 -6 4 -9 3 -6 -2 3
-5 -21 -21 -53 -36 l-59 -27 0 23 c0 26 37 56 70 56 12 0 18 4 15 10 -6 9 10
14 43 13 6 -1 12 3 12 7 0 5 9 12 20 15 22 7 28 45 8 45 -10 0 -10 2 0 9 10 6
13 33 12 97 -2 156 -3 151 28 160 15 4 30 7 35 6 4 -1 26 3 50 9 48 12 55 13
114 24 24 4 40 11 38 15 -3 5 3 6 13 3 11 -2 37 3 58 13 21 9 44 18 49 19 50
12 114 39 109 46 -3 5 1 10 8 11 50 5 79 18 72 30 -4 6 -2 8 4 5 15 -10 43 3
35 16 -3 5 -2 7 4 4 12 -8 139 81 135 94 -1 6 1 8 6 5 5 -3 19 6 30 19 20 23
20 29 0 26 -5 0 -5 8 1 38 1 2 8 -2 16 -9 16 -14 35 -6 35 16 0 8 5 14 11 14
6 0 8 7 5 16 -3 8 -2 13 3 10 10 -7 44 71 36 84 -3 4 -1 10 5 12 20 6 23 130
6 227 -9 52 -21 100 -25 105 -5 6 -9 14 -9 19 -1 26 -15 67 -24 67 -6 0 -9 3
-5 6 7 8 -23 86 -37 96 -6 4 -7 8 -2 8 6 0 1 7 -10 15 -10 8 -21 14 -24 13 -3
0 -45 -5 -93 -9z m-1483 -854 c18 -12 24 -25 24 -51 0 -29 -5 -36 -33 -50 -31
-14 -35 -14 -59 1 -35 23 -37 86 -3 103 31 15 44 14 71 -3z m-239 -41 c19 -13
25 -25 25 -54 0 -33 -4 -39 -31 -50 -45 -19 -83 5 -87 55 -3 30 0 38 17 42 12
3 21 9 21 14 0 14 29 10 55 -7z m-788 -246 c-3 -8 -6 -5 -6 6 -1 11 2 17 5 13
3 -3 4 -12 1 -19z m-747 6 c0 -8 -19 -13 -24 -6 -3 5 1 9 9 9 8 0 15 -2 15 -3z
m74 -66 c-3 -4 -9 -8 -15 -8 -5 0 -9 4 -9 8 0 5 7 9 15 9 8 0 12 -4 9 -9z
m2081 -364 c8 -4 22 -19 31 -35 13 -26 13 -33 -1 -63 -13 -26 -14 -39 -6 -55
31 -56 -4 -139 -68 -164 -104 -42 -561 -89 -561 -58 0 5 7 43 16 83 16 78 13
136 -13 201 -9 21 -14 40 -11 42 2 2 80 9 174 15 94 6 209 17 255 24 97 15
161 19 184 10z m-1028 -18 c70 -8 180 -18 243 -21 l116 -7 -13 -126 c-7 -70
-10 -145 -7 -166 l6 -39 -108 6 c-200 12 -418 66 -448 112 -27 41 -30 78 -8
105 14 18 18 34 15 61 -5 31 -1 42 20 63 31 30 21 30 184 12z m1003 -1080 c44
-34 45 -35 62 -16 27 29 62 34 92 15 20 -13 25 -24 23 -53 l-2 -37 -120 0
c-72 0 -128 5 -142 12 -14 7 -23 8 -23 2 0 -6 -24 -9 -57 -7 -45 2 -59 7 -61
20 -5 24 62 55 83 38 13 -11 15 -8 15 18 0 24 6 34 28 45 31 16 40 12 102 -37z
m-473 16 c16 -12 21 -26 20 -52 -2 -30 -6 -36 -35 -44 -50 -14 -82 5 -82 48 0
55 54 82 97 48z m-149 -27 c24 -13 30 -22 30 -45 l-1 -30 -94 0 c-87 0 -93 1
-93 20 0 20 33 40 73 45 10 1 23 7 29 13 15 15 19 15 56 -3z m-695 -7 c30 -17
35 -27 30 -49 -5 -16 -15 -19 -63 -19 -55 0 -57 1 -56 25 1 16 10 31 26 39 32
18 36 18 63 4z m975 -24 c53 -26 41 -44 -28 -44 -68 0 -81 18 -32 43 15 8 27
15 28 16 0 1 15 -6 32 -15z"/>
<path d="M1932 3130 c0 -14 2 -19 5 -12 2 6 2 18 0 25 -3 6 -5 1 -5 -13z"/>
<path d="M2940 3086 c0 -2 7 -6 15 -10 8 -3 15 -1 15 4 0 6 -7 10 -15 10 -8 0
-15 -2 -15 -4z"/>
<path d="M3100 3040 c-9 -6 -10 -10 -3 -10 6 0 15 5 18 10 8 12 4 12 -15 0z"/>
<path d="M3005 3010 c-8 -13 5 -40 25 -50 14 -8 17 -4 18 19 0 21 -5 31 -19
34 -10 3 -21 1 -24 -3z"/>
<path d="M1310 2995 c0 -5 5 -17 10 -25 5 -8 10 -10 10 -5 0 6 -5 17 -10 25
-5 8 -10 11 -10 5z"/>
<path d="M2775 2960 c-3 -5 -1 -10 4 -10 6 0 11 5 11 10 0 6 -2 10 -4 10 -3 0
-8 -4 -11 -10z"/>
<path d="M3407 2936 c-4 -10 -1 -13 8 -9 8 3 12 9 9 14 -7 12 -11 11 -17 -5z"/>
</g>
</svg>
