<?xml version="1.0" standalone="no"?>
<!DOCTYPE svg PUBLIC "-//W3C//DTD SVG 20010904//EN"
 "http://www.w3.org/TR/2001/REC-SVG-20010904/DTD/svg10.dtd">
<svg version="1.0" xmlns="http://www.w3.org/2000/svg"
 width="819.000000pt" height="947.000000pt" viewBox="0 0 819.000000 947.000000"
 preserveAspectRatio="xMidYMid meet">

<g transform="translate(0.000000,947.000000) scale(0.100000,-0.100000)"
fill="#000000" stroke="none">
<path d="M4015 9464 c-11 -2 -45 -9 -75 -15 -30 -6 -97 -31 -148 -55 -150 -72
-283 -214 -343 -366 -42 -107 -59 -257 -40 -355 l8 -42 -81 -53 c-98 -64 -249
-212 -295 -290 -104 -179 -123 -352 -60 -578 42 -156 185 -412 321 -575 89
-108 148 -171 148 -160 0 6 -20 75 -44 155 -76 253 -74 240 -41 296 80 138
246 326 406 460 82 69 295 214 371 254 l46 24 107 -65 c262 -157 528 -399 663
-602 40 -59 72 -116 72 -127 0 -10 -20 -87 -45 -172 -63 -210 -61 -198 -25
-158 l31 35 -27 -53 c-68 -134 -5 -232 181 -283 60 -16 60 -16 63 -56 7 -88
-74 -124 -136 -60 -36 37 -41 63 -14 70 9 3 3 5 -15 6 -17 0 -35 -4 -38 -10
-10 -15 42 -115 72 -139 38 -29 85 -26 122 9 35 32 79 121 88 176 9 53 -7 65
-86 63 -101 -2 -122 16 -123 105 -2 75 18 112 88 167 80 63 109 117 130 246
14 81 15 107 5 163 -12 63 -12 69 13 124 61 136 88 308 67 422 -38 205 -228
417 -522 583 l-56 32 0 122 c-1 144 -24 240 -86 351 -73 130 -218 256 -355
307 -106 40 -265 60 -347 44z"/>
<path d="M4153 7747 c-25 -11 -31 -55 -11 -75 16 -16 53 -15 68 2 30 37 -14
94 -57 73z"/>
<path d="M3819 7730 c-88 -15 -163 -67 -202 -139 -42 -77 -36 -87 27 -46 59
37 153 72 221 82 52 7 62 25 45 78 -12 37 -14 38 -91 25z"/>
<path d="M4410 7714 c-20 -52 -11 -66 57 -85 77 -21 157 -58 203 -93 44 -34
52 -16 20 49 -38 78 -126 138 -224 151 -43 6 -46 5 -56 -22z"/>
<path d="M3644 7211 l-29 -16 30 -2 c17 -2 55 -8 86 -14 46 -9 66 -8 112 5 31
9 59 21 63 28 5 8 1 9 -12 4 -39 -16 -129 -17 -175 -3 -41 13 -49 12 -75 -2z"/>
<path d="M4595 7215 c-49 -16 -108 -18 -155 -5 -32 9 -33 8 -15 -6 29 -21 94
-37 129 -30 17 4 57 9 89 13 l58 5 -31 19 c-17 11 -31 19 -33 18 -1 -1 -20 -7
-42 -14z"/>
<path d="M3567 7012 c-33 -37 -16 -65 47 -76 22 -4 27 -2 22 10 -3 9 -9 27
-12 40 -3 13 -10 24 -16 24 -5 0 -6 5 -3 10 11 18 -21 11 -38 -8z"/>
<path d="M4098 6853 c6 -2 18 -2 25 0 6 3 1 5 -13 5 -14 0 -19 -2 -12 -5z"/>
<path d="M4198 6853 c6 -2 18 -2 25 0 6 3 1 5 -13 5 -14 0 -19 -2 -12 -5z"/>
<path d="M4228 6833 c7 -3 16 -2 19 1 4 3 -2 6 -13 5 -11 0 -14 -3 -6 -6z"/>
<path d="M4198 6753 c7 -3 16 -2 19 1 4 3 -2 6 -13 5 -11 0 -14 -3 -6 -6z"/>
<path d="M4145 6739 c-2 -3 18 -6 45 -8 26 -1 50 2 53 6 3 4 -17 8 -45 8 -27
0 -52 -3 -53 -6z"/>
<path d="M4405 6428 c-50 -26 -67 -42 -102 -97 -173 -273 -510 -653 -817 -921
-90 -79 -96 -87 -90 -115 14 -68 107 -165 159 -165 18 0 27 -13 50 -72 39
-100 143 -308 154 -308 6 0 12 4 15 9 7 10 25 9 43 -2 6 -4 14 -3 18 3 6 9 -1
14 -17 11 -19 -3 -6 18 15 25 12 4 25 12 29 18 6 8 8 7 8 -1 0 -7 8 -13 18
-13 14 0 15 2 2 10 -13 8 -12 10 3 10 10 0 15 4 12 10 -4 6 1 7 11 3 14 -5 16
-3 11 11 -4 10 -3 15 3 11 6 -3 13 0 16 9 6 15 57 32 82 27 6 -1 12 2 12 7 0
5 25 15 55 22 30 7 55 15 55 17 0 1 -26 58 -59 125 -32 68 -69 151 -82 185
-21 56 -27 63 -49 60 -14 -1 -27 -4 -30 -7 -3 -3 -15 -10 -27 -17 -17 -10 -24
-9 -32 1 -6 7 -7 17 -3 21 4 5 1 5 -6 1 -10 -6 -10 -11 -1 -22 9 -11 8 -15 -4
-20 -9 -3 -20 -3 -25 0 -6 3 -15 -1 -22 -9 -7 -8 -27 -17 -46 -21 -19 -3 -34
-10 -34 -14 0 -4 -10 -10 -21 -13 -18 -5 -14 2 16 33 21 22 42 37 47 34 5 -3
7 0 6 8 -2 7 4 12 12 10 8 -2 11 0 7 4 -4 5 8 24 28 44 19 19 50 54 68 77 17
23 67 85 111 138 l78 96 29 125 c16 69 36 138 45 155 21 41 45 34 60 -16 l11
-39 40 69 c93 159 239 487 227 507 -8 13 -26 8 -89 -24z"/>
<path d="M1130 6398 c0 -2 9 -49 20 -105 73 -375 99 -799 65 -1042 -16 -109
-17 -140 -6 -221 22 -177 76 -349 167 -540 77 -160 136 -258 220 -362 l62 -76
-59 -27 c-156 -69 -365 -72 -538 -6 -30 11 -57 18 -59 16 -6 -6 61 -91 112
-140 94 -91 216 -161 324 -184 79 -17 217 -13 297 9 39 10 73 15 76 12 3 -4
11 -38 18 -75 46 -263 177 -483 333 -562 39 -19 77 -35 84 -35 8 0 14 -3 14
-6 0 -7 -154 -186 -877 -1022 -249 -287 -460 -537 -469 -554 -21 -41 -22 -124
-1 -163 26 -52 99 -115 179 -155 102 -51 169 -66 228 -51 41 11 103 70 784
754 407 408 719 720 694 692 -43 -48 -342 -378 -363 -401 -92 -99 -628 -688
-1120 -1229 -96 -105 -115 -138 -115 -199 0 -93 41 -145 158 -199 164 -77 358
-116 607 -124 166 -5 171 -4 215 19 51 27 -24 -89 889 1378 265 426 487 780
492 785 6 6 -45 -102 -112 -240 -67 -137 -156 -322 -199 -410 -376 -779 -470
-977 -484 -1020 -105 -327 58 -699 370 -842 104 -48 176 -64 294 -64 283 0
517 146 636 396 64 134 62 118 99 1060 19 479 38 924 42 990 l8 120 118 -830
c65 -456 127 -859 137 -895 50 -170 205 -313 380 -351 70 -15 232 -7 294 16
71 25 169 89 214 140 48 55 100 151 118 219 16 60 18 183 3 246 -9 38 -220
578 -410 1049 -32 80 -57 146 -55 148 2 2 202 -309 446 -691 469 -737 497
-775 609 -834 96 -52 161 -65 280 -59 123 6 179 23 272 82 100 64 162 149 199
273 29 94 25 227 -9 314 -47 123 -23 98 -889 881 -316 286 -378 344 -341 321
7 -4 322 -260 700 -570 379 -310 698 -569 709 -576 47 -30 164 70 192 165 19
63 16 249 -6 322 -42 142 -151 298 -351 504 -199 204 -556 501 -625 520 -19 5
-111 12 -205 16 -93 3 -204 8 -245 11 l-74 6 116 34 c170 49 298 98 428 166
232 121 354 217 457 364 24 33 102 116 175 185 153 145 199 200 262 320 107
202 152 410 176 819 29 497 127 893 274 1109 35 52 36 53 9 36 -175 -114 -365
-393 -496 -730 -55 -142 -139 -415 -236 -772 -100 -367 -139 -482 -185 -551
-38 -58 -103 -94 -161 -90 -46 3 -46 0 -15 113 12 44 26 137 33 206 l11 126
37 27 c39 27 135 133 128 141 -2 2 -29 -5 -59 -15 -30 -10 -71 -21 -90 -25
l-36 -6 -27 88 c-15 48 -39 122 -55 163 l-28 75 43 100 c23 55 54 141 69 190
30 101 34 190 19 470 -8 160 5 317 46 559 11 65 18 120 15 123 -10 10 -66 -29
-101 -69 -87 -103 -131 -250 -145 -487 -16 -264 -53 -450 -127 -635 -39 -99
-117 -243 -158 -291 l-25 -30 15 43 c41 121 48 190 50 497 2 319 13 433 60
616 12 49 21 89 19 89 -9 0 -73 -140 -92 -200 -33 -103 -51 -208 -102 -590
-32 -242 -55 -346 -100 -452 -68 -160 -205 -321 -320 -375 -38 -18 -59 -34
-59 -45 -1 -20 14 -24 24 -7 5 7 14 4 26 -7 17 -16 19 -16 14 -1 -5 13 -1 16
22 14 15 -1 64 2 108 6 l80 9 42 126 c39 118 42 123 37 70 -3 -32 -3 -58 0
-58 8 0 83 240 116 370 40 161 57 246 75 390 9 69 18 132 20 140 2 8 3 -77 1
-190 -6 -345 -66 -590 -191 -786 -20 -31 -34 -58 -31 -61 3 -3 59 -9 124 -14
126 -8 240 -25 260 -38 10 -6 1 -28 -33 -85 -57 -97 -108 -199 -151 -300 -62
-147 -140 -258 -225 -320 -58 -42 -209 -86 -297 -86 -154 0 -294 69 -382 187
-27 37 -57 84 -65 103 -9 19 -20 42 -25 50 -44 76 -80 154 -76 165 2 7 2 16
-2 20 -4 4 -7 10 -8 13 0 4 -6 21 -13 37 -23 59 -30 81 -41 125 -18 73 -18 73
-34 58 -10 -9 -11 -15 -2 -20 6 -4 6 -8 1 -8 -18 0 -19 -453 -1 -535 8 -38 13
-72 11 -76 -3 -3 9 -41 25 -83 17 -43 30 -80 30 -82 0 -10 -61 8 -114 32 -93
42 -96 47 -111 170 -26 209 -81 429 -135 534 -10 20 -16 40 -13 44 4 3 1 6 -5
6 -7 0 -12 5 -12 10 0 6 8 10 18 10 14 0 31 28 67 108 75 165 135 304 135 311
0 3 -27 23 -60 45 l-60 38 19 32 c50 82 82 140 126 229 40 79 52 96 67 92 53
-17 241 123 283 210 42 89 26 235 -41 367 -24 48 -24 48 -14 215 6 93 10 222
8 288 l-3 119 -55 16 -55 16 -22 -145 c-37 -238 -126 -573 -233 -876 -36 -103
-42 -111 -67 -100 -10 5 -21 7 -25 7 -5 -1 -8 3 -8 8 0 6 -4 10 -10 10 -18 0
-90 34 -90 43 0 4 -5 5 -11 1 -6 -3 -15 0 -20 7 -7 11 -11 10 -23 -6 -15 -20
-15 -20 -9 3 12 47 -18 19 -53 -50 -20 -40 -66 -124 -101 -186 -36 -62 -63
-116 -59 -119 3 -4 6 -1 6 7 0 8 4 9 13 3 6 -6 29 -13 50 -17 26 -5 41 -14 47
-29 8 -19 9 -19 9 -3 1 14 4 16 14 7 8 -6 17 -8 20 -4 6 5 11 -10 9 -28 -1 -3
5 -6 13 -6 8 0 12 4 9 9 -4 5 3 4 15 -4 12 -7 21 -16 21 -20 0 -5 5 -8 11 -8
6 0 17 -7 25 -15 9 -9 11 -15 4 -15 -6 0 -8 -4 -5 -10 3 -5 1 -10 -5 -10 -6 0
-9 -4 -6 -9 8 -12 -34 -111 -46 -111 -5 0 -7 -4 -3 -9 3 -5 -1 -16 -9 -24 -8
-8 -13 -17 -10 -19 2 -3 -11 -38 -30 -79 -19 -41 -35 -69 -36 -64 0 6 -5 3
-10 -5 -9 -13 -11 -13 -21 0 -9 13 -10 13 -6 0 2 -8 11 -14 20 -14 12 1 7 -15
-21 -72 -20 -41 -40 -74 -44 -74 -4 0 -10 11 -14 25 -3 14 -10 25 -14 25 -5 0
-18 19 -29 43 -56 116 -220 266 -309 282 -39 7 -44 -4 -20 -38 13 -17 28 -41
34 -52 6 -11 27 -50 48 -88 26 -47 35 -74 31 -90 -5 -16 -4 -18 3 -8 8 11 14
6 27 -25 9 -21 19 -51 22 -66 3 -15 9 -25 14 -22 5 3 9 -5 9 -17 0 -21 -2 -21
-83 -14 l-82 6 -29 -63 c-73 -163 -129 -356 -160 -555 -11 -66 -14 -77 -15
-45 -2 91 96 491 140 574 17 33 -9 28 -69 -12 -57 -38 -182 -154 -182 -169 0
-4 -13 -22 -29 -40 -17 -18 -37 -48 -46 -67 -9 -19 -20 -34 -25 -34 -6 0 -10
-6 -10 -14 0 -7 -6 -19 -14 -25 -8 -7 -12 -20 -9 -31 3 -10 -2 -31 -10 -47
-21 -38 -37 -112 -37 -167 0 -39 -3 -46 -19 -46 -41 0 -180 58 -246 102 -117
78 -245 220 -260 289 -4 15 -13 33 -21 40 -29 24 -72 154 -98 297 -5 31 -4 32
29 33 19 1 40 3 45 4 6 1 12 3 15 4 14 3 -52 109 -94 151 -33 33 -51 61 -59
91 -17 67 -25 349 -12 399 6 23 9 44 6 47 -7 7 -46 -124 -52 -177 -10 -80 -15
-77 -53 30 -51 142 -90 225 -144 307 -45 69 -114 148 -153 174 -14 9 -40 60
-69 134 -83 211 -182 373 -292 475 -35 33 -68 60 -73 60 -5 0 7 -26 26 -57 99
-165 162 -431 184 -783 27 -431 82 -590 272 -786 82 -85 106 -115 76 -98 -7 4
-10 4 -6 -1 5 -5 22 -10 40 -12 18 -2 35 -7 39 -11 3 -4 12 -50 19 -102 10
-80 45 -247 66 -312 9 -30 -19 -21 -99 31 -97 64 -197 165 -274 277 -154 226
-192 357 -268 929 -58 433 -86 591 -131 725 -31 92 -112 265 -121 257 -2 -2 4
-27 13 -57 24 -79 60 -269 80 -415 15 -106 18 -190 16 -450 -3 -405 15 -585
73 -727 12 -32 20 -58 16 -58 -20 1 -143 199 -206 332 -125 265 -196 582 -215
956 -5 103 -16 224 -25 269 -45 236 -142 417 -264 495 -39 24 -61 34 -61 26z
m136 -250 c51 -98 122 -379 149 -585 12 -92 15 -191 13 -410 -3 -275 -2 -292
21 -383 36 -144 93 -302 167 -462 36 -78 68 -150 71 -158 12 -30 -80 67 -132
140 -175 249 -275 599 -277 977 -1 76 5 206 12 288 10 120 11 176 1 280 -11
121 -35 287 -47 328 -9 28 4 20 22 -15z m5227 -174 c-13 -68 -16 -132 -13
-269 8 -439 0 -532 -60 -725 -36 -114 -45 -132 -60 -110 -7 11 -8 6 -4 -16 5
-26 -2 -46 -35 -102 -23 -39 -64 -95 -91 -124 l-51 -53 36 72 c58 120 111 262
140 377 23 93 27 125 24 225 -8 289 4 424 55 616 26 97 66 209 72 203 2 -3 -4
-45 -13 -94z m876 -265 c-42 -135 -110 -467 -188 -919 -56 -317 -106 -455
-223 -607 -42 -55 -154 -153 -175 -153 -8 0 1 25 22 63 82 149 166 371 215
564 11 45 31 155 45 245 39 251 90 430 178 623 44 95 136 259 143 253 2 -2 -6
-33 -17 -69z m-5267 -73 c60 -120 109 -267 133 -396 43 -243 59 -313 95 -422
21 -64 58 -157 82 -205 24 -48 44 -91 46 -95 10 -22 -25 -3 -68 38 -129 121
-169 225 -245 642 -31 172 -71 371 -89 443 -36 146 -30 145 46 -5z m-232 -532
c16 -166 62 -430 110 -619 38 -150 156 -535 164 -535 2 0 2 18 0 40 -2 22 -6
59 -8 81 -3 23 -1 38 4 33 4 -5 36 -97 71 -204 34 -107 65 -197 68 -200 3 -3
7 -18 9 -35 2 -29 0 -28 -54 30 -226 245 -352 611 -384 1125 -9 131 -4 417 6
407 2 -2 8 -57 14 -123z m514 -41 c54 -167 110 -395 103 -416 -2 -6 -18 42
-36 108 -18 66 -55 198 -82 294 -52 186 -51 181 -44 181 2 0 29 -75 59 -167z
m2139 142 c-3 -9 -8 -14 -10 -11 -3 3 -2 9 2 15 9 16 15 13 8 -4z m48 -58
c-10 -9 -11 -8 -5 6 3 10 9 15 12 12 3 -3 0 -11 -7 -18z m60 -34 c-12 -20 -14
-14 -5 12 4 9 9 14 11 11 3 -2 0 -13 -6 -23z m-80 -6 c-10 -9 -11 -8 -5 6 3
10 9 15 12 12 3 -3 0 -11 -7 -18z m-2010 -259 c67 -131 100 -247 169 -594 94
-475 187 -678 358 -776 39 -22 51 -34 39 -36 -49 -10 -173 60 -229 129 -40 48
-88 140 -119 221 l-19 53 6 -60 c10 -94 41 -203 83 -290 22 -44 37 -82 35 -84
-9 -9 -76 66 -108 119 -91 151 -139 367 -156 700 -14 288 -26 365 -86 575 -19
66 -34 124 -34 130 1 16 29 -24 61 -87z m3836 -210 c-3 -57 -11 -118 -17 -136
-11 -30 -15 -33 -44 -26 -17 3 -48 15 -68 25 l-38 19 43 54 c24 29 59 78 78
109 19 31 38 57 43 57 5 0 6 -45 3 -102z m47 -216 c23 -102 31 -245 17 -316
-15 -81 -43 -131 -110 -197 -70 -70 -97 -119 -156 -289 -72 -207 -106 -263
-194 -320 -128 -82 -307 -125 -486 -117 -134 5 -200 24 -273 78 -79 58 -170
211 -221 369 -22 67 -62 240 -56 240 2 0 41 -72 86 -159 104 -203 184 -307
260 -341 107 -47 403 -36 552 20 124 46 162 97 221 296 49 161 82 234 141 304
88 104 150 262 177 445 7 47 15 80 19 73 4 -7 14 -46 23 -86z m-2258 -84 c147
-163 278 -446 335 -721 34 -170 77 -267 160 -361 l44 -49 -86 6 c-161 11 -256
69 -298 181 -24 64 -41 224 -41 384 0 167 -45 342 -131 515 -27 53 -45 97 -40
97 5 0 31 -24 57 -52z m-1663 -95 c-7 -2 -19 -2 -25 0 -7 3 -2 5 12 5 14 0 19
-2 13 -5z m1491 -453 c3 -107 9 -222 12 -255 6 -57 5 -62 -25 -92 -47 -50
-133 -88 -153 -68 -8 8 29 264 51 350 18 73 32 115 78 244 11 28 18 38 23 30
4 -8 10 -102 14 -209z m-329 85 c-59 -170 -68 -319 -30 -467 20 -76 58 -162
91 -206 14 -18 24 -35 21 -38 -2 -2 -24 4 -48 14 -62 27 -122 96 -150 173
l-24 64 -25 -107 c-14 -59 -28 -110 -32 -114 -5 -4 -8 17 -9 47 0 30 -2 65 -4
79 -5 47 15 215 35 295 26 99 78 213 133 285 36 49 68 82 74 76 1 -1 -14 -46
-32 -101z m1370 -1994 c3 -5 1 -12 -5 -16 -5 -3 -10 1 -10 9 0 18 6 21 15 7z"/>
<path d="M3390 5924 c0 -5 4 -14 8 -19 5 -6 21 -40 36 -76 l27 -67 -34 -53
c-18 -30 -37 -63 -41 -74 -9 -24 -10 -25 53 58 l52 68 -41 77 c-43 79 -60 104
-60 86z"/>
<path d="M5676 5379 c-32 -34 -72 -90 -89 -125 -27 -55 -29 -66 -19 -89 11
-23 15 -25 28 -15 13 11 13 10 5 -13 -8 -19 -6 -35 3 -59 l14 -32 11 44 c6 25
33 113 60 195 27 83 48 151 46 153 -1 1 -28 -25 -59 -59z"/>
<path d="M4050 4883 c0 -4 5 -15 10 -23 8 -13 10 -13 10 2 0 9 -4 20 -10 23
-5 3 -10 3 -10 -2z"/>
<path d="M3954 4848 l-19 -23 23 19 c21 18 27 26 19 26 -2 0 -12 -10 -23 -22z"/>
<path d="M4120 4860 c0 -5 5 -10 10 -10 6 0 10 5 10 10 0 6 -4 10 -10 10 -5 0
-10 -4 -10 -10z"/>
<path d="M4360 4846 c0 -2 7 -6 15 -10 8 -3 15 -1 15 4 0 6 -7 10 -15 10 -8 0
-15 -2 -15 -4z"/>
<path d="M3730 4700 c0 -5 5 -10 11 -10 5 0 7 5 4 10 -3 6 -8 10 -11 10 -2 0
-4 -4 -4 -10z"/>
<path d="M3710 4660 c0 -5 5 -10 11 -10 5 0 7 5 4 10 -3 6 -8 10 -11 10 -2 0
-4 -4 -4 -10z"/>
<path d="M4434 4659 c-3 -6 -2 -15 3 -20 5 -5 9 -1 9 11 0 23 -2 24 -12 9z"/>
<path d="M4410 4646 c0 -8 4 -17 9 -20 5 -4 7 3 4 14 -6 23 -13 26 -13 6z"/>
<path d="M3726 4625 c-9 -26 -7 -32 5 -12 6 10 9 21 6 23 -2 3 -7 -2 -11 -11z"/>
<path d="M3688 4611 c-16 -18 -15 -20 1 -18 9 0 17 9 17 19 0 10 -1 18 -1 18
0 0 -8 -9 -17 -19z"/>
<path d="M3672 4555 c0 -16 2 -22 5 -12 2 9 2 23 0 30 -3 6 -5 -1 -5 -18z"/>
<path d="M4910 4411 c0 -111 3 -143 15 -155 13 -13 13 -15 -3 -19 -13 -4 -11
-5 6 -6 12 0 22 2 22 7 0 4 21 8 48 10 26 1 70 7 97 12 28 6 88 12 135 14 47
3 91 5 98 5 25 2 11 32 -24 48 l-36 18 -29 -33 -29 -33 -10 26 c-6 15 -10 32
-10 40 0 8 -4 16 -10 20 -5 3 -7 12 -3 20 3 8 1 15 -5 15 -5 0 -63 32 -128 71
-66 39 -122 73 -126 76 -5 2 -8 -59 -8 -136z"/>
<path d="M3656 4517 c3 -10 9 -15 12 -12 3 3 0 11 -7 18 -10 9 -11 8 -5 -6z"/>
<path d="M3585 4389 c-4 -6 -5 -12 -2 -15 2 -3 7 2 10 11 7 17 1 20 -8 4z"/>
<path d="M2974 4368 c-20 -9 -20 -13 -9 -51 11 -39 15 -42 50 -45 20 -2 36 0
34 5 -33 77 -45 103 -49 102 -3 0 -15 -5 -26 -11z"/>
<path d="M3535 4299 c-4 -6 -5 -12 -2 -15 2 -3 7 2 10 11 7 17 1 20 -8 4z"/>
<path d="M3500 4259 c0 -5 5 -7 10 -4 6 3 10 8 10 11 0 2 -4 4 -10 4 -5 0 -10
-5 -10 -11z"/>
<path d="M5440 4239 c0 -5 5 -7 10 -4 6 3 10 8 10 11 0 2 -4 4 -10 4 -5 0 -10
-5 -10 -11z"/>
<path d="M3420 4230 c-25 -6 -25 -6 5 -12 17 -4 34 -3 38 1 12 12 -14 19 -43
11z"/>
<path d="M3480 4226 c0 -2 9 -6 20 -9 11 -3 20 -1 20 4 0 5 -9 9 -20 9 -11 0
-20 -2 -20 -4z"/>
<path d="M4914 4202 c2 -21 21 -19 23 3 l3 20 -9 -20 c-6 -16 -9 -17 -13 -5
-3 8 -4 9 -4 2z"/>
<path d="M4808 4203 c7 -3 16 -2 19 1 4 3 -2 6 -13 5 -11 0 -14 -3 -6 -6z"/>
<path d="M4813 4150 c0 -25 2 -35 4 -22 2 12 2 32 0 45 -2 12 -4 2 -4 -23z"/>
<path d="M4831 4164 c0 -11 3 -14 6 -6 3 7 2 16 -1 19 -3 4 -6 -2 -5 -13z"/>
<path d="M2831 4134 c0 -11 3 -14 6 -6 3 7 2 16 -1 19 -3 4 -6 -2 -5 -13z"/>
<path d="M3436 3847 c3 -10 9 -15 12 -12 3 3 0 11 -7 18 -10 9 -11 8 -5 -6z"/>
<path d="M4811 3694 c0 -11 3 -14 6 -6 3 7 2 16 -1 19 -3 4 -6 -2 -5 -13z"/>
<path d="M5688 3513 c7 -3 16 -2 19 1 4 3 -2 6 -13 5 -11 0 -14 -3 -6 -6z"/>
</g>
</svg>
